<svg xmlns="http://www.w3.org/2000/svg" xmlns:xlink="http://www.w3.org/1999/xlink" fill="none" version="1.1" width="1024" height="1024" viewBox="0 0 1024 1024"><defs><linearGradient x1="0" y1="0" x2="1" y2="1" id="master_svg0_46_311"><stop offset="0%" stop-color="#7193FF" stop-opacity="1"/><stop offset="100%" stop-color="#B780FF" stop-opacity="1"/></linearGradient><clipPath id="master_svg1_46_285"><rect x="0" y="0" width="1024" height="1024" rx="0"/></clipPath><filter id="master_svg2_46_288" filterUnits="objectBoundingBox" color-interpolation-filters="sRGB" x="-20" y="-16" width="796" height="239"><feFlood flood-opacity="0" result="BackgroundImageFix"/><feColorMatrix in="SourceAlpha" type="matrix" values="0 0 0 0 0 0 0 0 0 0 0 0 0 0 0 0 0 0 127 0"/><feOffset dy="4" dx="0"/><feGaussianBlur stdDeviation="5"/><feColorMatrix type="matrix" values="0 0 0 0 0 0 0 0 0 0 0 0 0 0 0 0 0 0 0.3019607961177826 0"/><feBlend mode="normal" in2="BackgroundImageFix" result="effect1_dropShadow"/><feBlend mode="normal" in="SourceGraphic" in2="effect1_dropShadow" result="shape"/></filter><filter id="master_svg3_46_298" filterUnits="objectBoundingBox" color-interpolation-filters="sRGB" x="-20" y="-16" width="819.9425659179688" height="558.3117065429688"><feFlood flood-opacity="0" result="BackgroundImageFix"/><feColorMatrix in="SourceAlpha" type="matrix" values="0 0 0 0 0 0 0 0 0 0 0 0 0 0 0 0 0 0 127 0"/><feOffset dy="4" dx="0"/><feGaussianBlur stdDeviation="5"/><feColorMatrix type="matrix" values="0 0 0 0 0 0 0 0 0 0 0 0 0 0 0 0 0 0 0.3019607961177826 0"/><feBlend mode="normal" in2="BackgroundImageFix" result="effect1_dropShadow"/><feBlend mode="normal" in="SourceGraphic" in2="effect1_dropShadow" result="shape"/></filter></defs><g style="mix-blend-mode:passthrough" clip-path="url(#master_svg1_46_285)"><rect x="0" y="0" width="1024" height="1024" rx="0" fill="url(#master_svg0_46_311)" fill-opacity="1" style="mix-blend-mode:darken"/><g style="mix-blend-mode:passthrough" filter="url(#master_svg2_46_288)"><path d="M149.5,810.7188L149.5,783.6562L188.5312,762L211,762L211,886L182,886L182,792.9531L149.5,810.7188ZM337,823.5938Q337,855.031,325.203,871.516Q313.406,888,291.672,888Q269.938,888,257.969,871.594Q246,855.188,246,823.5938Q246,791.9844,257.969,775.5Q269.938,759,291.672,759Q313.406,759,325.203,775.5Q337,791.9844,337,823.5938ZM277,824Q277,843.25,280.578,852.625Q284.156,862,291.656,862Q299,862,302.5,852.547Q306,843.094,306,824Q306,804.9062,302.5,795.4531Q299,786,291.656,786Q284.156,786,280.578,795.2031Q277,804.3906,277,824ZM420.844,818.5Q430.312,823.0625,435.656,831.016Q441,838.969,441,850.125Q441,861.281,435.453,869.922Q429.906,878.547,419.578,883.281Q409.25,888,395.438,888Q381.26599999999996,888,370.76599999999996,883.188Q360.281,878.375,354.64099999999996,869.828Q349,861.281,349,850.125Q349,838.969,354.35900000000004,831.016Q359.73400000000004,823.0625,369.094,818.6719Q361.5,814.7812,357.25,808.3438Q353,801.9062,353,793.4531Q353,784.1406,357.875,776.3594Q362.76599999999996,768.5625,372.344,764Q381.922,759.4375,395.281,759.4375Q408.609,759.4375,417.766,763.9219Q426.938,768.3906,431.469,776.1094Q436,783.8125,436,793.4531Q436,801.9062,432.031,808.3438Q428.078,814.7812,420.844,818.5ZM395.141,783Q389.594,783,386.297,786.4531Q383,789.9062,383,795.0781Q383,800.2656,386.297,803.6406Q389.594,807,395.141,807Q400.5,807,403.969,803.6406Q407.438,800.2656,407.438,795.0781Q407.438,790.0781,403.969,786.5469Q400.5,783,395.141,783ZM395.344,862Q401.734,862,405.859,857.812Q410,853.625,410,846.578Q410,839.547,406.031,835.281Q402.078,831,395.344,831Q388.438,831,384.219,835.281Q380,839.547,380,846.578Q380,853.625,384.297,857.812Q388.594,862,395.344,862ZM504.734,806Q516.625,806,525.703,810.9219Q534.797,815.8281,539.8910000000001,824.8125Q545,833.781,545,845.812Q545,858.016,538.812,867.672Q532.625,877.328,522.125,882.672Q511.625,888,499.422,888Q487.031,888,476.609,882.578Q466.203,877.156,460.094,867.156Q454,857.141,454,844.078Q454,834.25,457.625,825.2656Q461.266,816.2656,471.062,801.0156L496.234,761.5L527.188,761.5L503.844,796.9844Q498.094,805.125,496.734,806.8281Q500.984,806,504.734,806ZM499.094,862Q505.625,862,509.812,857.422Q514,852.828,514,845.531Q514,838.391,509.812,833.984Q505.625,829.562,499.094,829.562Q492.375,829.562,488.188,834.062Q484,838.562,484,845.703Q484,852.828,488.266,857.422Q492.547,862,499.094,862ZM714.359,855.516L696,857.391L696,900.406L672.359,900.406L672.359,859.781L621.875,865.047L620.344,841.922L672.359,836.484L672.359,781.75L658.109,798.2344Q652.344,792.2812,643.438,784.3906Q634.547,776.4844,628.781,771.8906L643.3589999999999,755.2188Q654.219,763.0469,672.359,779.5312L672.359,744L696,744L696,834.109L712.656,832.406L714.359,855.516ZM603.562,812Q618.2339999999999,823.9062,626.578,832.234L612.719,848.547L603.562,839.031L603.562,900.906L581.844,900.906L581.844,844.812Q575.047,860.797,566.7339999999999,873.719L553.4839999999999,853.828Q567.578,833.25,577.594,809.2812L560.969,809.2812L560.969,787.1875L581.844,787.1875L581.844,774.9531Q570.469,776.9844,563.344,777.8281L561.1410000000001,756.4062Q573.5160000000001,755.2188,590.656,751.8281Q607.797,748.4219,620.8589999999999,744.8438L625.047,765.9375Q617.547,768.1406,603.562,771.0312L603.562,787.1875L622,787.1875L622,809.2812L603.562,809.2812L603.562,812ZM653.031,838.516Q646.078,832.062,637.422,824.4219Q628.781,816.7656,623.703,812.8438L638.453,795Q644.7339999999999,799.5938,653.203,806.6562Q661.672,813.7031,668.453,820.1562L653.031,838.516ZM875.734,902.922Q849.047,890.516,833.234,877.938Q817.078,888.984,788.703,902.406L776.219,878.781Q800.703,869.094,815.219,860.25Q802.641,844.953,793.469,822L788.875,822L788.875,799.0469L820.828,799.0469L820.828,785.1875L788.188,785.1875L788.188,762.0469L820.828,762.0469L820.828,743.2969L843.938,743.2969L843.938,762.0469L881,762.0469L881,785.1875L843.938,785.1875L843.938,799.0469L875.734,799.0469L875.734,822.5156Q870.125,835.938,864.516,845.375Q858.906,854.812,851.422,862.797Q865.531,871.297,886.266,877.766L875.734,902.922ZM783.391,829.828Q779.734,831.188,769.766,834.75L769.766,877.938Q769.766,890,765.078,895.016Q760.406,900.031,749.375,900.203Q744.781,900.203,736.281,899.516L732.031,876.578Q737.484,877.594,742.734,877.594Q744.766,877.594,745.703,875.812Q746.641,874.016,746.641,869.766L746.641,842.734L728.453,849.031L724.375,823.3594Q735.766,820.4688,746.641,817.0625L746.641,794.0312L731.688,794.0312L731.688,768.875L746.641,768.875L746.641,744.1562L769.766,744.1562L769.766,768.875L782,768.875L782,794.0312L769.766,794.0312L769.766,809.7656Q779.875,806.0156,782.031,805.1719L783.391,829.828ZM817.094,822Q823.734,837.469,832.719,847.5Q844.109,837.125,850.734,822L817.094,822Z" fill="#FFFFFF" fill-opacity="1"/></g><g style="mix-blend-mode:passthrough" transform="matrix(0.9986295104026794,-0.052335962653160095,0.052335962653160095,0.9986295104026794,-6.749494060155939,5.885278178573117)" filter="url(#master_svg3_46_298)"><g transform="matrix(0.9848077297210693,-0.17367450892925262,0.1736217588186264,0.9848077297210693,-28.606677310364717,81.3120558489095)"><path d="M479.14389067382814,204.1956249067383C475.2179906738281,204.42651490673828,471.24809067382813,204.49857190673828,467.1609906738281,204.5563619067383C457.6391306738281,204.67176090673829,450.1680556738281,212.28877190673828,450.3292506238281,221.55039190673827C450.51978667382815,230.85519190673827,458.34240067382814,238.2846919067383,467.7615906738281,238.16939190673827C472.3466906738281,238.12599190673828,476.8439906738281,237.96739190673827,481.3266906738281,237.73649190673828C490.76049067382814,237.24599190673828,497.93849067382814,229.31159190673827,497.3672906738281,220.0211919067383C496.73719067382814,210.78830190673827,488.60699067382814,203.67623590673827,479.14389067382814,204.1956249067383C479.14389067382814,204.1956249067383,479.14389067382814,204.1956249067383,479.14389067382814,204.1956249067383Z" fill="#FFFFFF" fill-opacity="1"/></g><g><path d="M327.13212387695313,352.1389212036133C336.5712238769531,304.3956212036133,371.2637238769531,264.9484212036133,418.7792238769531,249.92722120361327C427.73822387695316,247.0888212036133,432.70522387695314,237.5254212036133,429.91722387695313,228.63172120361327C427.11422387695313,219.70892120361327,417.54422387695314,214.78899120361328,408.58422387695316,217.62742820361328C349.0600238769531,236.4482212036133,305.5096238769531,285.90962120361326,293.7174858769531,345.7639212036133C291.9168538769531,354.9779212036133,297.9142138769531,363.8279212036133,307.13552387695313,365.60392120361325C316.3865238769531,367.3649212036133,325.3314238769531,361.33892120361327,327.13212387695313,352.1389212036133Z" fill="#FFFFFF" fill-opacity="1"/></g><g style="mix-blend-mode:passthrough"><g><path d="M255.82327270507812,392.9364023151398Q255.82327270507812,442.22140231513976,274.84697270507814,487.20640231513977Q293.2264727050781,530.6674023151397,326.7490727050781,564.1944023151398Q360.2712727050781,597.7224023151398,403.7252727050781,616.1044023151399Q448.7012727050781,635.1304023151397,497.9772727050781,635.1304023151397Q547.2532727050782,635.1304023151397,592.2292727050781,616.1044023151399Q635.6832727050781,597.7224023151398,669.2052727050782,564.1944023151398Q702.7282727050781,530.6674023151397,721.1072727050781,487.20640231513977Q740.1312727050781,442.22140231513976,740.1312727050781,392.9364023151398Q740.1312727050781,343.65140231513976,721.1072727050781,298.6674023151398Q702.7282727050781,255.20640231513977,669.2052727050782,221.67830231513977Q635.6832727050781,188.15070231513977,592.2292727050781,169.7686023151398Q547.2532727050782,150.74240231513977,497.9772727050781,150.74240231513977Q448.7012727050781,150.74240231513977,403.7252727050781,169.7686023151398Q360.2712727050781,188.15080231513977,326.7490727050781,221.67830231513977Q293.2264727050781,255.20640231513977,274.8470727050781,298.6674023151398Q255.82327270507812,343.65140231513976,255.82327270507812,392.9364023151398L255.82327270507812,392.9364023151398ZM225.82327270507812,392.9364023151398Q225.82327270507812,337.5684023151398,247.21621270507814,286.9824023151398Q267.8746727050781,238.13240231513976,305.5341727050781,200.46680231513977Q343.1942727050781,162.80110231513976,392.0372727050781,142.13914231513976Q442.6172727050781,120.74240231513977,497.9772727050781,120.74240231513977Q553.3372727050781,120.74240231513977,603.9172727050782,142.13914231513976Q652.7602727050781,162.80100231513978,690.4202727050781,200.46680231513977Q728.0792727050781,238.13240231513976,748.7382727050781,286.9824023151398Q770.1312727050781,337.56940231513977,770.1312727050781,392.9364023151398Q770.1312727050781,448.3044023151398,748.7382727050781,498.89140231513977Q728.0792727050781,547.7414023151398,690.4202727050781,585.4064023151398Q652.7602727050781,623.0724023151397,603.9172727050782,643.7344023151397Q553.3372727050781,665.1304023151398,497.9772727050781,665.1304023151398Q442.61627270507813,665.1304023151398,392.0372727050781,643.7344023151397Q343.1942727050781,623.0724023151397,305.5341727050781,585.4064023151398Q267.8746727050781,547.7414023151398,247.21619270507813,498.89140231513977Q225.82327270507812,448.3044023151398,225.82327270507812,392.9364023151398L225.82327270507812,392.9364023151398Z" fill="#FFFFFF" fill-opacity="1"/></g><g><path d="M203.64903051757813,401.27745187568667Q159.24373051757811,430.8684518756867,138.6665305175781,459.44445187568664Q119.87833051757812,485.5364518756867,125.13113051757813,505.14345187568665Q129.81143051757812,522.6134518756867,162.78523051757813,534.7854518756867Q198.55703051757814,547.9894518756867,257.8230305175781,550.8254518756867Q316.99703051757814,553.6574518756867,386.80503051757813,545.5194518756866Q458.7220305175781,537.1364518756866,527.3720305175782,518.7394518756867Q597.638030517578,499.90845187568664,663.6050305175781,473.89145187568664Q729.9490305175781,447.72545187568664,779.6150305175781,419.14345187568665Q830.6850305175781,389.75445187568664,855.2010305175781,362.93745187568663Q877.7240305175782,338.3025518756866,873.1960305175782,321.40365187568665Q868.2080305175781,302.7855518756866,841.3980305175781,289.8856518756867Q811.9800305175781,275.73115187568663,762.8460305175781,271.44265187568664Q762.4790305175782,271.41065187568665,762.1140305175782,271.36065187568664Q761.7500305175781,271.31065187568663,761.3880305175782,271.24285187568665Q761.0260305175781,271.1750518756866,760.6670305175782,271.08955187568665Q760.3090305175781,271.0040518756866,759.9560305175781,270.9010518756866Q759.6020305175781,270.79805187568667,759.2540305175781,270.67795187568663Q758.9060305175781,270.5577518756866,758.5640305175781,270.42055187568667Q758.2230305175781,270.28345187568664,757.8880305175782,270.1297518756866Q757.5530305175781,269.97595187568663,757.2270305175781,269.80605187568665Q756.9000305175781,269.63605187568663,756.5820305175781,269.45025187568666Q756.2640305175781,269.26455187568666,755.9560305175781,269.06335187568664Q755.6470305175782,268.86215187568666,755.3490305175782,268.64615187568666Q755.0510305175782,268.4300518756867,754.7640305175781,268.19965187568664Q754.4770305175781,267.96925187568667,754.2010305175781,267.72495187568666Q753.9250305175781,267.4807518756866,753.6620305175782,267.2232518756866Q753.3990305175781,266.96585187568667,753.1490305175781,266.69575187568665Q752.8980305175781,266.42566187568667,752.6610305175781,266.14363187568665Q752.4250305175781,265.86159187568666,752.2020305175781,265.56829187568667Q751.9790305175782,265.27498187568665,751.7720305175782,264.97110187568666Q751.5630305175781,264.66722187568666,751.3710305175781,264.3535018756866Q751.1780305175781,264.03979187568666,751.0010305175781,263.71699187568663Q750.8240305175781,263.3941818756866,750.6620305175782,263.06308187568663Q750.5010305175781,262.73197187568667,750.3570305175781,262.39336187568665Q750.2120305175781,262.05475187568663,750.0840305175781,261.7094518756866Q749.9560305175781,261.36414187568664,749.8450305175782,261.01298187568665Q749.7340305175782,260.6618118756866,749.6410305175781,260.30564187568666Q749.5480305175781,259.94946187568667,749.4720305175781,259.58913187568663Q749.3960305175781,259.2287918756866,749.3380305175781,258.86517187568666Q749.2800305175781,258.50155187568663,749.2400305175781,258.13552187568666Q749.2000305175782,257.76949187568664,749.1770305175781,257.4019268756866Q749.1550305175781,257.03436487568666,749.1510305175781,256.6661578756866Q749.1470305175782,256.29795187568664,749.1610305175781,255.92998787568663Q749.1750305175781,255.56202387568663,749.2070305175781,255.19519187568665Q749.2390305175782,254.82835187568665,749.2890305175781,254.46353187568664Q749.3390305175782,254.09871187568663,749.4070305175782,253.73678187568663Q749.4750305175781,253.37485187568666,749.5600305175781,253.01668187568666Q749.6460305175781,252.65852187568663,749.7490305175781,252.30498187568665Q749.8520305175781,251.95144187568664,749.9720305175781,251.60338187568664Q750.0920305175781,251.25532187568663,750.2290305175782,250.91357187568664Q750.3660305175781,250.57183187568666,750.5200305175781,250.23722187568666Q750.6740305175781,249.90262187568663,750.8440305175782,249.57596187568666Q751.0140305175781,249.24930187568665,751.1990305175781,248.93138187568664Q751.3850305175781,248.61345187568665,751.5860305175781,248.30502187568663Q751.7870305175782,247.99660187568665,752.0030305175782,247.69842187568665Q752.2190305175782,247.40023187568664,752.4500305175782,247.11301187568665Q752.6800305175781,246.82578187568666,752.9250305175781,246.55021187568664Q753.1690305175781,246.27465187568666,753.4260305175782,246.01135187568664Q753.6840305175781,245.74815187568663,753.9540305175781,245.49785187568665Q754.2240305175782,245.24755187568664,754.5060305175781,245.01075187568665Q754.7880305175781,244.77405187568664,755.0810305175781,244.55135187568663Q755.3750305175781,244.32875187568663,755.6790305175781,244.12075187568664Q755.9820305175781,243.91285187568664,756.2960305175782,243.72005187568664Q756.6100305175781,243.52725187568666,756.9330305175781,243.35005187568663Q757.2550305175781,243.17285187568666,757.5870305175781,243.01175187568666Q757.9180305175781,242.85055187568665,758.2560305175781,242.70595187568665Q758.5950305175782,242.56125187568665,758.9400305175782,242.43335187568664Q759.2850305175781,242.30545187568666,759.6370305175781,242.19465187568665Q759.9880305175782,242.08385187568663,760.3440305175782,241.99035187568666Q760.7000305175782,241.89695187568665,761.0600305175781,241.82115187568664Q761.4210305175782,241.74525187568665,761.7840305175781,241.68715187568665Q762.1480305175781,241.62915187568666,762.5140305175781,241.58895187568663Q762.8800305175781,241.54875187568663,763.2480305175782,241.52665187568664Q763.6150305175781,241.50445187568664,763.9840305175782,241.50035187568665Q764.3520305175781,241.49625187568665,764.7200305175782,241.51025187568663Q765.0880305175781,241.52425187568664,765.4540305175781,241.55625187568666Q820.0480305175781,246.32125187568664,854.4050305175781,262.85214187568664Q893.6230305175782,281.72195187568667,902.1740305175781,313.64035187568663Q910.9550305175782,346.4148518756866,877.3430305175781,383.18045187568663Q849.6840305175781,413.4334518756866,794.5790305175781,445.1454518756866Q743.0030305175782,474.82545187568667,674.6120305175781,501.79945187568666Q607.0550305175782,528.4434518756866,535.1370305175781,547.7164518756866Q464.37203051757814,566.6814518756867,390.2790305175781,575.3184518756866Q318.0240305175781,583.7414518756866,256.38903051757814,580.7914518756866Q192.50543051757813,577.7344518756867,152.39663051757813,562.9294518756867Q104.85257051757813,545.3794518756866,96.15303051757813,512.9074518756867Q87.21763051757813,479.55445187568665,114.32137051757813,441.9144518756866Q138.07883051757813,408.92145187568667,187.01303051757813,376.31245187568663Q187.31953051757813,376.1084518756866,187.6355305175781,375.91945187568666Q187.9516305175781,375.73045187568664,188.27663051757813,375.55745187568664Q188.6015305175781,375.38445187568664,188.9346305175781,375.22745187568665Q189.26773051757812,375.0704518756867,189.6081305175781,374.92945187568665Q189.94843051757812,374.78945187568667,190.29533051757812,374.66545187568664Q190.64223051757813,374.54245187568665,190.99473051757812,374.4354518756867Q191.3472305175781,374.32945187568663,191.70453051757812,374.24045187568663Q192.06183051757813,374.15145187568663,192.42303051757813,374.07945187568663Q192.78433051757813,374.00845187568666,193.1486305175781,373.95445187568663Q193.51293051757813,373.90145187568663,193.87943051757813,373.86545187568663Q194.24593051757813,373.83045187568666,194.61373051757812,373.81245187568663Q194.9815305175781,373.79445187568666,195.3497305175781,373.79545187568664Q195.7179305175781,373.79545187568664,196.08573051757813,373.81445187568664Q196.45353051757814,373.8324518756866,196.81993051757814,373.86945187568665Q197.18633051757814,373.90545187568665,197.55053051757812,373.96045187568666Q197.9147305175781,374.01445187568663,198.27573051757813,374.0874518756866Q198.63683051757812,374.1594518756866,198.99393051757812,374.24945187568665Q199.35093051757812,374.3394518756867,199.7032305175781,374.44645187568665Q200.05543051757815,374.5534518756866,200.4020305175781,374.6784518756866Q200.74853051757813,374.80245187568664,201.08853051757814,374.94445187568664Q201.42863051757814,375.08545187568666,201.76123051757813,375.2434518756867Q202.09393051757814,375.40145187568663,202.41853051757812,375.57545187568667Q202.74303051757812,375.74945187568665,203.05863051757814,375.93945187568664Q203.37423051757813,376.12845187568666,203.6801305175781,376.33345187568665Q203.98603051757811,376.53845187568663,204.28153051757812,376.75845187568666Q204.57703051757812,376.97845187568663,204.86143051757813,377.2124518756866Q205.14573051757813,377.4454518756867,205.4183305175781,377.69345187568666Q205.69083051757812,377.94145187568665,205.95083051757814,378.20145187568664Q206.2109305175781,378.4624518756866,206.45783051757815,378.73545187568664Q206.70483051757813,379.00845187568666,206.9380305175781,379.2934518756866Q207.17133051757813,379.57845187568665,207.39033051757812,379.87445187568665Q207.60933051757814,380.17045187568664,207.81353051757813,380.47745187568665Q208.01773051757812,380.78345187568664,208.2066305175781,381.09945187568667Q208.39553051757812,381.41545187568664,208.56873051757813,381.74045187568663Q208.74183051757814,382.0654518756867,208.89893051757812,382.39845187568665Q209.0560305175781,382.7314518756866,209.19603051757812,383.0724518756866Q209.3370305175781,383.41245187568666,209.4600305175781,383.75945187568664Q209.58403051757813,384.1064518756866,209.69103051757813,384.45845187568665Q209.79703051757812,384.81145187568666,209.88603051757812,385.1684518756866Q209.97503051757812,385.52645187568663,210.04603051757812,385.8874518756867Q210.11803051757812,386.24845187568667,210.17103051757812,386.61245187568665Q210.22503051757812,386.97745187568665,210.26103051757812,387.34345187568664Q210.29603051757812,387.71045187568666,210.31403051757812,388.0774518756866Q210.33103051757814,388.4454518756867,210.33103051757814,388.81445187568664Q210.33103051757814,389.18245187568664,210.31203051757814,389.55045187568663Q210.2940305175781,389.91745187568665,210.25703051757813,390.2844518756866Q210.22003051757812,390.65045187568666,210.16603051757812,391.01445187568663Q210.11103051757811,391.37845187568666,210.0390305175781,391.74045187568663Q209.9670305175781,392.1014518756866,209.87703051757813,392.45845187568665Q209.78703051757813,392.8154518756867,209.68003051757813,393.16745187568665Q209.57203051757813,393.5194518756866,209.4480305175781,393.8664518756866Q209.3230305175781,394.2124518756866,209.18203051757814,394.55245187568664Q209.04103051757812,394.8924518756867,208.88293051757813,395.22545187568664Q208.72503051757812,395.5584518756866,208.5510305175781,395.8824518756867Q208.37703051757813,396.2074518756866,208.18733051757812,396.52245187568667Q207.99763051757813,396.83845187568664,207.79273051757812,397.1444518756866Q207.5877305175781,397.45045187568667,207.36803051757812,397.7454518756866Q207.14833051757813,398.0414518756867,206.91433051757812,398.32545187568667Q206.68043051757815,398.61045187568664,206.43273051757814,398.8824518756867Q206.18513051757813,399.15545187568665,205.92443051757812,399.41545187568664Q205.66373051757813,399.67545187568663,205.39053051757813,399.92245187568665Q205.11743051757813,400.1694518756866,204.8325305175781,400.40245187568667Q204.54753051757814,400.6354518756866,204.25153051757812,400.85445187568666Q203.95543051757812,401.07345187568666,203.64903051757813,401.27745187568667ZM210.33103051757814,388.79545187568664Q210.33103051757814,389.16345187568663,210.3130305175781,389.5314518756867Q210.29503051757814,389.8994518756866,210.25903051757814,390.2654518756866Q210.22303051757814,390.6324518756867,210.1690305175781,390.99645187568666Q210.11503051757813,391.36045187568664,210.04303051757813,391.7214518756866Q209.97103051757813,392.0824518756866,209.88103051757813,392.4404518756867Q209.79203051757813,392.79745187568665,209.68503051757813,393.1494518756866Q209.57803051757813,393.50145187568666,209.45403051757813,393.84845187568664Q209.3300305175781,394.1954518756867,209.18903051757812,394.53545187568665Q209.04803051757813,394.8754518756866,208.8909305175781,395.20845187568665Q208.73343051757814,395.5414518756867,208.55983051757812,395.8664518756866Q208.38633051757813,396.19145187568665,208.19693051757812,396.50645187568665Q208.00763051757812,396.8224518756866,207.80313051757813,397.12845187568666Q207.59853051757813,397.4354518756867,207.37913051757812,397.73045187568664Q207.15983051757814,398.02645187568663,206.92623051757812,398.31145187568666Q206.69263051757812,398.59545187568665,206.44533051757813,398.8684518756867Q206.1980305175781,399.14145187568664,205.93763051757813,399.40145187568663Q205.67723051757812,399.66245187568666,205.40443051757813,399.9094518756866Q205.13163051757812,400.1564518756867,204.84693051757813,400.3904518756866Q204.56233051757812,400.62445187568665,204.26653051757813,400.84345187568664Q203.97073051757812,401.06245187568663,203.66463051757813,401.2674518756867Q203.35843051757814,401.4714518756866,203.04253051757814,401.6614518756867Q202.72673051757812,401.85045187568664,202.4020305175781,402.0244518756866Q202.07723051757813,402.1974518756866,201.74433051757813,402.35545187568664Q201.41153051757811,402.5124518756867,201.07133051757813,402.65345187568664Q200.73113051757812,402.7944518756866,200.38443051757812,402.9184518756866Q200.03773051757813,403.04245187568665,199.6853305175781,403.1494518756866Q199.33293051757812,403.25645187568665,198.97573051757814,403.34545187568665Q198.6185305175781,403.4354518756867,198.25743051757814,403.5074518756867Q197.89623051757812,403.57845187568665,197.5320305175781,403.6324518756867Q197.16773051757812,403.68745187568663,196.80133051757812,403.72345187568664Q196.43483051757812,403.75945187568664,196.06703051757813,403.77745187568667Q195.69933051757812,403.79545187568664,195.33103051757814,403.79545187568664Q194.96283051757814,403.79545187568664,194.59503051757812,403.77745187568667Q194.2272305175781,403.75945187568664,193.8608305175781,403.72345187568664Q193.49433051757813,403.68745187568663,193.13013051757812,403.6324518756867Q192.76583051757814,403.57845187568665,192.40473051757812,403.5074518756867Q192.04353051757812,403.4354518756867,191.68633051757814,403.34545187568665Q191.3291305175781,403.25645187568665,190.97683051757812,403.1494518756866Q190.6244305175781,403.04245187568665,190.2777305175781,402.9184518756866Q189.9310305175781,402.7944518756866,189.59083051757813,402.65345187568664Q189.25063051757814,402.5124518756867,188.91773051757812,402.35545187568664Q188.58483051757813,402.1974518756866,188.26013051757812,402.0244518756866Q187.9353305175781,401.85045187568664,187.61953051757814,401.6614518756867Q187.30363051757814,401.4714518756866,186.99753051757813,401.2674518756867Q186.69133051757814,401.06245187568663,186.39553051757812,400.84345187568664Q186.09983051757814,400.62445187568665,185.81513051757813,400.3904518756866Q185.53053051757814,400.1564518756867,185.25763051757812,399.9094518756866Q184.98483051757813,399.66245187568666,184.72443051757813,399.40145187568663Q184.46413051757813,399.14145187568664,184.21683051757813,398.8684518756867Q183.9695305175781,398.59545187568665,183.73593051757814,398.31145187568666Q183.50233051757812,398.02645187568663,183.2829305175781,397.73045187568664Q183.06363051757813,397.4354518756867,182.8590305175781,397.12845187568666Q182.65443051757813,396.8224518756866,182.46513051757813,396.50645187568665Q182.27583051757813,396.19145187568665,182.1022305175781,395.8664518756866Q181.92863051757814,395.5414518756867,181.77123051757812,395.20845187568665Q181.61373051757812,394.8754518756866,181.47283051757813,394.53545187568665Q181.33193051757814,394.1954518756867,181.20793051757812,393.84845187568664Q181.08383051757812,393.50145187568666,180.97693051757813,393.1494518756866Q180.87003051757813,392.79745187568665,180.78053051757814,392.4404518756867Q180.69113051757813,392.0824518756866,180.61923051757813,391.7214518756866Q180.5474305175781,391.36045187568664,180.49343051757813,390.99645187568666Q180.43933051757813,390.6324518756867,180.40333051757813,390.2654518756866Q180.36723051757812,389.8994518756866,180.34913051757815,389.5314518756867Q180.33103051757814,389.16345187568663,180.33103051757814,388.79545187568664Q180.33103051757814,388.42745187568664,180.34913051757815,388.05945187568665Q180.36723051757812,387.69145187568665,180.40333051757813,387.32545187568667Q180.43933051757813,386.95845187568665,180.49343051757813,386.5944518756867Q180.5474305175781,386.23045187568664,180.61923051757813,385.8684518756867Q180.69113051757813,385.5074518756867,180.78063051757812,385.15045187568666Q180.87003051757813,384.7934518756866,180.97693051757813,384.44145187568665Q181.08383051757812,384.08845187568664,181.20793051757812,383.74145187568666Q181.33193051757814,383.39545187568666,181.47283051757813,383.05545187568663Q181.61373051757812,382.7144518756867,181.77123051757812,382.3824518756866Q181.92863051757814,382.04945187568666,182.1022305175781,381.72445187568667Q182.27583051757813,381.3994518756866,182.46513051757813,381.08345187568665Q182.65443051757813,380.7674518756867,182.8590305175781,380.46145187568663Q183.06363051757813,380.15545187568665,183.2829305175781,379.85945187568666Q183.50233051757812,379.56445187568664,183.73593051757814,379.2794518756866Q183.9695305175781,378.99445187568665,184.21683051757813,378.7214518756866Q184.46413051757813,378.44945187568663,184.72443051757813,378.1884518756866Q184.98483051757813,377.9284518756866,185.25763051757812,377.68145187568666Q185.53053051757814,377.4334518756866,185.81513051757813,377.20045187568667Q186.09983051757814,376.96645187568663,186.39553051757812,376.74745187568664Q186.69133051757814,376.52745187568667,186.99753051757813,376.32345187568666Q187.30363051757814,376.1184518756867,187.61953051757814,375.92945187568665Q187.9353305175781,375.74045187568663,188.26013051757812,375.56645187568665Q188.58483051757813,375.3924518756867,188.91773051757812,375.23545187568664Q189.25063051757814,375.07845187568665,189.59083051757813,374.93745187568663Q189.9310305175781,374.79645187568667,190.2777305175781,374.67245187568665Q190.6244305175781,374.5484518756866,190.97683051757812,374.44145187568665Q191.3291305175781,374.3344518756866,191.68633051757814,374.24445187568665Q192.04353051757812,374.15545187568665,192.40473051757812,374.08345187568665Q192.76583051757814,374.01145187568665,193.13013051757812,373.9574518756866Q193.49433051757813,373.90345187568664,193.8608305175781,373.86745187568664Q194.2272305175781,373.83145187568664,194.59503051757812,373.8134518756866Q194.96283051757814,373.79545187568664,195.33103051757814,373.79545187568664Q195.69933051757812,373.79545187568664,196.06703051757813,373.8134518756866Q196.43483051757812,373.83145187568664,196.80133051757812,373.86745187568664Q197.16773051757812,373.90345187568664,197.5320305175781,373.9574518756866Q197.89623051757812,374.01145187568665,198.25743051757814,374.08345187568665Q198.6185305175781,374.15545187568665,198.97573051757814,374.24445187568665Q199.33293051757812,374.3344518756866,199.6853305175781,374.44145187568665Q200.03773051757813,374.5484518756866,200.38443051757812,374.67245187568665Q200.73113051757812,374.79645187568667,201.07133051757813,374.93745187568663Q201.41153051757811,375.07845187568665,201.74433051757813,375.23545187568664Q202.07723051757813,375.3924518756867,202.4020305175781,375.56645187568665Q202.72673051757812,375.74045187568663,203.04253051757814,375.92945187568665Q203.35843051757814,376.1184518756867,203.66463051757813,376.32345187568666Q203.97073051757812,376.52745187568667,204.26653051757813,376.74745187568664Q204.56233051757812,376.96645187568663,204.84693051757813,377.20045187568667Q205.13163051757812,377.4334518756866,205.40443051757813,377.68145187568666Q205.67723051757812,377.9284518756866,205.93763051757813,378.1884518756866Q206.1980305175781,378.44945187568663,206.44533051757813,378.7214518756866Q206.69263051757812,378.99445187568665,206.92623051757812,379.2794518756866Q207.15983051757814,379.56445187568664,207.37913051757812,379.85945187568666Q207.59853051757813,380.15545187568665,207.80313051757813,380.46145187568663Q208.00763051757812,380.7674518756867,208.19693051757812,381.08345187568665Q208.38633051757813,381.3994518756866,208.55983051757812,381.72445187568667Q208.73343051757814,382.04945187568666,208.8909305175781,382.38145187568665Q209.04803051757813,382.7144518756867,209.18903051757812,383.05545187568663Q209.3300305175781,383.39545187568666,209.45403051757813,383.74145187568666Q209.57803051757813,384.08845187568664,209.68503051757813,384.44145187568665Q209.79203051757813,384.7934518756866,209.88103051757813,385.15045187568666Q209.97103051757813,385.5074518756867,210.04303051757813,385.8684518756867Q210.11503051757813,386.23045187568664,210.1690305175781,386.5944518756867Q210.22303051757814,386.95845187568665,210.25903051757814,387.32545187568667Q210.29503051757814,387.69145187568665,210.3130305175781,388.05945187568665Q210.33103051757814,388.42745187568664,210.33103051757814,388.79545187568664ZM779.1500305175781,256.49945187568665Q779.1500305175781,256.86768087568663,779.1320305175781,257.23546687568665Q779.1140305175782,257.6032518756866,779.0780305175781,257.96971187568664Q779.0420305175782,258.3361618756866,778.9880305175782,258.70041187568665Q778.9340305175781,259.06465187568665,778.8620305175781,259.42580187568666Q778.7900305175781,259.78696187568664,778.7010305175781,260.14415187568665Q778.6110305175781,260.5013518756866,778.5040305175781,260.85372187568663Q778.3970305175782,261.20609187568664,778.2730305175781,261.55280187568667Q778.1490305175781,261.89950187568667,778.0080305175782,262.23970187568665Q777.8670305175781,262.57990187568663,777.7100305175782,262.9127818756866Q777.5530305175781,263.24565187568663,777.3790305175781,263.5704018756866Q777.2050305175782,263.8951518756866,777.0160305175781,264.21099187568666Q776.8270305175781,264.52683187568664,776.6220305175781,264.83300187568665Q776.4180305175781,265.13917187568666,776.1980305175781,265.43494187568666Q775.9790305175782,265.73070187568663,775.7450305175781,266.01535187568663Q775.5120305175781,266.29999187568666,775.2640305175781,266.57285187568664Q775.0170305175782,266.84565187568666,774.7570305175781,267.10605187568666Q774.4960305175781,267.36645187568666,774.2240305175782,267.61375187568666Q773.9510305175781,267.86105187568666,773.6660305175782,268.0946518756866Q773.3810305175781,268.32825187568665,773.0860305175781,268.5475518756866Q772.7900305175781,268.76695187568663,772.4840305175782,268.9714518756866Q772.1770305175781,269.17605187568665,771.8620305175781,269.36535187568666Q771.5460305175782,269.55465187568666,771.2210305175781,269.7282518756866Q770.8960305175781,269.90185187568665,770.5630305175781,270.05925187568664Q770.2300305175781,270.21675187568667,769.8900305175781,270.35765187568666Q769.5500305175781,270.49855187568664,769.2030305175781,270.62265187568664Q768.8570305175781,270.74665187568667,768.5040305175781,270.85355187568666Q768.1520305175782,270.96045187568666,767.7950305175781,271.04995187568665Q767.4380305175781,271.13935187568666,767.0760305175781,271.2112518756866Q766.7150305175782,271.2830518756866,766.3510305175781,271.33705187568665Q765.9870305175781,271.39115187568666,765.6200305175781,271.42725187568664Q765.2540305175781,271.46335187568667,764.8860305175781,271.48135187568664Q764.5180305175782,271.49945187568665,764.1500305175781,271.49945187568665Q763.7820305175782,271.49945187568665,763.4140305175781,271.48135187568664Q763.0460305175782,271.46335187568667,762.6800305175781,271.42725187568664Q762.3130305175781,271.39115187568666,761.9490305175781,271.33705187568665Q761.5850305175782,271.2830518756866,761.2240305175782,271.2112518756866Q760.8630305175782,271.13935187568666,760.5050305175781,271.04995187568665Q760.1480305175781,270.96045187568666,759.7960305175782,270.85355187568666Q759.4430305175781,270.74665187568667,759.0970305175781,270.62265187568664Q758.7500305175781,270.49855187568664,758.4100305175781,270.35765187568666Q758.0700305175782,270.21675187568667,757.7370305175781,270.05925187568664Q757.4040305175781,269.90185187568665,757.0790305175781,269.7282518756866Q756.7540305175781,269.55465187568666,756.4390305175781,269.36535187568666Q756.1230305175782,269.17605187568665,755.8170305175781,268.9714518756866Q755.5100305175781,268.76695187568663,755.2150305175782,268.5475518756866Q754.9190305175781,268.32825187568665,754.6340305175781,268.0946518756866Q754.3500305175781,267.86105187568666,754.0770305175781,267.61375187568666Q753.8040305175781,267.36645187568666,753.5440305175781,267.10605187568666Q753.2830305175781,266.84565187568666,753.0360305175781,266.57285187568664Q752.7890305175781,266.29999187568666,752.5550305175781,266.01535187568663Q752.3210305175782,265.73070187568663,752.1020305175781,265.43494187568666Q751.8830305175782,265.13917187568666,751.6780305175781,264.83300187568665Q751.4730305175781,264.52683187568664,751.2840305175781,264.21099187568666Q751.0950305175782,263.8951518756866,750.9210305175782,263.5704018756866Q750.7480305175782,263.24565187568663,750.5900305175782,262.9127818756866Q750.4330305175781,262.57990187568663,750.2920305175782,262.23970187568665Q750.1510305175781,261.89950187568667,750.0270305175782,261.55280187568667Q749.9030305175781,261.20609187568664,749.7960305175782,260.85372187568663Q749.6890305175781,260.5013518756866,749.6000305175781,260.14415187568665Q749.5100305175781,259.78696187568664,749.4380305175781,259.42580187568666Q749.3670305175781,259.06465187568665,749.3120305175781,258.70041187568665Q749.2580305175782,258.3361618756866,749.2220305175781,257.96971187568664Q749.1860305175782,257.6032518756866,749.1680305175781,257.23546687568665Q749.1500305175781,256.86768087568663,749.1500305175781,256.49945187568665Q749.1500305175781,256.13122287568666,749.1680305175781,255.76343687568664Q749.1860305175782,255.39565187568664,749.2220305175781,255.02919187568665Q749.2580305175782,254.66274187568663,749.3120305175781,254.29849187568664Q749.3670305175781,253.93425187568664,749.4380305175781,253.57310187568663Q749.5100305175781,253.21194187568665,749.6000305175781,252.85475187568665Q749.6890305175781,252.49755187568664,749.7960305175782,252.14518187568666Q749.9030305175781,251.79281187568665,750.0270305175782,251.44610187568665Q750.1510305175781,251.09940187568665,750.2920305175782,250.75920187568664Q750.4330305175781,250.41900187568663,750.5900305175782,250.08612187568664Q750.7480305175782,249.75325187568666,750.9210305175782,249.42850187568664Q751.0950305175782,249.10375187568664,751.2840305175781,248.78791187568663Q751.4730305175781,248.47207187568665,751.6780305175781,248.16590187568664Q751.8830305175782,247.85973187568663,752.1020305175781,247.56396187568666Q752.3210305175782,247.26820187568666,752.5550305175781,246.98355187568666Q752.7890305175781,246.69891187568663,753.0360305175781,246.42605187568665Q753.2830305175781,246.15325187568664,753.5440305175781,245.89285187568663Q753.8040305175781,245.63245187568666,754.0770305175781,245.38515187568663Q754.3500305175781,245.13785187568664,754.6340305175781,244.90425187568664Q754.9190305175781,244.67065187568664,755.2150305175782,244.45135187568664Q755.5100305175781,244.23195187568663,755.8170305175781,244.02745187568664Q756.1230305175782,243.82285187568664,756.4390305175781,243.63355187568663Q756.7540305175781,243.44425187568663,757.0790305175781,243.27065187568664Q757.4040305175781,243.09705187568665,757.7370305175781,242.93965187568665Q758.0700305175782,242.78215187568665,758.4100305175781,242.64125187568663Q758.7500305175781,242.50035187568665,759.0970305175781,242.37625187568665Q759.4430305175781,242.25225187568665,759.7960305175782,242.14535187568666Q760.1480305175781,242.03845187568663,760.5050305175781,241.94895187568665Q760.8630305175782,241.85955187568663,761.2240305175782,241.78765187568663Q761.5850305175782,241.71585187568664,761.9490305175781,241.66185187568664Q762.3130305175781,241.60775187568663,762.6800305175781,241.57165187568665Q763.0460305175782,241.53555187568665,763.4140305175781,241.51755187568665Q763.7820305175782,241.49945187568665,764.1500305175781,241.49945187568665Q764.5180305175782,241.49945187568665,764.8860305175781,241.51755187568665Q765.2540305175781,241.53555187568665,765.6200305175781,241.57165187568665Q765.9870305175781,241.60775187568663,766.3510305175781,241.66185187568664Q766.7150305175782,241.71585187568664,767.0770305175781,241.78765187568663Q767.4380305175781,241.85955187568663,767.7950305175781,241.94895187568665Q768.1520305175782,242.03845187568663,768.5050305175781,242.14535187568666Q768.8570305175781,242.25225187568665,769.2030305175781,242.37625187568665Q769.5500305175781,242.50035187568665,769.8900305175781,242.64125187568663Q770.2310305175781,242.78215187568665,770.5630305175781,242.93965187568665Q770.8960305175781,243.09705187568665,771.2210305175781,243.27065187568664Q771.5460305175782,243.44425187568663,771.8620305175781,243.63355187568663Q772.1780305175781,243.82285187568664,772.4840305175782,244.02745187568664Q772.7900305175781,244.23195187568663,773.0860305175781,244.45135187568664Q773.3810305175781,244.67065187568664,773.6660305175782,244.90425187568664Q773.9510305175781,245.13785187568664,774.2240305175782,245.38515187568663Q774.4960305175781,245.63245187568666,774.7570305175781,245.89285187568663Q775.0170305175782,246.15325187568664,775.2640305175781,246.42605187568665Q775.5120305175781,246.69891187568663,775.7450305175781,246.98355187568666Q775.9790305175782,247.26820187568666,776.1980305175781,247.56396187568666Q776.4180305175781,247.85973187568663,776.6220305175781,248.16590187568664Q776.8270305175781,248.47207187568665,777.0160305175781,248.78791187568663Q777.2050305175782,249.10375187568664,777.3790305175781,249.42850187568664Q777.5530305175781,249.75325187568666,777.7100305175782,250.08612187568664Q777.8670305175781,250.41900187568663,778.0080305175782,250.75920187568664Q778.1490305175781,251.09940187568665,778.2730305175781,251.44610187568665Q778.3970305175782,251.79281187568665,778.5040305175781,252.14518187568666Q778.6110305175781,252.49755187568664,778.7010305175781,252.85475187568665Q778.7900305175781,253.21194187568665,778.8620305175781,253.57310187568663Q778.9340305175781,253.93425187568664,778.9880305175782,254.29849187568664Q779.0420305175782,254.66274187568663,779.0780305175781,255.02919187568665Q779.1140305175782,255.39565187568664,779.1320305175781,255.76343687568664Q779.1500305175781,256.13122287568666,779.1500305175781,256.49945187568665Z" fill="#FFFFFF" fill-opacity="1"/></g></g><g style="mix-blend-mode:passthrough"><ellipse cx="732.0853424072266" cy="161.2438201904297" rx="29.420150756835938" ry="29.424758911132812" fill="#FFFFFF" fill-opacity="1"/></g></g></g></svg>