<svg xmlns="http://www.w3.org/2000/svg" xmlns:xlink="http://www.w3.org/1999/xlink" fill="none" version="1.1" width="837.353759765625" height="586.032958984375" viewBox="0 0 837.353759765625 586.032958984375"><defs><linearGradient x1="0.5" y1="0" x2="0.5" y2="1" id="master_svg0_101_1900"><stop offset="0%" stop-color="#FF0000" stop-opacity="1"/><stop offset="100%" stop-color="#FFB080" stop-opacity="1"/></linearGradient><linearGradient x1="0.5" y1="0" x2="0.5" y2="1" id="master_svg1_101_1900"><stop offset="0%" stop-color="#FF0000" stop-opacity="1"/><stop offset="100%" stop-color="#FFB080" stop-opacity="1"/></linearGradient><linearGradient x1="0.5" y1="0" x2="0.5" y2="1" id="master_svg2_101_1900"><stop offset="0%" stop-color="#FF0000" stop-opacity="1"/><stop offset="100%" stop-color="#FFB080" stop-opacity="1"/></linearGradient><linearGradient x1="0.5" y1="0" x2="0.5" y2="1" id="master_svg3_101_1900"><stop offset="0%" stop-color="#FF0000" stop-opacity="1"/><stop offset="100%" stop-color="#FFB080" stop-opacity="1"/></linearGradient><linearGradient x1="0.5" y1="0" x2="0.5" y2="1" id="master_svg4_101_1900"><stop offset="0%" stop-color="#FF0000" stop-opacity="1"/><stop offset="100%" stop-color="#FFB080" stop-opacity="1"/></linearGradient></defs><g style="mix-blend-mode:passthrough" transform="matrix(0.9986295104026794,-0.052335962653160095,0.052335962653160095,0.9986295104026794,-2.7350118918329827,0.8871172985673184)"><g transform="matrix(0.9848077297210693,-0.17367450892925262,0.1736217588186264,0.9848077297210693,-16.283465776269963,63.8833580119408)"><path d="M385.71514921875,125.0430675336914C381.78924921875,125.2739575336914,377.81934921875,125.3460145336914,373.73224921875,125.4038045336914C364.21038921875,125.51920353369141,356.73931421875,133.1362145336914,356.90050916875,142.3978345336914C357.09104521875,151.7026345336914,364.91365921875,159.1321345336914,374.33284921874997,159.0168345336914C378.91794921875,158.9734345336914,383.41524921875,158.8148345336914,387.89794921875,158.5839345336914C397.33174921875,158.0934345336914,404.50974921875,150.1590345336914,403.93854921875,140.86863453369142C403.30844921875,131.6357445336914,395.17824921875,124.52367853369141,385.71514921875,125.0430675336914C385.71514921875,125.0430675336914,385.71514921875,125.0430675336914,385.71514921875,125.0430675336914Z" fill="url(#master_svg0_101_1900)" fill-opacity="1"/></g><g><path d="M233.703382421875,272.9863638305664C243.142482421875,225.24306383056643,277.834982421875,185.79586383056642,325.350482421875,170.7746638305664C334.30948242187503,167.93626383056642,339.276482421875,158.37286383056642,336.488482421875,149.4791638305664C333.685482421875,140.5563638305664,324.115482421875,135.6364338305664,315.15548242187504,138.4748708305664C255.631282421875,157.2956638305664,212.080882421875,206.7570638305664,200.288744421875,266.6113638305664C198.488112421875,275.8253638305664,204.485472421875,284.6753638305664,213.706782421875,286.4513638305664C222.957782421875,288.2123638305664,231.902682421875,282.1863638305664,233.703382421875,272.9863638305664Z" fill="url(#master_svg1_101_1900)" fill-opacity="1"/></g><g style="mix-blend-mode:passthrough"><g><path d="M162.39453125,313.7838449420929Q162.39453125,338.5638449420929,167.31453125000002,362.6108449420929Q172.10713125,386.0358449420929,181.41823125,408.0538449420929Q190.56243125,429.6758449420929,203.74213125,449.1878449420929Q216.80063124999998,468.5198449420929,233.32033124999998,485.0418449420929Q249.84053125,501.5648449420929,269.16853125,514.624844942093Q288.67753125,527.8068449420929,310.29653125,536.951844942093Q332.30953124999996,546.2638449420929,355.73053125,551.057844942093Q379.77353125,555.9778449420928,404.54853125,555.9778449420928Q429.32353125,555.9778449420928,453.36653125,551.057844942093Q476.78753125,546.2638449420929,498.80053125,536.951844942093Q520.41953125,527.8068449420929,539.92753125,514.624844942093Q559.2565312500001,501.5648449420929,575.7765312500001,485.0418449420929Q592.29653125,468.5198449420929,605.35453125,449.1878449420929Q618.53453125,429.6758449420929,627.67853125,408.0538449420929Q636.98953125,386.0358449420929,641.7825312499999,362.6108449420929Q646.70253125,338.5638449420929,646.70253125,313.7838449420929Q646.70253125,289.00484494209286,641.7825312499999,264.95684494209286Q636.98953125,241.5318449420929,627.67853125,219.5148449420929Q618.53453125,197.8918449420929,605.35453125,178.37984494209292Q592.29653125,159.0478449420929,575.7765312500001,142.5257449420929Q559.2565312500001,126.0034449420929,539.92753125,112.94314494209289Q520.41953125,99.76164494209289,498.80053125,90.6160449420929Q476.78653125,81.30364494209289,453.36653125,76.5104449420929Q429.32353125,71.5898449420929,404.54853125,71.5898449420929Q379.77353125,71.5898449420929,355.73053125,76.5104449420929Q332.30953124999996,81.30374494209289,310.29653125,90.6160449420929Q288.67753125,99.7615449420929,269.16853125,112.94314494209289Q249.84053125,126.0034449420929,233.32033124999998,142.5257449420929Q216.80053125,159.0478449420929,203.74213125,178.37984494209292Q190.56253125,197.8918449420929,181.41833125,219.5148449420929Q172.10723125,241.5318449420929,167.31453125000002,264.95684494209286Q162.39453125,289.0038449420929,162.39453125,313.7838449420929L162.39453125,313.7838449420929ZM132.39453125,313.7838449420929Q132.39453125,285.9668449420929,137.92341125,258.94384494209294Q143.31415125,232.5958449420929,153.78747125,207.8298449420929Q164.06863125,183.5178449420929,178.88223125,161.5878449420929Q193.55113125,139.8714449420929,212.10543124999998,121.3142449420929Q230.65983125,102.7570449420929,252.37253125,88.0856449420929Q274.30053125,73.26954494209289,298.60853125,62.9865849420929Q323.37053125,52.51137494209289,349.71553125,47.11969494209289Q376.73453125000003,41.589844942092896,404.54853125,41.589844942092896Q432.36153125,41.589844942092896,459.38153125,47.119684942092896Q485.72653125,52.5113249420929,510.48853125,62.9865849420929Q534.79653125,73.26954494209289,556.72353125,88.0856449420929Q578.4365312499999,102.7569449420929,596.99153125,121.3142449420929Q615.5455312500001,139.8714449420929,630.2145312499999,161.5878449420929Q645.02853125,183.5188449420929,655.30953125,207.8298449420929Q665.78253125,232.5958449420929,671.17353125,258.94384494209294Q676.70253125,285.9668449420929,676.70253125,313.7838449420929Q676.70253125,341.6008449420929,671.17353125,368.6248449420929Q665.78253125,394.9728449420929,655.30953125,419.7388449420929Q645.02853125,444.0498449420929,630.2145312499999,465.9798449420929Q615.5455312500001,487.6968449420929,596.99153125,506.2538449420929Q578.4365312499999,524.8108449420929,556.72353125,539.4828449420929Q534.79653125,554.298844942093,510.48853125,564.5818449420929Q485.72653125,575.0568449420929,459.38153125,580.4488449420929Q432.36253125,585.9778449420929,404.54853125,585.9778449420929Q376.73453125000003,585.9778449420929,349.71553125,580.4488449420929Q323.37053125,575.0568449420929,298.60853125,564.5818449420929Q274.30053125,554.298844942093,252.37253125,539.4828449420929Q230.65993125,524.8108449420929,212.10543124999998,506.2538449420929Q193.55133125,487.6968449420929,178.88223125,465.9798449420929Q164.06863125,444.0498449420929,153.78745125,419.7388449420929Q143.31408125,394.9728449420929,137.92337125,368.6248449420929Q132.39453125,341.6008449420929,132.39453125,313.7838449420929L132.39453125,313.7838449420929Z" fill="url(#master_svg2_101_1900)" fill-opacity="1"/></g><g><path d="M110.2202890625,322.1248945026398Q88.1356890625,336.8418945026398,71.5935890625,351.69089450263976Q55.3045890625,366.3118945026398,45.2377890625,380.29189450263976Q35.5821890625,393.7008945026398,32.2539890625,405.6628945026398Q29.198289062500002,416.6448945026398,31.7023890625,425.9908945026398Q33.852689062500005,434.01789450263976,42.4248890625,441.15489450263976Q52.2107890625,449.30389450263976,69.3564890625,455.6328945026398Q86.9993890625,462.1448945026398,111.1337890625,466.21489450263977Q135.2132890625,470.2768945026398,164.3942890625,471.6728945026398Q193.4942890625,473.06589450263976,226.0822890625,471.7328945026398Q258.8492890625,470.3918945026398,293.3762890625,466.36689450263975Q328.4552890625,462.27789450263975,363.5562890625,455.6248945026398Q399.5632890625,448.79989450263975,433.9432890625,439.5868945026398Q504.2092890625,420.75589450263976,570.1762890625,394.73889450263977Q602.7652890625,381.88589450263976,631.9452890625,368.13089450263976Q661.4832890625,354.2068945026398,686.1862890625,339.9908945026398Q711.3092890625,325.5338945026398,730.3492890625,311.39589450263975Q749.5932890625,297.10689450263976,761.7722890625,283.78489450263976Q773.5812890625,270.86829450263974,778.0162890625,259.71749450263974Q781.8582890625,250.05659450263977,779.7672890625,242.25109450263977Q777.3822890625,233.34769450263977,769.8892890625,225.68539450263978Q761.7532890625,217.3653945026398,747.9692890625,210.73309450263977Q733.5692890625,203.80479450263977,713.8892890625,199.15339450263977Q693.8862890625,194.42579450263977,669.4172890625,192.29009450263976Q669.0502890625,192.25809450263978,668.6852890625,192.20809450263977Q668.3212890625,192.15809450263976,667.9592890625,192.09029450263978Q667.5972890625,192.02249450263977,667.2382890625,191.93699450263978Q666.8802890625,191.85149450263978,666.5272890625,191.74849450263977Q666.1732890625,191.64549450263976,665.8252890625,191.52539450263976Q665.4772890625,191.40519450263977,665.1352890625,191.26799450263977Q664.7942890625,191.13089450263976,664.4592890625,190.97719450263978Q664.1242890625,190.82339450263976,663.7982890625,190.65349450263977Q663.4712890625,190.48349450263976,663.1532890625,190.29769450263976Q662.8352890625,190.11199450263976,662.5272890625,189.91079450263976Q662.2182890625,189.70959450263976,661.9202890625,189.49359450263978Q661.6222890625,189.27749450263977,661.3352890625,189.04709450263977Q661.0482890625,188.81669450263976,660.7722890625,188.57239450263978Q660.4962890625,188.32819450263978,660.2332890625,188.07069450263978Q659.9702890625,187.81329450263976,659.7202890625,187.54319450263978Q659.4692890625,187.27310450263977,659.2322890625,186.99107450263978Q658.9962890625,186.70903450263978,658.7732890625,186.41573450263976Q658.5502890625,186.12242450263977,658.3432890625,185.81854450263978Q658.1342890625,185.51466450263976,657.9422890625,185.20094450263977Q657.7492890625,184.88723450263976,657.5722890625,184.56443450263976Q657.3952890625,184.24162450263978,657.2332890625,183.91052450263976Q657.0722890625,183.57941450263976,656.9282890625,183.24080450263978Q656.7832890625,182.90219450263976,656.6552890625,182.55689450263978Q656.5272890625,182.21158450263977,656.4162890625,181.86042450263977Q656.3052890625,181.50925450263978,656.2122890625,181.15308450263976Q656.1192890625,180.79690450263976,656.0432890625,180.43657450263976Q655.9672890625,180.07623450263978,655.9092890625,179.71261450263978Q655.8512890625,179.34899450263978,655.8112890625,178.98296450263976Q655.7712890625,178.61693450263977,655.7482890625,178.24936950263978Q655.7262890625,177.88180750263976,655.7222890625,177.51360050263978Q655.7182890625,177.14539450263976,655.7322890625,176.77743050263976Q655.7462890625,176.40946650263976,655.7782890625,176.04263450263977Q655.8102890625,175.67579450263977,655.8602890625,175.31097450263977Q655.9102890625,174.94615450263976,655.9782890625,174.58422450263976Q656.0462890625,174.22229450263978,656.1312890625,173.86412450263978Q656.2172890625,173.50596450263976,656.3202890625,173.15242450263978Q656.4232890625,172.79888450263977,656.5432890625,172.45082450263976Q656.6632890625,172.10276450263976,656.8002890625,171.76101450263977Q656.9372890625,171.41927450263978,657.0912890625,171.08466450263978Q657.2452890625,170.75006450263976,657.4152890625,170.42340450263978Q657.5852890625,170.09674450263978,657.7702890625,169.77882450263976Q657.9562890625,169.46089450263977,658.1572890625,169.15246450263976Q658.3582890625,168.84404450263978,658.5742890625,168.54586450263977Q658.7902890625,168.24767450263977,659.0212890625,167.96045450263978Q659.2512890625,167.67322450263978,659.4962890625,167.39765450263977Q659.7402890625,167.12209450263978,659.9972890625,166.85879450263977Q660.2552890625,166.59559450263976,660.5252890625,166.34529450263977Q660.7952890625,166.09499450263976,661.0772890625,165.85819450263978Q661.3592890625,165.62149450263976,661.6522890625,165.39879450263976Q661.9462890625,165.17619450263976,662.2502890625,164.96819450263976Q662.5532890625,164.76029450263977,662.8672890625,164.56749450263976Q663.1812890625,164.37469450263978,663.5042890625,164.19749450263976Q663.8262890625,164.02029450263979,664.1582890625,163.85919450263978Q664.4892890625,163.69799450263977,664.8272890625,163.55339450263978Q665.1662890625,163.40869450263978,665.5112890625,163.28079450263976Q665.8562890625,163.15289450263978,666.2082890625,163.04209450263977Q666.5592890625,162.93129450263976,666.9152890625,162.83779450263978Q667.2712890625,162.74439450263978,667.6312890625,162.66859450263976Q667.9922890625,162.59269450263977,668.3552890625,162.53459450263978Q668.7192890625,162.47659450263978,669.0852890625,162.43639450263976Q669.4512890625,162.39619450263976,669.8192890625,162.37409450263976Q670.1862890625,162.35189450263977,670.5552890625,162.34779450263977Q670.9232890625,162.34369450263978,671.2912890625,162.35769450263976Q671.6592890625,162.37169450263977,672.0252890625,162.40369450263978Q698.6662890625,164.72889450263978,720.7902890625,169.95780450263976Q743.6402890625,175.35854450263977,760.9762890625,183.69958450263977Q779.5142890625,192.61909450263977,791.3382890625,204.71059450263976Q804.3262890625,217.99219450263976,808.7452890625,234.48779450263976Q813.4102890625,251.90099450263978,805.8922890625,270.8042945026398Q799.4282890625,287.0578945026398,783.9142890625,304.02789450263975Q756.2552890625,334.28089450263974,701.1502890625,365.99289450263973Q675.3832890625,380.82089450263976,644.7372890625,395.26689450263973Q614.6762890625,409.4368945026398,581.1832890625,422.6468945026398Q513.6262890625001,449.2908945026398,441.7082890625,468.56389450263976Q406.2492890625,478.0668945026398,369.1432890625,485.09989450263976Q332.9912890625,491.95289450263977,296.8502890625,496.1658945026398Q261.2022890625,500.32089450263976,227.3082890625,501.70789450263976Q193.3902890625,503.09489450263976,162.9602890625,501.63889450263974Q131.99028906249998,500.1568945026398,106.1444890625,495.7978945026398Q79.2432890625,491.26089450263976,58.9678890625,483.7768945026398Q36.980389062499995,475.65989450263976,23.2284490625,464.20989450263977Q7.338729062500001,450.9788945026398,2.7242890625000005,433.7548945026398Q-1.8997109375,416.4948945026398,3.3519890624999995,397.62089450263977Q8.1132290625,380.5088945026398,20.8926290625,362.76189450263973Q32.8531890625,346.1518945026398,51.5538890625,329.3658945026398Q69.7026890625,313.0748945026398,93.5842890625,297.15989450263976Q93.8907890625,296.95589450263975,94.2067890625,296.7668945026398Q94.5228890625,296.57789450263977,94.8478890625,296.40489450263976Q95.1727890625,296.23189450263976,95.5058890625,296.0748945026398Q95.8389890625,295.9178945026398,96.1793890625,295.7768945026398Q96.5196890625,295.6368945026398,96.8665890625,295.51289450263977Q97.2134890625,295.3898945026398,97.5659890625,295.2828945026398Q97.9184890625,295.17689450263975,98.2757890625,295.08789450263976Q98.6330890625,294.99889450263976,98.9942890625,294.92689450263975Q99.3555890625,294.8558945026398,99.7198890625,294.80189450263975Q100.0841890625,294.74889450263976,100.4506890625,294.71289450263976Q100.8171890625,294.6778945026398,101.1849890625,294.65989450263976Q101.5527890625,294.6418945026398,101.9209890625,294.64289450263976Q102.2891890625,294.64289450263976,102.6569890625,294.66189450263977Q103.0247890625,294.67989450263974,103.3911890625,294.7168945026398Q103.7575890625,294.7528945026398,104.1217890625,294.8078945026398Q104.4859890625,294.86189450263976,104.8469890625,294.93489450263974Q105.2080890625,295.00689450263974,105.5651890625,295.09689450263977Q105.9221890625,295.1868945026398,106.2744890625,295.2938945026398Q106.6266890625,295.40089450263974,106.9732890625,295.52589450263974Q107.3197890625,295.64989450263977,107.6597890625,295.79189450263976Q107.9998890625,295.9328945026398,108.3324890625,296.0908945026398Q108.6651890625,296.24889450263976,108.9897890625,296.4228945026398Q109.3142890625,296.59689450263977,109.6298890625,296.78689450263977Q109.9454890625,296.9758945026398,110.2513890625,297.1808945026398Q110.5572890625,297.38589450263976,110.8527890625,297.6058945026398Q111.1482890625,297.82589450263976,111.4326890625,298.05989450263974Q111.7169890625,298.2928945026398,111.9895890625,298.5408945026398Q112.2620890625,298.7888945026398,112.5220890625,299.04889450263977Q112.7821890625,299.30989450263974,113.0290890625,299.58289450263976Q113.2760890625,299.8558945026398,113.5092890625,300.14089450263975Q113.7425890625,300.4258945026398,113.9615890625,300.72189450263977Q114.1805890625,301.01789450263976,114.3847890625,301.3248945026398Q114.5889890625,301.63089450263976,114.7778890625,301.9468945026398Q114.9667890625,302.26289450263977,115.1399890625,302.58789450263976Q115.3130890625,302.9128945026398,115.4701890625,303.24589450263977Q115.6272890625,303.57889450263974,115.7672890625,303.91989450263975Q115.9082890625,304.2598945026398,116.0312890625,304.60689450263976Q116.1552890625,304.95389450263974,116.2622890625,305.3058945026398Q116.3682890625,305.6588945026398,116.4572890625,306.01589450263975Q116.5462890625,306.37389450263976,116.6172890625,306.7348945026398Q116.6892890625,307.0958945026398,116.7422890625,307.45989450263977Q116.7962890625,307.8248945026398,116.8322890625,308.19089450263976Q116.8672890625,308.5578945026398,116.8852890625,308.92489450263975Q116.9022890625,309.2928945026398,116.9022890625,309.66189450263977Q116.9022890625,310.02989450263976,116.8832890625,310.39789450263976Q116.8652890625,310.7648945026398,116.8282890625,311.13189450263974Q116.7912890625,311.4978945026398,116.7372890625,311.86189450263976Q116.6822890625,312.2258945026398,116.6102890625,312.58789450263976Q116.5382890625,312.94889450263975,116.4482890625,313.3058945026398Q116.3582890625,313.6628945026398,116.2512890625,314.0148945026398Q116.1432890625,314.36689450263975,116.0192890625,314.71389450263973Q115.8942890625,315.05989450263974,115.7532890625,315.39989450263977Q115.6122890625,315.7398945026398,115.4541890625,316.07289450263977Q115.2962890625,316.40589450263974,115.1222890625,316.7298945026398Q114.9482890625,317.05489450263974,114.7585890625,317.3698945026398Q114.5688890625,317.68589450263977,114.3639890625,317.99189450263975Q114.1589890625,318.2978945026398,113.9392890625,318.59289450263975Q113.7195890625,318.8888945026398,113.4855890625,319.1728945026398Q113.2516890625,319.45789450263976,113.0039890625,319.7298945026398Q112.7563890625,320.0028945026398,112.4956890625,320.26289450263977Q112.2349890625,320.52289450263976,111.9617890625,320.7698945026398Q111.6886890625,321.01689450263973,111.4037890625,321.2498945026398Q111.1187890625,321.48289450263974,110.8227890625,321.7018945026398Q110.5266890625,321.9208945026398,110.2202890625,322.1248945026398ZM116.9022890625,309.64289450263976Q116.9022890625,310.01089450263976,116.8842890625,310.3788945026398Q116.8662890625,310.74689450263975,116.8302890625,311.11289450263973Q116.7942890625,311.4798945026398,116.7402890625,311.8438945026398Q116.6862890625,312.20789450263976,116.6142890625,312.56889450263975Q116.5422890625,312.92989450263974,116.4522890625,313.2878945026398Q116.3632890625,313.6448945026398,116.2562890625,313.99689450263975Q116.1492890625,314.3488945026398,116.0252890625,314.69589450263976Q115.9012890625,315.0428945026398,115.7602890625,315.3828945026398Q115.6192890625,315.72289450263975,115.4621890625,316.0558945026398Q115.3046890625,316.3888945026398,115.1310890625,316.71389450263973Q114.9575890625,317.0388945026398,114.7681890625,317.3538945026398Q114.5788890625,317.66989450263975,114.3743890625,317.9758945026398Q114.1697890625,318.2828945026398,113.9503890625,318.57789450263977Q113.7310890625,318.87389450263976,113.4974890625,319.1588945026398Q113.2638890625,319.4428945026398,113.0165890625,319.7158945026398Q112.7692890625,319.98889450263977,112.5088890625,320.24889450263976Q112.2484890625,320.5098945026398,111.9756890625,320.75689450263974Q111.7028890625,321.0038945026398,111.4181890625,321.23789450263973Q111.1335890625,321.47189450263977,110.8377890625,321.69089450263976Q110.5419890625,321.90989450263976,110.2358890625,322.1148945026398Q109.9296890625,322.31889450263975,109.6137890625,322.5088945026398Q109.2979890625,322.69789450263977,108.9732890625,322.87189450263975Q108.6484890625,323.04489450263975,108.3155890625,323.20289450263977Q107.9827890625,323.3598945026398,107.6425890625,323.50089450263977Q107.3023890625,323.64189450263973,106.9556890625,323.76589450263975Q106.6089890625,323.8898945026398,106.2565890625,323.99689450263975Q105.9041890625,324.1038945026398,105.5469890625,324.1928945026398Q105.1897890625,324.2828945026398,104.8286890625,324.3548945026398Q104.4674890625,324.4258945026398,104.1032890625,324.4798945026398Q103.7389890625,324.53489450263976,103.3725890625,324.57089450263976Q103.0060890625,324.60689450263976,102.6382890625,324.6248945026398Q102.2705890625,324.64289450263976,101.9022890625,324.64289450263976Q101.5340890625,324.64289450263976,101.1662890625,324.6248945026398Q100.7984890625,324.60689450263976,100.4320890625,324.57089450263976Q100.0655890625,324.53489450263976,99.7013890625,324.4798945026398Q99.3370890625,324.4258945026398,98.9759890625,324.3548945026398Q98.6147890625,324.2828945026398,98.2575890625,324.1928945026398Q97.9003890625,324.1038945026398,97.5480890625,323.99689450263975Q97.1956890625,323.8898945026398,96.8489890625,323.76589450263975Q96.5022890625,323.64189450263973,96.1620890625,323.50089450263977Q95.8218890625,323.3598945026398,95.4889890625,323.20289450263977Q95.1560890625,323.04489450263975,94.8313890625,322.87189450263975Q94.5065890625,322.69789450263977,94.1907890625,322.5088945026398Q93.8748890625,322.31889450263975,93.5687890625,322.1148945026398Q93.2625890625,321.90989450263976,92.9667890625,321.69089450263976Q92.6710890625,321.47189450263977,92.3863890625,321.23789450263973Q92.1017890625,321.0038945026398,91.8288890625,320.75689450263974Q91.5560890625,320.5098945026398,91.2956890625,320.24889450263976Q91.0353890625,319.98889450263977,90.7880890625,319.7158945026398Q90.5407890625,319.4428945026398,90.3071890625,319.1588945026398Q90.0735890625,318.87389450263976,89.8541890625,318.57789450263977Q89.6348890625,318.2828945026398,89.4302890625,317.9758945026398Q89.2256890625,317.66989450263975,89.0363890625,317.3538945026398Q88.8470890625,317.0388945026398,88.6734890625,316.71389450263973Q88.4998890625,316.3888945026398,88.3424890625,316.0558945026398Q88.1849890625,315.72289450263975,88.0440890625,315.3828945026398Q87.9031890625,315.0428945026398,87.7791890625,314.69589450263976Q87.6550890625,314.3488945026398,87.5481890625,313.99689450263975Q87.4412890625,313.6448945026398,87.3517890625,313.2878945026398Q87.2623890625,312.92989450263974,87.1904890625,312.56889450263975Q87.1186890625,312.20789450263976,87.0646890625,311.8438945026398Q87.0105890625,311.4798945026398,86.9745890625,311.11289450263973Q86.9384890625,310.74689450263975,86.9203890625,310.3788945026398Q86.9022890625,310.01089450263976,86.9022890625,309.64289450263976Q86.9022890625,309.27489450263977,86.9203890625,308.9068945026398Q86.9384890625,308.5388945026398,86.9745890625,308.1728945026398Q87.0105890625,307.8058945026398,87.0646890625,307.4418945026398Q87.1186890625,307.07789450263977,87.1904890625,306.7158945026398Q87.2623890625,306.3548945026398,87.3518890625,305.9978945026398Q87.4412890625,305.64089450263975,87.5481890625,305.2888945026398Q87.6550890625,304.93589450263977,87.7791890625,304.5888945026398Q87.9031890625,304.2428945026398,88.0440890625,303.90289450263975Q88.1849890625,303.5618945026398,88.3424890625,303.22989450263975Q88.4998890625,302.8968945026398,88.6734890625,302.5718945026398Q88.8470890625,302.24689450263975,89.0363890625,301.9308945026398Q89.2256890625,301.6148945026398,89.4302890625,301.30889450263976Q89.6348890625,301.0028945026398,89.8541890625,300.7068945026398Q90.0735890625,300.41189450263977,90.3071890625,300.12689450263974Q90.5407890625,299.8418945026398,90.7880890625,299.56889450263975Q91.0353890625,299.29689450263976,91.2956890625,299.03589450263974Q91.5560890625,298.77589450263974,91.8288890625,298.5288945026398Q92.1017890625,298.28089450263974,92.3863890625,298.0478945026398Q92.6710890625,297.81389450263976,92.9667890625,297.59489450263976Q93.2625890625,297.3748945026398,93.5687890625,297.1708945026398Q93.8748890625,296.9658945026398,94.1907890625,296.7768945026398Q94.5065890625,296.58789450263976,94.8313890625,296.4138945026398Q95.1560890625,296.2398945026398,95.4889890625,296.08289450263976Q95.8218890625,295.9258945026398,96.1620890625,295.78489450263976Q96.5022890625,295.6438945026398,96.8489890625,295.5198945026398Q97.1956890625,295.39589450263975,97.5480890625,295.2888945026398Q97.9003890625,295.18189450263975,98.2575890625,295.0918945026398Q98.6147890625,295.0028945026398,98.9759890625,294.9308945026398Q99.3370890625,294.85889450263977,99.7013890625,294.80489450263974Q100.0655890625,294.75089450263977,100.4320890625,294.71489450263977Q100.7984890625,294.67889450263976,101.1662890625,294.66089450263974Q101.5340890625,294.64289450263976,101.9022890625,294.64289450263976Q102.2705890625,294.64289450263976,102.6382890625,294.66089450263974Q103.0060890625,294.67889450263976,103.3725890625,294.71489450263977Q103.7389890625,294.75089450263977,104.1032890625,294.80489450263974Q104.4674890625,294.85889450263977,104.8286890625,294.9308945026398Q105.1897890625,295.0028945026398,105.5469890625,295.0918945026398Q105.9041890625,295.18189450263975,106.2565890625,295.2888945026398Q106.6089890625,295.39589450263975,106.9556890625,295.5198945026398Q107.3023890625,295.6438945026398,107.6425890625,295.78489450263976Q107.9827890625,295.9258945026398,108.3155890625,296.08289450263976Q108.6484890625,296.2398945026398,108.9732890625,296.4138945026398Q109.2979890625,296.58789450263976,109.6137890625,296.7768945026398Q109.9296890625,296.9658945026398,110.2358890625,297.1708945026398Q110.5419890625,297.3748945026398,110.8377890625,297.59489450263976Q111.1335890625,297.81389450263976,111.4181890625,298.0478945026398Q111.7028890625,298.28089450263974,111.9756890625,298.5288945026398Q112.2484890625,298.77589450263974,112.5088890625,299.03589450263974Q112.7692890625,299.29689450263976,113.0165890625,299.56889450263975Q113.2638890625,299.8418945026398,113.4974890625,300.12689450263974Q113.7310890625,300.41189450263977,113.9503890625,300.7068945026398Q114.1697890625,301.0028945026398,114.3743890625,301.30889450263976Q114.5788890625,301.6148945026398,114.7681890625,301.9308945026398Q114.9575890625,302.24689450263975,115.1310890625,302.5718945026398Q115.3046890625,302.8968945026398,115.4621890625,303.2288945026398Q115.6192890625,303.5618945026398,115.7602890625,303.90289450263975Q115.9012890625,304.2428945026398,116.0252890625,304.5888945026398Q116.1492890625,304.93589450263977,116.2562890625,305.2888945026398Q116.3632890625,305.64089450263975,116.4522890625,305.9978945026398Q116.5422890625,306.3548945026398,116.6142890625,306.7158945026398Q116.6862890625,307.07789450263977,116.7402890625,307.4418945026398Q116.7942890625,307.8058945026398,116.8302890625,308.1728945026398Q116.8662890625,308.5388945026398,116.8842890625,308.9068945026398Q116.9022890625,309.27489450263977,116.9022890625,309.64289450263976ZM685.7212890625,177.34689450263977Q685.7212890625,177.71512350263978,685.7032890625,178.08290950263978Q685.6852890625,178.45069450263978,685.6492890625,178.81715450263977Q685.6132890625,179.18360450263978,685.5592890625,179.54785450263978Q685.5052890625,179.91209450263977,685.4332890625,180.27324450263978Q685.3612890625,180.63440450263977,685.2722890625,180.99159450263977Q685.1822890625,181.34879450263978,685.0752890625,181.70116450263976Q684.9682890625,182.05353450263976,684.8442890625,182.40024450263977Q684.7202890625,182.74694450263976,684.5792890625,183.08714450263977Q684.4382890625,183.42734450263978,684.2812890625,183.76022450263977Q684.1242890625,184.09309450263976,683.9502890625,184.41784450263978Q683.7762890625,184.74259450263978,683.5872890625,185.05843450263978Q683.3982890625,185.37427450263976,683.1932890625,185.68044450263977Q682.9892890625,185.98661450263978,682.7692890625,186.28238450263976Q682.5502890625,186.57814450263976,682.3162890625,186.86279450263976Q682.0832890625,187.14743450263978,681.8352890625,187.42029450263976Q681.5882890625,187.69309450263978,681.3282890625,187.95349450263978Q681.0672890625,188.21389450263976,680.7952890625,188.46119450263978Q680.5222890625,188.70849450263978,680.2372890625,188.94209450263978Q679.9522890625,189.17569450263977,679.6572890625,189.39499450263978Q679.3612890625,189.61439450263978,679.0552890625,189.81889450263978Q678.7482890625,190.02349450263978,678.4332890625,190.21279450263978Q678.1172890625,190.40209450263978,677.7922890625,190.57569450263978Q677.4672890625,190.74929450263977,677.1342890625,190.90669450263977Q676.8012890625,191.06419450263977,676.4612890625,191.20509450263978Q676.1212890625,191.34599450263977,675.7742890625,191.47009450263977Q675.4282890625,191.59409450263976,675.0752890625,191.70099450263976Q674.7232890625,191.80789450263978,674.3662890625,191.89739450263977Q674.0092890625,191.98679450263978,673.6472890625,192.05869450263978Q673.2862890625,192.13049450263978,672.9222890625,192.18449450263978Q672.5582890625,192.23859450263978,672.1912890625,192.27469450263976Q671.8252890625,192.31079450263977,671.4572890625,192.32879450263977Q671.0892890625,192.34689450263977,670.7212890625,192.34689450263977Q670.3532890625,192.34689450263977,669.9852890625,192.32879450263977Q669.6172890625,192.31079450263977,669.2512890625,192.27469450263976Q668.8842890625,192.23859450263978,668.5202890625,192.18449450263978Q668.1562890625,192.13049450263978,667.7952890625,192.05869450263978Q667.4342890625,191.98679450263978,667.0762890625,191.89739450263977Q666.7192890625,191.80789450263978,666.3672890625,191.70099450263976Q666.0142890625,191.59409450263976,665.6682890625,191.47009450263977Q665.3212890625,191.34599450263977,664.9812890625,191.20509450263978Q664.6412890625,191.06419450263977,664.3082890625,190.90669450263977Q663.9752890625,190.74929450263977,663.6502890625,190.57569450263978Q663.3252890625,190.40209450263978,663.0102890625,190.21279450263978Q662.6942890625,190.02349450263978,662.3882890625,189.81889450263978Q662.0812890625,189.61439450263978,661.7862890625,189.39499450263978Q661.4902890625,189.17569450263977,661.2052890625,188.94209450263978Q660.9212890625,188.70849450263978,660.6482890625,188.46119450263978Q660.3752890625,188.21389450263976,660.1152890625,187.95349450263978Q659.8542890625,187.69309450263978,659.6072890625,187.42029450263976Q659.3602890625,187.14743450263978,659.1262890625,186.86279450263976Q658.8922890625,186.57814450263976,658.6732890625,186.28238450263976Q658.4542890625,185.98661450263978,658.2492890625,185.68044450263977Q658.0442890625,185.37427450263976,657.8552890625,185.05843450263978Q657.6662890625,184.74259450263978,657.4922890625,184.41784450263978Q657.3192890625,184.09309450263976,657.1612890625,183.76022450263977Q657.0042890625,183.42734450263978,656.8632890625,183.08714450263977Q656.7222890625,182.74694450263976,656.5982890625,182.40024450263977Q656.4742890625,182.05353450263976,656.3672890625,181.70116450263976Q656.2602890625,181.34879450263978,656.1712890625,180.99159450263977Q656.0812890625,180.63440450263977,656.0092890625,180.27324450263978Q655.9382890625,179.91209450263977,655.8832890625,179.54785450263978Q655.8292890625,179.18360450263978,655.7932890625,178.81715450263977Q655.7572890625,178.45069450263978,655.7392890625,178.08290950263978Q655.7212890625,177.71512350263978,655.7212890625,177.34689450263977Q655.7212890625,176.97866550263976,655.7392890625,176.61087950263976Q655.7572890625,176.24309450263976,655.7932890625,175.87663450263977Q655.8292890625,175.51018450263976,655.8832890625,175.14593450263976Q655.9382890625,174.78169450263977,656.0092890625,174.42054450263976Q656.0812890625,174.05938450263977,656.1712890625,173.70219450263977Q656.2602890625,173.34499450263976,656.3672890625,172.99262450263979Q656.4742890625,172.64025450263978,656.5982890625,172.29354450263978Q656.7222890625,171.94684450263978,656.8632890625,171.60664450263977Q657.0042890625,171.26644450263976,657.1612890625,170.93356450263977Q657.3192890625,170.60069450263978,657.4922890625,170.27594450263976Q657.6662890625,169.95119450263977,657.8552890625,169.63535450263976Q658.0442890625,169.31951450263978,658.2492890625,169.01334450263977Q658.4542890625,168.70717450263976,658.6732890625,168.41140450263978Q658.8922890625,168.11564450263978,659.1262890625,167.83099450263978Q659.3602890625,167.54635450263976,659.6072890625,167.27349450263978Q659.8542890625,167.00069450263976,660.1152890625,166.74029450263976Q660.3752890625,166.47989450263978,660.6482890625,166.23259450263976Q660.9212890625,165.98529450263976,661.2052890625,165.75169450263977Q661.4902890625,165.51809450263977,661.7862890625,165.29879450263977Q662.0812890625,165.07939450263976,662.3882890625,164.87489450263976Q662.6942890625,164.67029450263976,663.0102890625,164.48099450263976Q663.3252890625,164.29169450263976,663.6502890625,164.11809450263976Q663.9752890625,163.94449450263977,664.3082890625,163.78709450263977Q664.6412890625,163.62959450263978,664.9812890625,163.48869450263976Q665.3212890625,163.34779450263977,665.6682890625,163.22369450263977Q666.0142890625,163.09969450263978,666.3672890625,162.99279450263978Q666.7192890625,162.88589450263976,667.0762890625,162.79639450263977Q667.4342890625,162.70699450263976,667.7952890625,162.63509450263976Q668.1562890625,162.56329450263976,668.5202890625,162.50929450263976Q668.8842890625,162.45519450263976,669.2512890625,162.41909450263978Q669.6172890625,162.38299450263978,669.9852890625,162.36499450263977Q670.3532890625,162.34689450263977,670.7212890625,162.34689450263977Q671.0892890625,162.34689450263977,671.4572890625,162.36499450263977Q671.8252890625,162.38299450263978,672.1912890625,162.41909450263978Q672.5582890625,162.45519450263976,672.9222890625,162.50929450263976Q673.2862890625,162.56329450263976,673.6482890625,162.63509450263976Q674.0092890625,162.70699450263976,674.3662890625,162.79639450263977Q674.7232890625,162.88589450263976,675.0762890625,162.99279450263978Q675.4282890625,163.09969450263978,675.7742890625,163.22369450263977Q676.1212890625,163.34779450263977,676.4612890625,163.48869450263976Q676.8022890625,163.62959450263978,677.1342890625,163.78709450263977Q677.4672890625,163.94449450263977,677.7922890625,164.11809450263976Q678.1172890625,164.29169450263976,678.4332890625,164.48099450263976Q678.7492890625,164.67029450263976,679.0552890625,164.87489450263976Q679.3612890625,165.07939450263976,679.6572890625,165.29879450263977Q679.9522890625,165.51809450263977,680.2372890625,165.75169450263977Q680.5222890625,165.98529450263976,680.7952890625,166.23259450263976Q681.0672890625,166.47989450263978,681.3282890625,166.74029450263976Q681.5882890625,167.00069450263976,681.8352890625,167.27349450263978Q682.0832890625,167.54635450263976,682.3162890625,167.83099450263978Q682.5502890625,168.11564450263978,682.7692890625,168.41140450263978Q682.9892890625,168.70717450263976,683.1932890625,169.01334450263977Q683.3982890625,169.31951450263978,683.5872890625,169.63535450263976Q683.7762890625,169.95119450263977,683.9502890625,170.27594450263976Q684.1242890625,170.60069450263978,684.2812890625,170.93356450263977Q684.4382890625,171.26644450263976,684.5792890625,171.60664450263977Q684.7202890625,171.94684450263978,684.8442890625,172.29354450263978Q684.9682890625,172.64025450263978,685.0752890625,172.99262450263979Q685.1822890625,173.34499450263976,685.2722890625,173.70219450263977Q685.3612890625,174.05938450263977,685.4332890625,174.42054450263976Q685.5052890625,174.78169450263977,685.5592890625,175.14593450263976Q685.6132890625,175.51018450263976,685.6492890625,175.87663450263977Q685.6852890625,176.24309450263976,685.7032890625,176.61087950263976Q685.7212890625,176.97866550263976,685.7212890625,177.34689450263977Z" fill="url(#master_svg3_101_1900)" fill-opacity="1"/></g></g><g style="mix-blend-mode:passthrough"><ellipse cx="638.6566009521484" cy="82.09126281738281" rx="29.420150756835938" ry="29.424758911132812" fill="url(#master_svg4_101_1900)" fill-opacity="1"/></g></g></svg>