<svg xmlns="http://www.w3.org/2000/svg" xmlns:xlink="http://www.w3.org/1999/xlink" fill="none" version="1.1" width="837.4364013671875" height="586.037353515625" viewBox="0 0 837.4364013671875 586.037353515625"><defs><linearGradient x1="0.5" y1="0" x2="0.5" y2="1" id="master_svg0_66_0578"><stop offset="0%" stop-color="#000000" stop-opacity="1"/><stop offset="100%" stop-color="#000000" stop-opacity="1"/></linearGradient><linearGradient x1="0.5" y1="0" x2="0.5" y2="1" id="master_svg1_66_0578"><stop offset="0%" stop-color="#000000" stop-opacity="1"/><stop offset="100%" stop-color="#000000" stop-opacity="1"/></linearGradient><linearGradient x1="0.5" y1="0" x2="0.5" y2="1" id="master_svg2_66_0578"><stop offset="0%" stop-color="#000000" stop-opacity="1"/><stop offset="100%" stop-color="#000000" stop-opacity="1"/></linearGradient><linearGradient x1="0.5" y1="0" x2="0.5" y2="1" id="master_svg3_66_0578"><stop offset="0%" stop-color="#000000" stop-opacity="1"/><stop offset="100%" stop-color="#000000" stop-opacity="1"/></linearGradient><linearGradient x1="0.5" y1="0" x2="0.5" y2="1" id="master_svg4_66_0578"><stop offset="0%" stop-color="#000000" stop-opacity="1"/><stop offset="100%" stop-color="#000000" stop-opacity="1"/></linearGradient></defs><g style="mix-blend-mode:passthrough" transform="matrix(0.9986295104026794,-0.052335962653160095,0.052335962653160095,0.9986295104026794,-2.7350325744810107,0.8897453829795268)"><g transform="matrix(0.9848077297210693,-0.17367450892925262,0.1736217588186264,0.9848077297210693,-16.283000283293745,63.892097381442)"><path d="M385.7653201171875,125.0447765180664C381.8394201171875,125.2756665180664,377.8695201171875,125.3477235180664,373.7824201171875,125.4055135180664C364.2605601171875,125.52091251806641,356.7894851171875,133.1379235180664,356.9506800671875,142.3995435180664C357.1412161171875,151.7043435180664,364.9638301171875,159.1338435180664,374.38302011718747,159.0185435180664C378.9681201171875,158.9751435180664,383.4654201171875,158.8165435180664,387.9481201171875,158.5856435180664C397.3819201171875,158.0951435180664,404.5599201171875,150.1607435180664,403.9887201171875,140.87034351806642C403.3586201171875,131.6374535180664,395.2284201171875,124.52538751806641,385.7653201171875,125.0447765180664C385.7653201171875,125.0447765180664,385.7653201171875,125.0447765180664,385.7653201171875,125.0447765180664Z" fill="url(#master_svg0_66_0578)" fill-opacity="1"/></g><g><path d="M233.7535533203125,272.9880728149414C243.1926533203125,225.24477281494143,277.8851533203125,185.79757281494142,325.4006533203125,170.7763728149414C334.35965332031253,167.93797281494142,339.3266533203125,158.37457281494142,336.5386533203125,149.4808728149414C333.7356533203125,140.5580728149414,324.1656533203125,135.6381428149414,315.20565332031254,138.4765798149414C255.6814533203125,157.2973728149414,212.1310533203125,206.7587728149414,200.3389153203125,266.6130728149414C198.5382833203125,275.8270728149414,204.5356433203125,284.6770728149414,213.7569533203125,286.4530728149414C223.0079533203125,288.2140728149414,231.9528533203125,282.1880728149414,233.7535533203125,272.9880728149414Z" fill="url(#master_svg1_66_0578)" fill-opacity="1"/></g><g style="mix-blend-mode:passthrough"><g><path d="M162.4447021484375,313.7855539264679Q162.4447021484375,363.0705539264679,181.4684021484375,408.0555539264679Q199.8479021484375,451.5165539264679,233.37050214843748,485.0435539264679Q266.8927021484375,518.5715539264679,310.3467021484375,536.953553926468Q355.3227021484375,555.9795539264678,404.5987021484375,555.9795539264678Q453.8747021484375,555.9795539264678,498.8507021484375,536.953553926468Q542.3047021484375,518.5715539264679,575.8267021484376,485.0435539264679Q609.3497021484375,451.5165539264679,627.7287021484375,408.0555539264679Q646.7527021484375,363.0705539264679,646.7527021484375,313.7855539264679Q646.7527021484375,264.5005539264679,627.7287021484375,219.5165539264679Q609.3497021484375,176.0555539264679,575.8267021484376,142.5274539264679Q542.3047021484375,108.99985392646789,498.8507021484375,90.6177539264679Q453.8747021484375,71.5915539264679,404.5987021484375,71.5915539264679Q355.3227021484375,71.5915539264679,310.3467021484375,90.6177539264679Q266.8927021484375,108.9999539264679,233.37050214843748,142.5274539264679Q199.8479021484375,176.0555539264679,181.4685021484375,219.5165539264679Q162.4447021484375,264.5005539264679,162.4447021484375,313.7855539264679L162.4447021484375,313.7855539264679ZM132.4447021484375,313.7855539264679Q132.4447021484375,258.4175539264679,153.8376421484375,207.8315539264679Q174.4961021484375,158.98155392646788,212.15560214843748,121.3159539264679Q249.81570214843748,83.6502539264679,298.6587021484375,62.9882939264679Q349.2387021484375,41.591553926467896,404.5987021484375,41.591553926467896Q459.9587021484375,41.591553926467896,510.5387021484375,62.9882939264679Q559.3817021484375,83.6501539264679,597.0417021484375,121.3159539264679Q634.7007021484375,158.98155392646788,655.3597021484375,207.8315539264679Q676.7527021484375,258.4185539264679,676.7527021484375,313.7855539264679Q676.7527021484375,369.1535539264679,655.3597021484375,419.7405539264679Q634.7007021484375,468.5905539264679,597.0417021484375,506.2555539264679Q559.3817021484375,543.9215539264678,510.5387021484375,564.5835539264679Q459.9587021484375,585.9795539264679,404.5987021484375,585.9795539264679Q349.2377021484375,585.9795539264679,298.6587021484375,564.5835539264679Q249.81570214843748,543.9215539264678,212.15560214843748,506.2555539264679Q174.4961021484375,468.5905539264679,153.8376221484375,419.7405539264679Q132.4447021484375,369.1535539264679,132.4447021484375,313.7855539264679L132.4447021484375,313.7855539264679Z" fill="url(#master_svg2_66_0578)" fill-opacity="1"/></g><g><path d="M110.2704599609375,322.1266034870148Q65.86515996093749,351.7176034870148,45.2879599609375,380.29360348701476Q26.4997599609375,406.3856034870148,31.7525599609375,425.9926034870148Q36.4328599609375,443.46260348701475,69.4066599609375,455.6346034870148Q105.1784599609375,468.8386034870148,164.4444599609375,471.6746034870148Q223.6184599609375,474.5066034870148,293.4264599609375,466.36860348701475Q365.3434599609375,457.98560348701477,433.9934599609375,439.5886034870148Q504.2594599609375,420.75760348701476,570.2264599609375,394.74060348701477Q636.5704599609375,368.57460348701477,686.2364599609375,339.9926034870148Q737.3064599609374,310.60360348701477,761.8224599609375,283.78660348701476Q784.3454599609375,259.15170348701474,779.8174599609375,242.25280348701477Q774.8294599609375,223.63470348701478,748.0194599609375,210.73480348701477Q718.6014599609375,196.58030348701476,669.4674599609375,192.29180348701476Q669.1004599609375,192.25980348701478,668.7354599609375,192.20980348701477Q668.3714599609375,192.15980348701476,668.0094599609375,192.09200348701478Q667.6474599609375,192.02420348701477,667.2884599609375,191.93870348701478Q666.9304599609375,191.85320348701478,666.5774599609375,191.75020348701477Q666.2234599609375,191.64720348701476,665.8754599609375,191.52710348701476Q665.5274599609374,191.40690348701477,665.1854599609375,191.26970348701477Q664.8444599609375,191.13260348701476,664.5094599609375,190.97890348701478Q664.1744599609375,190.82510348701476,663.8484599609375,190.65520348701477Q663.5214599609375,190.48520348701476,663.2034599609375,190.29940348701476Q662.8854599609375,190.11370348701476,662.5774599609375,189.91250348701476Q662.2684599609375,189.71130348701476,661.9704599609375,189.49530348701478Q661.6724599609375,189.27920348701477,661.3854599609375,189.04880348701477Q661.0984599609375,188.81840348701476,660.8224599609375,188.57410348701478Q660.5464599609375,188.32990348701478,660.2834599609375,188.07240348701478Q660.0204599609375,187.81500348701476,659.7704599609375,187.54490348701478Q659.5194599609375,187.27481348701477,659.2824599609374,186.99278348701478Q659.0464599609375,186.71074348701478,658.8234599609375,186.41744348701476Q658.6004599609375,186.12413348701477,658.3934599609375,185.82025348701478Q658.1844599609375,185.51637348701476,657.9924599609375,185.20265348701477Q657.7994599609375,184.88894348701476,657.6224599609375,184.56614348701476Q657.4454599609375,184.24333348701478,657.2834599609375,183.91223348701476Q657.1224599609375,183.58112348701476,656.9784599609375,183.24251348701478Q656.8334599609375,182.90390348701476,656.7054599609374,182.55860348701478Q656.5774599609375,182.21329348701477,656.4664599609375,181.86213348701477Q656.3554599609375,181.51096348701478,656.2624599609375,181.15479348701476Q656.1694599609375,180.79861348701476,656.0934599609375,180.43828348701476Q656.0174599609375,180.07794348701478,655.9594599609375,179.71432348701478Q655.9014599609375,179.35070348701478,655.8614599609375,178.98467348701476Q655.8214599609375,178.61864348701477,655.7984599609375,178.25107848701478Q655.7764599609375,177.88351648701476,655.7724599609375,177.51530948701478Q655.7684599609375,177.14710348701476,655.7824599609374,176.77913948701476Q655.7964599609375,176.41117548701476,655.8284599609375,176.04434348701477Q655.8604599609375,175.67750348701477,655.9104599609375,175.31268348701477Q655.9604599609376,174.94786348701476,656.0284599609375,174.58593348701476Q656.0964599609375,174.22400348701478,656.1814599609374,173.86583348701478Q656.2674599609375,173.50767348701476,656.3704599609375,173.15413348701478Q656.4734599609375,172.80059348701477,656.5934599609375,172.45253348701476Q656.7134599609375,172.10447348701476,656.8504599609375,171.76272348701477Q656.9874599609375,171.42098348701478,657.1414599609375,171.08637348701478Q657.2954599609375,170.75177348701476,657.4654599609376,170.42511348701478Q657.6354599609375,170.09845348701478,657.8204599609375,169.78053348701476Q658.0064599609375,169.46260348701477,658.2074599609375,169.15417348701476Q658.4084599609375,168.84575348701478,658.6244599609375,168.54757348701477Q658.8404599609376,168.24938348701477,659.0714599609375,167.96216348701478Q659.3014599609374,167.67493348701478,659.5464599609375,167.39936348701477Q659.7904599609375,167.12380348701478,660.0474599609375,166.86050348701477Q660.3054599609375,166.59730348701476,660.5754599609375,166.34700348701477Q660.8454599609375,166.09670348701476,661.1274599609375,165.85990348701478Q661.4094599609375,165.62320348701476,661.7024599609375,165.40050348701476Q661.9964599609375,165.17790348701476,662.3004599609375,164.96990348701476Q662.6034599609375,164.76200348701477,662.9174599609375,164.56920348701476Q663.2314599609375,164.37640348701478,663.5544599609375,164.19920348701476Q663.8764599609375,164.02200348701479,664.2084599609375,163.86090348701478Q664.5394599609375,163.69970348701477,664.8774599609375,163.55510348701478Q665.2164599609375,163.41040348701478,665.5614599609376,163.28250348701476Q665.9064599609375,163.15460348701478,666.2584599609374,163.04380348701477Q666.6094599609376,162.93300348701476,666.9654599609376,162.83950348701478Q667.3214599609375,162.74610348701478,667.6814599609374,162.67030348701476Q668.0424599609375,162.59440348701477,668.4054599609375,162.53630348701478Q668.7694599609375,162.47830348701478,669.1354599609375,162.43810348701476Q669.5014599609375,162.39790348701476,669.8694599609375,162.37580348701476Q670.2364599609375,162.35360348701477,670.6054599609375,162.34950348701477Q670.9734599609375,162.34540348701478,671.3414599609375,162.35940348701476Q671.7094599609375,162.37340348701477,672.0754599609375,162.40540348701478Q726.6694599609375,167.17040348701477,761.0264599609375,183.70129348701477Q800.2444599609375,202.57110348701477,808.7954599609375,234.48950348701476Q817.5764599609375,267.26400348701475,783.9644599609375,304.02960348701475Q756.3054599609375,334.28260348701474,701.2004599609375,365.99460348701473Q649.6244599609375,395.6746034870148,581.2334599609375,422.6486034870148Q513.6764599609376,449.2926034870148,441.7584599609375,468.56560348701476Q370.9934599609375,487.5306034870148,296.9004599609375,496.1676034870148Q224.6454599609375,504.5906034870148,163.0104599609375,501.64060348701474Q99.1268599609375,498.5836034870148,59.0180599609375,483.7786034870148Q11.473999960937501,466.22860348701477,2.7744599609375005,433.7566034870148Q-6.160940039062499,400.4036034870148,20.9427999609375,362.76360348701473Q44.7002599609375,329.7706034870148,93.6344599609375,297.16160348701476Q93.9409599609375,296.95760348701475,94.2569599609375,296.7686034870148Q94.5730599609375,296.57960348701477,94.8980599609375,296.40660348701476Q95.2229599609375,296.23360348701476,95.5560599609375,296.0766034870148Q95.8891599609375,295.9196034870148,96.2295599609375,295.7786034870148Q96.5698599609375,295.6386034870148,96.9167599609375,295.51460348701477Q97.2636599609375,295.3916034870148,97.6161599609375,295.2846034870148Q97.9686599609375,295.17860348701475,98.3259599609375,295.08960348701476Q98.6832599609375,295.00060348701476,99.0444599609375,294.92860348701475Q99.4057599609375,294.8576034870148,99.7700599609375,294.80360348701475Q100.1343599609375,294.75060348701476,100.5008599609375,294.71460348701476Q100.8673599609375,294.6796034870148,101.2351599609375,294.66160348701476Q101.6029599609375,294.6436034870148,101.9711599609375,294.64460348701476Q102.3393599609375,294.64460348701476,102.7071599609375,294.66360348701477Q103.0749599609375,294.68160348701474,103.4413599609375,294.7186034870148Q103.8077599609375,294.7546034870148,104.1719599609375,294.8096034870148Q104.5361599609375,294.86360348701476,104.8971599609375,294.93660348701474Q105.2582599609375,295.00860348701474,105.6153599609375,295.09860348701477Q105.9723599609375,295.1886034870148,106.3246599609375,295.2956034870148Q106.6768599609375,295.40260348701474,107.0234599609375,295.52760348701474Q107.3699599609375,295.65160348701477,107.7099599609375,295.79360348701476Q108.0500599609375,295.9346034870148,108.3826599609375,296.0926034870148Q108.7153599609375,296.25060348701476,109.0399599609375,296.4246034870148Q109.3644599609375,296.59860348701477,109.6800599609375,296.78860348701477Q109.9956599609375,296.9776034870148,110.3015599609375,297.1826034870148Q110.6074599609375,297.38760348701476,110.9029599609375,297.6076034870148Q111.1984599609375,297.82760348701476,111.4828599609375,298.06160348701474Q111.7671599609375,298.2946034870148,112.0397599609375,298.5426034870148Q112.3122599609375,298.7906034870148,112.5722599609375,299.05060348701477Q112.8323599609375,299.31160348701474,113.0792599609375,299.58460348701476Q113.3262599609375,299.8576034870148,113.5594599609375,300.14260348701475Q113.7927599609375,300.4276034870148,114.0117599609375,300.72360348701477Q114.2307599609375,301.01960348701476,114.4349599609375,301.3266034870148Q114.6391599609375,301.63260348701476,114.8280599609375,301.9486034870148Q115.0169599609375,302.26460348701477,115.1901599609375,302.58960348701476Q115.3632599609375,302.9146034870148,115.5203599609375,303.24760348701477Q115.6774599609375,303.58060348701474,115.8174599609375,303.92160348701475Q115.9584599609375,304.2616034870148,116.0814599609375,304.60860348701476Q116.2054599609375,304.95560348701474,116.3124599609375,305.3076034870148Q116.4184599609375,305.6606034870148,116.5074599609375,306.01760348701475Q116.5964599609375,306.37560348701476,116.6674599609375,306.7366034870148Q116.7394599609375,307.0976034870148,116.7924599609375,307.46160348701477Q116.8464599609375,307.8266034870148,116.8824599609375,308.19260348701476Q116.9174599609375,308.5596034870148,116.9354599609375,308.92660348701475Q116.9524599609375,309.2946034870148,116.9524599609375,309.66360348701477Q116.9524599609375,310.03160348701476,116.9334599609375,310.39960348701476Q116.9154599609375,310.7666034870148,116.8784599609375,311.13360348701474Q116.8414599609375,311.4996034870148,116.7874599609375,311.86360348701476Q116.7324599609375,312.2276034870148,116.6604599609375,312.58960348701476Q116.5884599609375,312.95060348701475,116.4984599609375,313.3076034870148Q116.4084599609375,313.6646034870148,116.3014599609375,314.0166034870148Q116.1934599609375,314.36860348701475,116.0694599609375,314.71560348701473Q115.9444599609375,315.06160348701474,115.8034599609375,315.40160348701477Q115.6624599609375,315.7416034870148,115.5043599609375,316.07460348701477Q115.3464599609375,316.40760348701474,115.1724599609375,316.7316034870148Q114.9984599609375,317.05660348701474,114.8087599609375,317.3716034870148Q114.6190599609375,317.68760348701477,114.4141599609375,317.99360348701475Q114.2091599609375,318.2996034870148,113.9894599609375,318.59460348701475Q113.7697599609375,318.8906034870148,113.5357599609375,319.1746034870148Q113.3018599609375,319.45960348701476,113.0541599609375,319.7316034870148Q112.8065599609375,320.0046034870148,112.5458599609375,320.26460348701477Q112.2851599609375,320.52460348701476,112.0119599609375,320.7716034870148Q111.7388599609375,321.01860348701473,111.4539599609375,321.2516034870148Q111.1689599609375,321.48460348701474,110.8729599609375,321.7036034870148Q110.5768599609375,321.9226034870148,110.2704599609375,322.1266034870148ZM116.9524599609375,309.64460348701476Q116.9524599609375,310.01260348701476,116.9344599609375,310.3806034870148Q116.9164599609375,310.74860348701475,116.8804599609375,311.11460348701473Q116.8444599609375,311.4816034870148,116.7904599609375,311.8456034870148Q116.7364599609375,312.20960348701476,116.6644599609375,312.57060348701475Q116.5924599609375,312.93160348701474,116.5024599609375,313.2896034870148Q116.4134599609375,313.6466034870148,116.3064599609375,313.99860348701475Q116.1994599609375,314.3506034870148,116.0754599609375,314.69760348701476Q115.9514599609375,315.0446034870148,115.8104599609375,315.3846034870148Q115.6694599609375,315.72460348701475,115.5123599609375,316.0576034870148Q115.3548599609375,316.3906034870148,115.1812599609375,316.71560348701473Q115.0077599609375,317.0406034870148,114.8183599609375,317.3556034870148Q114.6290599609375,317.67160348701475,114.4245599609375,317.9776034870148Q114.2199599609375,318.2846034870148,114.0005599609375,318.57960348701477Q113.7812599609375,318.87560348701476,113.5476599609375,319.1606034870148Q113.3140599609375,319.4446034870148,113.0667599609375,319.7176034870148Q112.8194599609375,319.99060348701477,112.5590599609375,320.25060348701476Q112.2986599609375,320.5116034870148,112.0258599609375,320.75860348701474Q111.7530599609375,321.0056034870148,111.4683599609375,321.23960348701473Q111.1837599609375,321.47360348701477,110.8879599609375,321.69260348701476Q110.5921599609375,321.91160348701476,110.2860599609375,322.1166034870148Q109.9798599609375,322.32060348701475,109.6639599609375,322.5106034870148Q109.3481599609375,322.69960348701477,109.0234599609375,322.87360348701475Q108.6986599609375,323.04660348701475,108.3657599609375,323.20460348701477Q108.0329599609375,323.3616034870148,107.6927599609375,323.50260348701477Q107.3525599609375,323.64360348701473,107.0058599609375,323.76760348701475Q106.6591599609375,323.8916034870148,106.3067599609375,323.99860348701475Q105.9543599609375,324.1056034870148,105.5971599609375,324.1946034870148Q105.2399599609375,324.2846034870148,104.8788599609375,324.3566034870148Q104.5176599609375,324.4276034870148,104.1534599609375,324.4816034870148Q103.7891599609375,324.53660348701476,103.4227599609375,324.57260348701476Q103.0562599609375,324.60860348701476,102.6884599609375,324.6266034870148Q102.3207599609375,324.64460348701476,101.9524599609375,324.64460348701476Q101.5842599609375,324.64460348701476,101.2164599609375,324.6266034870148Q100.8486599609375,324.60860348701476,100.4822599609375,324.57260348701476Q100.1157599609375,324.53660348701476,99.7515599609375,324.4816034870148Q99.3872599609375,324.4276034870148,99.0261599609375,324.3566034870148Q98.6649599609375,324.2846034870148,98.3077599609375,324.1946034870148Q97.9505599609375,324.1056034870148,97.5982599609375,323.99860348701475Q97.2458599609375,323.8916034870148,96.8991599609375,323.76760348701475Q96.5524599609375,323.64360348701473,96.2122599609375,323.50260348701477Q95.8720599609375,323.3616034870148,95.5391599609375,323.20460348701477Q95.2062599609375,323.04660348701475,94.8815599609375,322.87360348701475Q94.5567599609375,322.69960348701477,94.2409599609375,322.5106034870148Q93.9250599609375,322.32060348701475,93.6189599609375,322.1166034870148Q93.3127599609375,321.91160348701476,93.0169599609375,321.69260348701476Q92.7212599609375,321.47360348701477,92.4365599609375,321.23960348701473Q92.1519599609375,321.0056034870148,91.8790599609375,320.75860348701474Q91.6062599609375,320.5116034870148,91.3458599609375,320.25060348701476Q91.0855599609375,319.99060348701477,90.8382599609375,319.7176034870148Q90.5909599609375,319.4446034870148,90.3573599609375,319.1606034870148Q90.1237599609375,318.87560348701476,89.9043599609375,318.57960348701477Q89.6850599609375,318.2846034870148,89.4804599609375,317.9776034870148Q89.2758599609375,317.67160348701475,89.0865599609375,317.3556034870148Q88.8972599609375,317.0406034870148,88.7236599609375,316.71560348701473Q88.5500599609375,316.3906034870148,88.3926599609375,316.0576034870148Q88.2351599609375,315.72460348701475,88.0942599609375,315.3846034870148Q87.9533599609375,315.0446034870148,87.8293599609375,314.69760348701476Q87.7052599609375,314.3506034870148,87.5983599609375,313.99860348701475Q87.4914599609375,313.6466034870148,87.4019599609375,313.2896034870148Q87.3125599609375,312.93160348701474,87.2406599609375,312.57060348701475Q87.1688599609375,312.20960348701476,87.1148599609375,311.8456034870148Q87.0607599609375,311.4816034870148,87.0247599609375,311.11460348701473Q86.9886599609375,310.74860348701475,86.9705599609375,310.3806034870148Q86.9524599609375,310.01260348701476,86.9524599609375,309.64460348701476Q86.9524599609375,309.27660348701477,86.9705599609375,308.9086034870148Q86.9886599609375,308.5406034870148,87.0247599609375,308.1746034870148Q87.0607599609375,307.8076034870148,87.1148599609375,307.4436034870148Q87.1688599609375,307.07960348701477,87.2406599609375,306.7176034870148Q87.3125599609375,306.3566034870148,87.4020599609375,305.9996034870148Q87.4914599609375,305.64260348701475,87.5983599609375,305.2906034870148Q87.7052599609375,304.93760348701477,87.8293599609375,304.5906034870148Q87.9533599609375,304.2446034870148,88.0942599609375,303.90460348701475Q88.2351599609375,303.5636034870148,88.3926599609375,303.23160348701475Q88.5500599609375,302.8986034870148,88.7236599609375,302.5736034870148Q88.8972599609375,302.24860348701475,89.0865599609375,301.9326034870148Q89.2758599609375,301.6166034870148,89.4804599609375,301.31060348701476Q89.6850599609375,301.0046034870148,89.9043599609375,300.7086034870148Q90.1237599609375,300.41360348701477,90.3573599609375,300.12860348701474Q90.5909599609375,299.8436034870148,90.8382599609375,299.57060348701475Q91.0855599609375,299.29860348701476,91.3458599609375,299.03760348701474Q91.6062599609375,298.77760348701474,91.8790599609375,298.5306034870148Q92.1519599609375,298.28260348701474,92.4365599609375,298.0496034870148Q92.7212599609375,297.81560348701476,93.0169599609375,297.59660348701476Q93.3127599609375,297.3766034870148,93.6189599609375,297.1726034870148Q93.9250599609375,296.9676034870148,94.2409599609375,296.7786034870148Q94.5567599609375,296.58960348701476,94.8815599609375,296.4156034870148Q95.2062599609375,296.2416034870148,95.5391599609375,296.08460348701476Q95.8720599609375,295.9276034870148,96.2122599609375,295.78660348701476Q96.5524599609375,295.6456034870148,96.8991599609375,295.5216034870148Q97.2458599609375,295.39760348701475,97.5982599609375,295.2906034870148Q97.9505599609375,295.18360348701475,98.3077599609375,295.0936034870148Q98.6649599609375,295.0046034870148,99.0261599609375,294.9326034870148Q99.3872599609375,294.86060348701477,99.7515599609375,294.80660348701474Q100.1157599609375,294.75260348701477,100.4822599609375,294.71660348701477Q100.8486599609375,294.68060348701476,101.2164599609375,294.66260348701474Q101.5842599609375,294.64460348701476,101.9524599609375,294.64460348701476Q102.3207599609375,294.64460348701476,102.6884599609375,294.66260348701474Q103.0562599609375,294.68060348701476,103.4227599609375,294.71660348701477Q103.7891599609375,294.75260348701477,104.1534599609375,294.80660348701474Q104.5176599609375,294.86060348701477,104.8788599609375,294.9326034870148Q105.2399599609375,295.0046034870148,105.5971599609375,295.0936034870148Q105.9543599609375,295.18360348701475,106.3067599609375,295.2906034870148Q106.6591599609375,295.39760348701475,107.0058599609375,295.5216034870148Q107.3525599609375,295.6456034870148,107.6927599609375,295.78660348701476Q108.0329599609375,295.9276034870148,108.3657599609375,296.08460348701476Q108.6986599609375,296.2416034870148,109.0234599609375,296.4156034870148Q109.3481599609375,296.58960348701476,109.6639599609375,296.7786034870148Q109.9798599609375,296.9676034870148,110.2860599609375,297.1726034870148Q110.5921599609375,297.3766034870148,110.8879599609375,297.59660348701476Q111.1837599609375,297.81560348701476,111.4683599609375,298.0496034870148Q111.7530599609375,298.28260348701474,112.0258599609375,298.5306034870148Q112.2986599609375,298.77760348701474,112.5590599609375,299.03760348701474Q112.8194599609375,299.29860348701476,113.0667599609375,299.57060348701475Q113.3140599609375,299.8436034870148,113.5476599609375,300.12860348701474Q113.7812599609375,300.41360348701477,114.0005599609375,300.7086034870148Q114.2199599609375,301.0046034870148,114.4245599609375,301.31060348701476Q114.6290599609375,301.6166034870148,114.8183599609375,301.9326034870148Q115.0077599609375,302.24860348701475,115.1812599609375,302.5736034870148Q115.3548599609375,302.8986034870148,115.5123599609375,303.2306034870148Q115.6694599609375,303.5636034870148,115.8104599609375,303.90460348701475Q115.9514599609375,304.2446034870148,116.0754599609375,304.5906034870148Q116.1994599609375,304.93760348701477,116.3064599609375,305.2906034870148Q116.4134599609375,305.64260348701475,116.5024599609375,305.9996034870148Q116.5924599609375,306.3566034870148,116.6644599609375,306.7176034870148Q116.7364599609375,307.07960348701477,116.7904599609375,307.4436034870148Q116.8444599609375,307.8076034870148,116.8804599609375,308.1746034870148Q116.9164599609375,308.5406034870148,116.9344599609375,308.9086034870148Q116.9524599609375,309.27660348701477,116.9524599609375,309.64460348701476ZM685.7714599609375,177.34860348701477Q685.7714599609375,177.71683248701478,685.7534599609374,178.08461848701478Q685.7354599609375,178.45240348701478,685.6994599609375,178.81886348701477Q685.6634599609375,179.18531348701478,685.6094599609376,179.54956348701478Q685.5554599609375,179.91380348701477,685.4834599609375,180.27495348701478Q685.4114599609375,180.63611348701477,685.3224599609375,180.99330348701477Q685.2324599609375,181.35050348701478,685.1254599609375,181.70287348701476Q685.0184599609375,182.05524348701476,684.8944599609375,182.40195348701477Q684.7704599609375,182.74865348701476,684.6294599609375,183.08885348701477Q684.4884599609375,183.42905348701478,684.3314599609375,183.76193348701477Q684.1744599609375,184.09480348701476,684.0004599609375,184.41955348701478Q683.8264599609375,184.74430348701478,683.6374599609375,185.06014348701478Q683.4484599609375,185.37598348701476,683.2434599609375,185.68215348701477Q683.0394599609375,185.98832348701478,682.8194599609375,186.28409348701476Q682.6004599609375,186.57985348701476,682.3664599609375,186.86450348701476Q682.1334599609374,187.14914348701478,681.8854599609375,187.42200348701476Q681.6384599609376,187.69480348701478,681.3784599609374,187.95520348701478Q681.1174599609375,188.21560348701476,680.8454599609375,188.46290348701478Q680.5724599609375,188.71020348701478,680.2874599609376,188.94380348701478Q680.0024599609375,189.17740348701477,679.7074599609375,189.39670348701478Q679.4114599609375,189.61610348701478,679.1054599609375,189.82060348701478Q678.7984599609375,190.02520348701478,678.4834599609375,190.21450348701478Q678.1674599609375,190.40380348701478,677.8424599609375,190.57740348701478Q677.5174599609375,190.75100348701477,677.1844599609375,190.90840348701477Q676.8514599609375,191.06590348701477,676.5114599609375,191.20680348701478Q676.1714599609375,191.34770348701477,675.8244599609375,191.47180348701477Q675.4784599609375,191.59580348701476,675.1254599609375,191.70270348701476Q674.7734599609375,191.80960348701478,674.4164599609375,191.89910348701477Q674.0594599609375,191.98850348701478,673.6974599609375,192.06040348701478Q673.3364599609375,192.13220348701478,672.9724599609375,192.18620348701478Q672.6084599609375,192.24030348701478,672.2414599609375,192.27640348701476Q671.8754599609375,192.31250348701477,671.5074599609375,192.33050348701477Q671.1394599609375,192.34860348701477,670.7714599609375,192.34860348701477Q670.4034599609375,192.34860348701477,670.0354599609375,192.33050348701477Q669.6674599609375,192.31250348701477,669.3014599609374,192.27640348701476Q668.9344599609375,192.24030348701478,668.5704599609375,192.18620348701478Q668.2064599609375,192.13220348701478,667.8454599609375,192.06040348701478Q667.4844599609376,191.98850348701478,667.1264599609375,191.89910348701477Q666.7694599609375,191.80960348701478,666.4174599609375,191.70270348701476Q666.0644599609375,191.59580348701476,665.7184599609375,191.47180348701477Q665.3714599609375,191.34770348701477,665.0314599609375,191.20680348701478Q664.6914599609376,191.06590348701477,664.3584599609375,190.90840348701477Q664.0254599609375,190.75100348701477,663.7004599609375,190.57740348701478Q663.3754599609375,190.40380348701478,663.0604599609375,190.21450348701478Q662.7444599609375,190.02520348701478,662.4384599609375,189.82060348701478Q662.1314599609375,189.61610348701478,661.8364599609375,189.39670348701478Q661.5404599609375,189.17740348701477,661.2554599609375,188.94380348701478Q660.9714599609375,188.71020348701478,660.6984599609375,188.46290348701478Q660.4254599609375,188.21560348701476,660.1654599609375,187.95520348701478Q659.9044599609375,187.69480348701478,659.6574599609374,187.42200348701476Q659.4104599609375,187.14914348701478,659.1764599609374,186.86450348701476Q658.9424599609375,186.57985348701476,658.7234599609375,186.28409348701476Q658.5044599609375,185.98832348701478,658.2994599609375,185.68215348701477Q658.0944599609375,185.37598348701476,657.9054599609375,185.06014348701478Q657.7164599609375,184.74430348701478,657.5424599609375,184.41955348701478Q657.3694599609375,184.09480348701476,657.2114599609375,183.76193348701477Q657.0544599609375,183.42905348701478,656.9134599609375,183.08885348701477Q656.7724599609375,182.74865348701476,656.6484599609375,182.40195348701477Q656.5244599609375,182.05524348701476,656.4174599609375,181.70287348701476Q656.3104599609375,181.35050348701478,656.2214599609375,180.99330348701477Q656.1314599609375,180.63611348701477,656.0594599609375,180.27495348701478Q655.9884599609375,179.91380348701477,655.9334599609375,179.54956348701478Q655.8794599609375,179.18531348701478,655.8434599609375,178.81886348701477Q655.8074599609375,178.45240348701478,655.7894599609375,178.08461848701478Q655.7714599609375,177.71683248701478,655.7714599609375,177.34860348701477Q655.7714599609375,176.98037448701476,655.7894599609375,176.61258848701476Q655.8074599609375,176.24480348701476,655.8434599609375,175.87834348701477Q655.8794599609375,175.51189348701476,655.9334599609375,175.14764348701476Q655.9884599609375,174.78340348701477,656.0594599609375,174.42225348701476Q656.1314599609375,174.06109348701477,656.2214599609375,173.70390348701477Q656.3104599609375,173.34670348701476,656.4174599609375,172.99433348701479Q656.5244599609375,172.64196348701478,656.6484599609375,172.29525348701478Q656.7724599609375,171.94855348701478,656.9134599609375,171.60835348701477Q657.0544599609375,171.26815348701476,657.2114599609375,170.93527348701477Q657.3694599609375,170.60240348701478,657.5424599609375,170.27765348701476Q657.7164599609375,169.95290348701477,657.9054599609375,169.63706348701476Q658.0944599609375,169.32122348701478,658.2994599609375,169.01505348701477Q658.5044599609375,168.70888348701476,658.7234599609375,168.41311348701478Q658.9424599609375,168.11735348701478,659.1764599609374,167.83270348701478Q659.4104599609375,167.54806348701476,659.6574599609374,167.27520348701478Q659.9044599609375,167.00240348701476,660.1654599609375,166.74200348701476Q660.4254599609375,166.48160348701478,660.6984599609375,166.23430348701476Q660.9714599609375,165.98700348701476,661.2554599609375,165.75340348701477Q661.5404599609375,165.51980348701477,661.8364599609375,165.30050348701477Q662.1314599609375,165.08110348701476,662.4384599609375,164.87660348701476Q662.7444599609375,164.67200348701476,663.0604599609375,164.48270348701476Q663.3754599609375,164.29340348701476,663.7004599609375,164.11980348701476Q664.0254599609375,163.94620348701477,664.3584599609375,163.78880348701477Q664.6914599609376,163.63130348701478,665.0314599609375,163.49040348701476Q665.3714599609375,163.34950348701477,665.7184599609375,163.22540348701477Q666.0644599609375,163.10140348701478,666.4174599609375,162.99450348701478Q666.7694599609375,162.88760348701476,667.1264599609375,162.79810348701477Q667.4844599609376,162.70870348701476,667.8454599609375,162.63680348701476Q668.2064599609375,162.56500348701476,668.5704599609375,162.51100348701476Q668.9344599609375,162.45690348701476,669.3014599609374,162.42080348701478Q669.6674599609375,162.38470348701478,670.0354599609375,162.36670348701477Q670.4034599609375,162.34860348701477,670.7714599609375,162.34860348701477Q671.1394599609375,162.34860348701477,671.5074599609375,162.36670348701477Q671.8754599609375,162.38470348701478,672.2414599609375,162.42080348701478Q672.6084599609375,162.45690348701476,672.9724599609375,162.51100348701476Q673.3364599609375,162.56500348701476,673.6984599609375,162.63680348701476Q674.0594599609375,162.70870348701476,674.4164599609375,162.79810348701477Q674.7734599609375,162.88760348701476,675.1264599609375,162.99450348701478Q675.4784599609375,163.10140348701478,675.8244599609375,163.22540348701477Q676.1714599609375,163.34950348701477,676.5114599609375,163.49040348701476Q676.8524599609375,163.63130348701478,677.1844599609375,163.78880348701477Q677.5174599609375,163.94620348701477,677.8424599609375,164.11980348701476Q678.1674599609375,164.29340348701476,678.4834599609375,164.48270348701476Q678.7994599609375,164.67200348701476,679.1054599609375,164.87660348701476Q679.4114599609375,165.08110348701476,679.7074599609375,165.30050348701477Q680.0024599609375,165.51980348701477,680.2874599609376,165.75340348701477Q680.5724599609375,165.98700348701476,680.8454599609375,166.23430348701476Q681.1174599609375,166.48160348701478,681.3784599609374,166.74200348701476Q681.6384599609376,167.00240348701476,681.8854599609375,167.27520348701478Q682.1334599609374,167.54806348701476,682.3664599609375,167.83270348701478Q682.6004599609375,168.11735348701478,682.8194599609375,168.41311348701478Q683.0394599609375,168.70888348701476,683.2434599609375,169.01505348701477Q683.4484599609375,169.32122348701478,683.6374599609375,169.63706348701476Q683.8264599609375,169.95290348701477,684.0004599609375,170.27765348701476Q684.1744599609375,170.60240348701478,684.3314599609375,170.93527348701477Q684.4884599609375,171.26815348701476,684.6294599609375,171.60835348701477Q684.7704599609375,171.94855348701478,684.8944599609375,172.29525348701478Q685.0184599609375,172.64196348701478,685.1254599609375,172.99433348701479Q685.2324599609375,173.34670348701476,685.3224599609375,173.70390348701477Q685.4114599609375,174.06109348701477,685.4834599609375,174.42225348701476Q685.5554599609375,174.78340348701477,685.6094599609376,175.14764348701476Q685.6634599609375,175.51189348701476,685.6994599609375,175.87834348701477Q685.7354599609375,176.24480348701476,685.7534599609374,176.61258848701476Q685.7714599609375,176.98037448701476,685.7714599609375,177.34860348701477Z" fill="url(#master_svg3_66_0578)" fill-opacity="1"/></g></g><g style="mix-blend-mode:passthrough"><ellipse cx="638.7067718505859" cy="82.09297180175781" rx="29.420150756835938" ry="29.424758911132812" fill="url(#master_svg4_66_0578)" fill-opacity="1"/></g></g></svg>