<svg xmlns="http://www.w3.org/2000/svg" xmlns:xlink="http://www.w3.org/1999/xlink" fill="none" version="1.1" width="837.4363403320312" height="586.037353515625" viewBox="0 0 837.4363403320312 586.037353515625"><defs><linearGradient x1="0.5" y1="0" x2="0.5" y2="1" id="master_svg0_46_0183"><stop offset="0%" stop-color="#7193FF" stop-opacity="1"/><stop offset="100%" stop-color="#B780FF" stop-opacity="1"/></linearGradient><linearGradient x1="0.5" y1="0" x2="0.5" y2="1" id="master_svg1_46_0183"><stop offset="0%" stop-color="#7193FF" stop-opacity="1"/><stop offset="100%" stop-color="#B780FF" stop-opacity="1"/></linearGradient><linearGradient x1="0.5" y1="0" x2="0.5" y2="1" id="master_svg2_46_953"><stop offset="0%" stop-color="#7193FF" stop-opacity="1"/><stop offset="100%" stop-color="#B780FF" stop-opacity="1"/></linearGradient><linearGradient x1="0.5" y1="0" x2="0.5" y2="1" id="master_svg3_46_953"><stop offset="0%" stop-color="#7193FF" stop-opacity="1"/><stop offset="100%" stop-color="#B780FF" stop-opacity="1"/></linearGradient><linearGradient x1="0.5" y1="0" x2="0.5" y2="1" id="master_svg4_46_0183"><stop offset="0%" stop-color="#7193FF" stop-opacity="1"/><stop offset="100%" stop-color="#B780FF" stop-opacity="1"/></linearGradient></defs><g style="mix-blend-mode:passthrough" transform="matrix(0.9986295104026794,-0.052335962653160095,0.052335962653160095,0.9986295104026794,-2.735032553568999,0.8897461815629413)"><g transform="matrix(0.9848077297210693,-0.17367450892925262,0.1736217588186264,0.9848077297210693,-16.283000051478098,63.8921000315047)"><path d="M385.7653353759766,125.0447765180664C381.83943537597656,125.2756665180664,377.86953537597657,125.3477235180664,373.78243537597655,125.4055135180664C364.26057537597654,125.52091251806641,356.78950037597656,133.1379235180664,356.95069532597654,142.3995435180664C357.1412313759766,151.7043435180664,364.9638453759766,159.1338435180664,374.38303537597653,159.0185435180664C378.96813537597654,158.9751435180664,383.46543537597654,158.8165435180664,387.94813537597656,158.5856435180664C397.3819353759766,158.0951435180664,404.5599353759766,150.1607435180664,403.98873537597655,140.87034351806642C403.3586353759766,131.6374535180664,395.2284353759766,124.52538751806641,385.7653353759766,125.0447765180664C385.7653353759766,125.0447765180664,385.7653353759766,125.0447765180664,385.7653353759766,125.0447765180664Z" fill="url(#master_svg0_46_0183)" fill-opacity="1"/></g><g><path d="M233.75356857910157,272.9880728149414C243.19266857910156,225.24477281494143,277.88516857910156,185.79757281494142,325.40066857910153,170.7763728149414C334.3596685791016,167.93797281494142,339.3266685791016,158.37457281494142,336.53866857910157,149.4808728149414C333.73566857910157,140.5580728149414,324.1656685791016,135.6381428149414,315.2056685791016,138.4765798149414C255.68146857910156,157.2973728149414,212.13106857910157,206.7587728149414,200.33893057910157,266.6130728149414C198.53829857910156,275.8270728149414,204.53565857910155,284.6770728149414,213.75696857910157,286.4530728149414C223.00796857910157,288.2140728149414,231.95286857910156,282.1880728149414,233.75356857910157,272.9880728149414Z" fill="url(#master_svg1_46_0183)" fill-opacity="1"/></g><g style="mix-blend-mode:passthrough"><g><path d="M162.44471740722656,313.7855539264679Q162.44471740722656,363.0705539264679,181.46841740722655,408.0555539264679Q199.84791740722656,451.5165539264679,233.37051740722654,485.0435539264679Q266.89271740722654,518.5715539264679,310.34671740722655,536.953553926468Q355.32271740722655,555.9795539264678,404.59871740722656,555.9795539264678Q453.87471740722657,555.9795539264678,498.85071740722657,536.953553926468Q542.3047174072266,518.5715539264679,575.8267174072266,485.0435539264679Q609.3497174072265,451.5165539264679,627.7287174072266,408.0555539264679Q646.7527174072266,363.0705539264679,646.7527174072266,313.7855539264679Q646.7527174072266,264.5005539264679,627.7287174072266,219.5165539264679Q609.3497174072265,176.0555539264679,575.8267174072266,142.5274539264679Q542.3047174072266,108.99985392646789,498.85071740722657,90.6177539264679Q453.87471740722657,71.5915539264679,404.59871740722656,71.5915539264679Q355.32271740722655,71.5915539264679,310.34671740722655,90.6177539264679Q266.89271740722654,108.9999539264679,233.37051740722654,142.5274539264679Q199.84791740722656,176.0555539264679,181.46851740722656,219.5165539264679Q162.44471740722656,264.5005539264679,162.44471740722656,313.7855539264679L162.44471740722656,313.7855539264679ZM132.44471740722656,313.7855539264679Q132.44471740722656,258.4175539264679,153.83765740722657,207.8315539264679Q174.49611740722656,158.98155392646788,212.15561740722654,121.3159539264679Q249.81571740722654,83.6502539264679,298.65871740722656,62.9882939264679Q349.23871740722655,41.591553926467896,404.59871740722656,41.591553926467896Q459.9587174072266,41.591553926467896,510.53871740722656,62.9882939264679Q559.3817174072266,83.6501539264679,597.0417174072265,121.3159539264679Q634.7007174072265,158.98155392646788,655.3597174072265,207.8315539264679Q676.7527174072266,258.4185539264679,676.7527174072266,313.7855539264679Q676.7527174072266,369.1535539264679,655.3597174072265,419.7405539264679Q634.7007174072265,468.5905539264679,597.0417174072265,506.2555539264679Q559.3817174072266,543.9215539264678,510.53871740722656,564.5835539264679Q459.9587174072266,585.9795539264679,404.59871740722656,585.9795539264679Q349.23771740722657,585.9795539264679,298.65871740722656,564.5835539264679Q249.81571740722654,543.9215539264678,212.15561740722654,506.2555539264679Q174.49611740722656,468.5905539264679,153.83763740722657,419.7405539264679Q132.44471740722656,369.1535539264679,132.44471740722656,313.7855539264679L132.44471740722656,313.7855539264679Z" fill="url(#master_svg2_46_953)" fill-opacity="1"/></g><g><path d="M110.27047521972656,322.1266034870148Q65.86517521972655,351.7176034870148,45.28797521972656,380.29360348701476Q26.499775219726562,406.3856034870148,31.752575219726562,425.9926034870148Q36.43287521972656,443.46260348701475,69.40667521972657,455.6346034870148Q105.17847521972656,468.8386034870148,164.44447521972657,471.6746034870148Q223.61847521972658,474.5066034870148,293.42647521972657,466.36860348701475Q365.34347521972654,457.98560348701477,433.9934752197266,439.5886034870148Q504.25947521972654,420.75760348701476,570.2264752197266,394.74060348701477Q636.5704752197265,368.57460348701477,686.2364752197266,339.9926034870148Q737.3064752197265,310.60360348701477,761.8224752197266,283.78660348701476Q784.3454752197266,259.15170348701474,779.8174752197266,242.25280348701477Q774.8294752197265,223.63470348701478,748.0194752197266,210.73480348701477Q718.6014752197266,196.58030348701476,669.4674752197266,192.29180348701476Q669.1004752197266,192.25980348701478,668.7354752197266,192.20980348701477Q668.3714752197266,192.15980348701476,668.0094752197266,192.09200348701478Q667.6474752197265,192.02420348701477,667.2884752197266,191.93870348701478Q666.9304752197265,191.85320348701478,666.5774752197266,191.75020348701477Q666.2234752197265,191.64720348701476,665.8754752197266,191.52710348701476Q665.5274752197265,191.40690348701477,665.1854752197265,191.26970348701477Q664.8444752197265,191.13260348701476,664.5094752197266,190.97890348701478Q664.1744752197266,190.82510348701476,663.8484752197265,190.65520348701477Q663.5214752197265,190.48520348701476,663.2034752197266,190.29940348701476Q662.8854752197266,190.11370348701476,662.5774752197266,189.91250348701476Q662.2684752197266,189.71130348701476,661.9704752197266,189.49530348701478Q661.6724752197266,189.27920348701477,661.3854752197266,189.04880348701477Q661.0984752197265,188.81840348701476,660.8224752197266,188.57410348701478Q660.5464752197265,188.32990348701478,660.2834752197266,188.07240348701478Q660.0204752197266,187.81500348701476,659.7704752197266,187.54490348701478Q659.5194752197266,187.27481348701477,659.2824752197265,186.99278348701478Q659.0464752197265,186.71074348701478,658.8234752197266,186.41744348701476Q658.6004752197266,186.12413348701477,658.3934752197266,185.82025348701478Q658.1844752197266,185.51637348701476,657.9924752197265,185.20265348701477Q657.7994752197266,184.88894348701476,657.6224752197265,184.56614348701476Q657.4454752197265,184.24333348701478,657.2834752197266,183.91223348701476Q657.1224752197265,183.58112348701476,656.9784752197265,183.24251348701478Q656.8334752197266,182.90390348701476,656.7054752197265,182.55860348701478Q656.5774752197266,182.21329348701477,656.4664752197266,181.86213348701477Q656.3554752197266,181.51096348701478,656.2624752197265,181.15479348701476Q656.1694752197266,180.79861348701476,656.0934752197265,180.43828348701476Q656.0174752197265,180.07794348701478,655.9594752197265,179.71432348701478Q655.9014752197265,179.35070348701478,655.8614752197266,178.98467348701476Q655.8214752197266,178.61864348701477,655.7984752197266,178.25107848701478Q655.7764752197265,177.88351648701476,655.7724752197265,177.51530948701478Q655.7684752197266,177.14710348701476,655.7824752197265,176.77913948701476Q655.7964752197265,176.41117548701476,655.8284752197266,176.04434348701477Q655.8604752197266,175.67750348701477,655.9104752197265,175.31268348701477Q655.9604752197266,174.94786348701476,656.0284752197266,174.58593348701476Q656.0964752197266,174.22400348701478,656.1814752197265,173.86583348701478Q656.2674752197265,173.50767348701476,656.3704752197266,173.15413348701478Q656.4734752197265,172.80059348701477,656.5934752197265,172.45253348701476Q656.7134752197265,172.10447348701476,656.8504752197266,171.76272348701477Q656.9874752197265,171.42098348701478,657.1414752197265,171.08637348701478Q657.2954752197265,170.75177348701476,657.4654752197266,170.42511348701478Q657.6354752197266,170.09845348701478,657.8204752197265,169.78053348701476Q658.0064752197266,169.46260348701477,658.2074752197266,169.15417348701476Q658.4084752197266,168.84575348701478,658.6244752197266,168.54757348701477Q658.8404752197266,168.24938348701477,659.0714752197266,167.96216348701478Q659.3014752197265,167.67493348701478,659.5464752197265,167.39936348701477Q659.7904752197265,167.12380348701478,660.0474752197266,166.86050348701477Q660.3054752197265,166.59730348701476,660.5754752197265,166.34700348701477Q660.8454752197266,166.09670348701476,661.1274752197265,165.85990348701478Q661.4094752197266,165.62320348701476,661.7024752197266,165.40050348701476Q661.9964752197266,165.17790348701476,662.3004752197265,164.96990348701476Q662.6034752197265,164.76200348701477,662.9174752197266,164.56920348701476Q663.2314752197266,164.37640348701478,663.5544752197266,164.19920348701476Q663.8764752197266,164.02200348701479,664.2084752197266,163.86090348701478Q664.5394752197266,163.69970348701477,664.8774752197265,163.55510348701478Q665.2164752197266,163.41040348701478,665.5614752197266,163.28250348701476Q665.9064752197265,163.15460348701478,666.2584752197265,163.04380348701477Q666.6094752197266,162.93300348701476,666.9654752197266,162.83950348701478Q667.3214752197266,162.74610348701478,667.6814752197265,162.67030348701476Q668.0424752197266,162.59440348701477,668.4054752197266,162.53630348701478Q668.7694752197266,162.47830348701478,669.1354752197266,162.43810348701476Q669.5014752197266,162.39790348701476,669.8694752197266,162.37580348701476Q670.2364752197266,162.35360348701477,670.6054752197266,162.34950348701477Q670.9734752197265,162.34540348701478,671.3414752197266,162.35940348701476Q671.7094752197265,162.37340348701477,672.0754752197265,162.40540348701478Q726.6694752197266,167.17040348701477,761.0264752197265,183.70129348701477Q800.2444752197266,202.57110348701477,808.7954752197265,234.48950348701476Q817.5764752197266,267.26400348701475,783.9644752197265,304.02960348701475Q756.3054752197265,334.28260348701474,701.2004752197265,365.99460348701473Q649.6244752197266,395.6746034870148,581.2334752197265,422.6486034870148Q513.6764752197266,449.2926034870148,441.75847521972656,468.56560348701476Q370.9934752197266,487.5306034870148,296.90047521972656,496.1676034870148Q224.64547521972656,504.5906034870148,163.01047521972657,501.64060348701474Q99.12687521972656,498.5836034870148,59.01807521972656,483.7786034870148Q11.474015219726564,466.22860348701477,2.774475219726563,433.7566034870148Q-6.160924780273437,400.4036034870148,20.942815219726562,362.76360348701473Q44.700275219726564,329.7706034870148,93.63447521972657,297.16160348701476Q93.94097521972657,296.95760348701475,94.25697521972656,296.7686034870148Q94.57307521972656,296.57960348701477,94.89807521972656,296.40660348701476Q95.22297521972656,296.23360348701476,95.55607521972657,296.0766034870148Q95.88917521972657,295.9196034870148,96.22957521972656,295.7786034870148Q96.56987521972657,295.6386034870148,96.91677521972656,295.51460348701477Q97.26367521972657,295.3916034870148,97.61617521972656,295.2846034870148Q97.96867521972656,295.17860348701475,98.32597521972656,295.08960348701476Q98.68327521972657,295.00060348701476,99.04447521972656,294.92860348701475Q99.40577521972656,294.8576034870148,99.77007521972656,294.80360348701475Q100.13437521972656,294.75060348701476,100.50087521972657,294.71460348701476Q100.86737521972657,294.6796034870148,101.23517521972656,294.66160348701476Q101.60297521972656,294.6436034870148,101.97117521972656,294.64460348701476Q102.33937521972656,294.64460348701476,102.70717521972657,294.66360348701477Q103.07497521972657,294.68160348701474,103.44137521972657,294.7186034870148Q103.80777521972657,294.7546034870148,104.17197521972656,294.8096034870148Q104.53617521972656,294.86360348701476,104.89717521972656,294.93660348701474Q105.25827521972656,295.00860348701474,105.61537521972656,295.09860348701477Q105.97237521972656,295.1886034870148,106.32467521972656,295.2956034870148Q106.67687521972657,295.40260348701474,107.02347521972656,295.52760348701474Q107.36997521972657,295.65160348701477,107.70997521972656,295.79360348701476Q108.05007521972657,295.9346034870148,108.38267521972656,296.0926034870148Q108.71537521972657,296.25060348701476,109.03997521972656,296.4246034870148Q109.36447521972656,296.59860348701477,109.68007521972656,296.78860348701477Q109.99567521972656,296.9776034870148,110.30157521972656,297.1826034870148Q110.60747521972657,297.38760348701476,110.90297521972656,297.6076034870148Q111.19847521972656,297.82760348701476,111.48287521972657,298.06160348701474Q111.76717521972657,298.2946034870148,112.03977521972656,298.5426034870148Q112.31227521972656,298.7906034870148,112.57227521972656,299.05060348701477Q112.83237521972656,299.31160348701474,113.07927521972657,299.58460348701476Q113.32627521972657,299.8576034870148,113.55947521972656,300.14260348701475Q113.79277521972656,300.4276034870148,114.01177521972656,300.72360348701477Q114.23077521972657,301.01960348701476,114.43497521972657,301.3266034870148Q114.63917521972657,301.63260348701476,114.82807521972656,301.9486034870148Q115.01697521972656,302.26460348701477,115.19017521972657,302.58960348701476Q115.36327521972656,302.9146034870148,115.52037521972656,303.24760348701477Q115.67747521972656,303.58060348701474,115.81747521972656,303.92160348701475Q115.95847521972657,304.2616034870148,116.08147521972656,304.60860348701476Q116.20547521972657,304.95560348701474,116.31247521972657,305.3076034870148Q116.41847521972656,305.6606034870148,116.50747521972656,306.01760348701475Q116.59647521972656,306.37560348701476,116.66747521972657,306.7366034870148Q116.73947521972656,307.0976034870148,116.79247521972657,307.46160348701477Q116.84647521972656,307.8266034870148,116.88247521972656,308.19260348701476Q116.91747521972657,308.5596034870148,116.93547521972656,308.92660348701475Q116.95247521972657,309.2946034870148,116.95247521972657,309.66360348701477Q116.95247521972657,310.03160348701476,116.93347521972656,310.39960348701476Q116.91547521972656,310.7666034870148,116.87847521972657,311.13360348701474Q116.84147521972656,311.4996034870148,116.78747521972656,311.86360348701476Q116.73247521972657,312.2276034870148,116.66047521972656,312.58960348701476Q116.58847521972656,312.95060348701475,116.49847521972656,313.3076034870148Q116.40847521972657,313.6646034870148,116.30147521972657,314.0166034870148Q116.19347521972657,314.36860348701475,116.06947521972656,314.71560348701473Q115.94447521972656,315.06160348701474,115.80347521972656,315.40160348701477Q115.66247521972656,315.7416034870148,115.50437521972657,316.07460348701477Q115.34647521972656,316.40760348701474,115.17247521972656,316.7316034870148Q114.99847521972656,317.05660348701474,114.80877521972656,317.3716034870148Q114.61907521972657,317.68760348701477,114.41417521972656,317.99360348701475Q114.20917521972656,318.2996034870148,113.98947521972656,318.59460348701475Q113.76977521972657,318.8906034870148,113.53577521972656,319.1746034870148Q113.30187521972657,319.45960348701476,113.05417521972656,319.7316034870148Q112.80657521972657,320.0046034870148,112.54587521972657,320.26460348701477Q112.28517521972657,320.52460348701476,112.01197521972657,320.7716034870148Q111.73887521972657,321.01860348701473,111.45397521972656,321.2516034870148Q111.16897521972656,321.48460348701474,110.87297521972656,321.7036034870148Q110.57687521972656,321.9226034870148,110.27047521972656,322.1266034870148ZM116.95247521972657,309.64460348701476Q116.95247521972657,310.01260348701476,116.93447521972656,310.3806034870148Q116.91647521972656,310.74860348701475,116.88047521972656,311.11460348701473Q116.84447521972656,311.4816034870148,116.79047521972656,311.8456034870148Q116.73647521972656,312.20960348701476,116.66447521972657,312.57060348701475Q116.59247521972657,312.93160348701474,116.50247521972656,313.2896034870148Q116.41347521972656,313.6466034870148,116.30647521972656,313.99860348701475Q116.19947521972657,314.3506034870148,116.07547521972656,314.69760348701476Q115.95147521972656,315.0446034870148,115.81047521972656,315.3846034870148Q115.66947521972656,315.72460348701475,115.51237521972656,316.0576034870148Q115.35487521972657,316.3906034870148,115.18127521972656,316.71560348701473Q115.00777521972657,317.0406034870148,114.81837521972656,317.3556034870148Q114.62907521972656,317.67160348701475,114.42457521972656,317.9776034870148Q114.21997521972656,318.2846034870148,114.00057521972656,318.57960348701477Q113.78127521972657,318.87560348701476,113.54767521972656,319.1606034870148Q113.31407521972656,319.4446034870148,113.06677521972657,319.7176034870148Q112.81947521972656,319.99060348701477,112.55907521972657,320.25060348701476Q112.29867521972656,320.5116034870148,112.02587521972656,320.75860348701474Q111.75307521972657,321.0056034870148,111.46837521972657,321.23960348701473Q111.18377521972656,321.47360348701477,110.88797521972656,321.69260348701476Q110.59217521972656,321.91160348701476,110.28607521972656,322.1166034870148Q109.97987521972657,322.32060348701475,109.66397521972657,322.5106034870148Q109.34817521972656,322.69960348701477,109.02347521972656,322.87360348701475Q108.69867521972657,323.04660348701475,108.36577521972656,323.20460348701477Q108.03297521972657,323.3616034870148,107.69277521972656,323.50260348701477Q107.35257521972656,323.64360348701473,107.00587521972656,323.76760348701475Q106.65917521972656,323.8916034870148,106.30677521972656,323.99860348701475Q105.95437521972656,324.1056034870148,105.59717521972657,324.1946034870148Q105.23997521972656,324.2846034870148,104.87887521972657,324.3566034870148Q104.51767521972656,324.4276034870148,104.15347521972656,324.4816034870148Q103.78917521972656,324.53660348701476,103.42277521972656,324.57260348701476Q103.05627521972656,324.60860348701476,102.68847521972656,324.6266034870148Q102.32077521972656,324.64460348701476,101.95247521972657,324.64460348701476Q101.58427521972656,324.64460348701476,101.21647521972656,324.6266034870148Q100.84867521972656,324.60860348701476,100.48227521972656,324.57260348701476Q100.11577521972656,324.53660348701476,99.75157521972656,324.4816034870148Q99.38727521972656,324.4276034870148,99.02617521972657,324.3566034870148Q98.66497521972656,324.2846034870148,98.30777521972657,324.1946034870148Q97.95057521972656,324.1056034870148,97.59827521972656,323.99860348701475Q97.24587521972656,323.8916034870148,96.89917521972656,323.76760348701475Q96.55247521972656,323.64360348701473,96.21227521972656,323.50260348701477Q95.87207521972657,323.3616034870148,95.53917521972656,323.20460348701477Q95.20627521972656,323.04660348701475,94.88157521972656,322.87360348701475Q94.55677521972656,322.69960348701477,94.24097521972656,322.5106034870148Q93.92507521972657,322.32060348701475,93.61897521972656,322.1166034870148Q93.31277521972656,321.91160348701476,93.01697521972656,321.69260348701476Q92.72127521972656,321.47360348701477,92.43657521972656,321.23960348701473Q92.15197521972657,321.0056034870148,91.87907521972656,320.75860348701474Q91.60627521972657,320.5116034870148,91.34587521972657,320.25060348701476Q91.08557521972656,319.99060348701477,90.83827521972657,319.7176034870148Q90.59097521972656,319.4446034870148,90.35737521972656,319.1606034870148Q90.12377521972657,318.87560348701476,89.90437521972656,318.57960348701477Q89.68507521972656,318.2846034870148,89.48047521972656,317.9776034870148Q89.27587521972656,317.67160348701475,89.08657521972657,317.3556034870148Q88.89727521972657,317.0406034870148,88.72367521972656,316.71560348701473Q88.55007521972657,316.3906034870148,88.39267521972656,316.0576034870148Q88.23517521972656,315.72460348701475,88.09427521972657,315.3846034870148Q87.95337521972657,315.0446034870148,87.82937521972656,314.69760348701476Q87.70527521972656,314.3506034870148,87.59837521972656,313.99860348701475Q87.49147521972657,313.6466034870148,87.40197521972657,313.2896034870148Q87.31257521972657,312.93160348701474,87.24067521972657,312.57060348701475Q87.16887521972656,312.20960348701476,87.11487521972656,311.8456034870148Q87.06077521972657,311.4816034870148,87.02477521972656,311.11460348701473Q86.98867521972656,310.74860348701475,86.97057521972657,310.3806034870148Q86.95247521972657,310.01260348701476,86.95247521972657,309.64460348701476Q86.95247521972657,309.27660348701477,86.97057521972657,308.9086034870148Q86.98867521972656,308.5406034870148,87.02477521972656,308.1746034870148Q87.06077521972657,307.8076034870148,87.11487521972656,307.4436034870148Q87.16887521972656,307.07960348701477,87.24067521972657,306.7176034870148Q87.31257521972657,306.3566034870148,87.40207521972657,305.9996034870148Q87.49147521972657,305.64260348701475,87.59837521972656,305.2906034870148Q87.70527521972656,304.93760348701477,87.82937521972656,304.5906034870148Q87.95337521972657,304.2446034870148,88.09427521972657,303.90460348701475Q88.23517521972656,303.5636034870148,88.39267521972656,303.23160348701475Q88.55007521972657,302.8986034870148,88.72367521972656,302.5736034870148Q88.89727521972657,302.24860348701475,89.08657521972657,301.9326034870148Q89.27587521972656,301.6166034870148,89.48047521972656,301.31060348701476Q89.68507521972656,301.0046034870148,89.90437521972656,300.7086034870148Q90.12377521972657,300.41360348701477,90.35737521972656,300.12860348701474Q90.59097521972656,299.8436034870148,90.83827521972657,299.57060348701475Q91.08557521972656,299.29860348701476,91.34587521972657,299.03760348701474Q91.60627521972657,298.77760348701474,91.87907521972656,298.5306034870148Q92.15197521972657,298.28260348701474,92.43657521972656,298.0496034870148Q92.72127521972656,297.81560348701476,93.01697521972656,297.59660348701476Q93.31277521972656,297.3766034870148,93.61897521972656,297.1726034870148Q93.92507521972657,296.9676034870148,94.24097521972656,296.7786034870148Q94.55677521972656,296.58960348701476,94.88157521972656,296.4156034870148Q95.20627521972656,296.2416034870148,95.53917521972656,296.08460348701476Q95.87207521972657,295.9276034870148,96.21227521972656,295.78660348701476Q96.55247521972656,295.6456034870148,96.89917521972656,295.5216034870148Q97.24587521972656,295.39760348701475,97.59827521972656,295.2906034870148Q97.95057521972656,295.18360348701475,98.30777521972657,295.0936034870148Q98.66497521972656,295.0046034870148,99.02617521972657,294.9326034870148Q99.38727521972656,294.86060348701477,99.75157521972656,294.80660348701474Q100.11577521972656,294.75260348701477,100.48227521972656,294.71660348701477Q100.84867521972656,294.68060348701476,101.21647521972656,294.66260348701474Q101.58427521972656,294.64460348701476,101.95247521972657,294.64460348701476Q102.32077521972656,294.64460348701476,102.68847521972656,294.66260348701474Q103.05627521972656,294.68060348701476,103.42277521972656,294.71660348701477Q103.78917521972656,294.75260348701477,104.15347521972656,294.80660348701474Q104.51767521972656,294.86060348701477,104.87887521972657,294.9326034870148Q105.23997521972656,295.0046034870148,105.59717521972657,295.0936034870148Q105.95437521972656,295.18360348701475,106.30677521972656,295.2906034870148Q106.65917521972656,295.39760348701475,107.00587521972656,295.5216034870148Q107.35257521972656,295.6456034870148,107.69277521972656,295.78660348701476Q108.03297521972657,295.9276034870148,108.36577521972656,296.08460348701476Q108.69867521972657,296.2416034870148,109.02347521972656,296.4156034870148Q109.34817521972656,296.58960348701476,109.66397521972657,296.7786034870148Q109.97987521972657,296.9676034870148,110.28607521972656,297.1726034870148Q110.59217521972656,297.3766034870148,110.88797521972656,297.59660348701476Q111.18377521972656,297.81560348701476,111.46837521972657,298.0496034870148Q111.75307521972657,298.28260348701474,112.02587521972656,298.5306034870148Q112.29867521972656,298.77760348701474,112.55907521972657,299.03760348701474Q112.81947521972656,299.29860348701476,113.06677521972657,299.57060348701475Q113.31407521972656,299.8436034870148,113.54767521972656,300.12860348701474Q113.78127521972657,300.41360348701477,114.00057521972656,300.7086034870148Q114.21997521972656,301.0046034870148,114.42457521972656,301.31060348701476Q114.62907521972656,301.6166034870148,114.81837521972656,301.9326034870148Q115.00777521972657,302.24860348701475,115.18127521972656,302.5736034870148Q115.35487521972657,302.8986034870148,115.51237521972656,303.2306034870148Q115.66947521972656,303.5636034870148,115.81047521972656,303.90460348701475Q115.95147521972656,304.2446034870148,116.07547521972656,304.5906034870148Q116.19947521972657,304.93760348701477,116.30647521972656,305.2906034870148Q116.41347521972656,305.64260348701475,116.50247521972656,305.9996034870148Q116.59247521972657,306.3566034870148,116.66447521972657,306.7176034870148Q116.73647521972656,307.07960348701477,116.79047521972656,307.4436034870148Q116.84447521972656,307.8076034870148,116.88047521972656,308.1746034870148Q116.91647521972656,308.5406034870148,116.93447521972656,308.9086034870148Q116.95247521972657,309.27660348701477,116.95247521972657,309.64460348701476ZM685.7714752197265,177.34860348701477Q685.7714752197265,177.71683248701478,685.7534752197265,178.08461848701478Q685.7354752197266,178.45240348701478,685.6994752197265,178.81886348701477Q685.6634752197266,179.18531348701478,685.6094752197266,179.54956348701478Q685.5554752197265,179.91380348701477,685.4834752197265,180.27495348701478Q685.4114752197265,180.63611348701477,685.3224752197266,180.99330348701477Q685.2324752197266,181.35050348701478,685.1254752197266,181.70287348701476Q685.0184752197266,182.05524348701476,684.8944752197266,182.40195348701477Q684.7704752197266,182.74865348701476,684.6294752197266,183.08885348701477Q684.4884752197265,183.42905348701478,684.3314752197266,183.76193348701477Q684.1744752197266,184.09480348701476,684.0004752197266,184.41955348701478Q683.8264752197266,184.74430348701478,683.6374752197265,185.06014348701478Q683.4484752197266,185.37598348701476,683.2434752197265,185.68215348701477Q683.0394752197266,185.98832348701478,682.8194752197265,186.28409348701476Q682.6004752197266,186.57985348701476,682.3664752197266,186.86450348701476Q682.1334752197265,187.14914348701478,681.8854752197266,187.42200348701476Q681.6384752197266,187.69480348701478,681.3784752197265,187.95520348701478Q681.1174752197265,188.21560348701476,680.8454752197266,188.46290348701478Q680.5724752197266,188.71020348701478,680.2874752197266,188.94380348701478Q680.0024752197265,189.17740348701477,679.7074752197266,189.39670348701478Q679.4114752197265,189.61610348701478,679.1054752197266,189.82060348701478Q678.7984752197266,190.02520348701478,678.4834752197265,190.21450348701478Q678.1674752197266,190.40380348701478,677.8424752197266,190.57740348701478Q677.5174752197265,190.75100348701477,677.1844752197266,190.90840348701477Q676.8514752197266,191.06590348701477,676.5114752197265,191.20680348701478Q676.1714752197265,191.34770348701477,675.8244752197265,191.47180348701477Q675.4784752197265,191.59580348701476,675.1254752197266,191.70270348701476Q674.7734752197266,191.80960348701478,674.4164752197265,191.89910348701477Q674.0594752197266,191.98850348701478,673.6974752197266,192.06040348701478Q673.3364752197266,192.13220348701478,672.9724752197266,192.18620348701478Q672.6084752197265,192.24030348701478,672.2414752197266,192.27640348701476Q671.8754752197266,192.31250348701477,671.5074752197265,192.33050348701477Q671.1394752197266,192.34860348701477,670.7714752197265,192.34860348701477Q670.4034752197266,192.34860348701477,670.0354752197265,192.33050348701477Q669.6674752197266,192.31250348701477,669.3014752197265,192.27640348701476Q668.9344752197266,192.24030348701478,668.5704752197265,192.18620348701478Q668.2064752197266,192.13220348701478,667.8454752197266,192.06040348701478Q667.4844752197266,191.98850348701478,667.1264752197266,191.89910348701477Q666.7694752197266,191.80960348701478,666.4174752197266,191.70270348701476Q666.0644752197265,191.59580348701476,665.7184752197265,191.47180348701477Q665.3714752197266,191.34770348701477,665.0314752197265,191.20680348701478Q664.6914752197266,191.06590348701477,664.3584752197265,190.90840348701477Q664.0254752197266,190.75100348701477,663.7004752197265,190.57740348701478Q663.3754752197266,190.40380348701478,663.0604752197265,190.21450348701478Q662.7444752197266,190.02520348701478,662.4384752197266,189.82060348701478Q662.1314752197266,189.61610348701478,661.8364752197266,189.39670348701478Q661.5404752197265,189.17740348701477,661.2554752197266,188.94380348701478Q660.9714752197266,188.71020348701478,660.6984752197266,188.46290348701478Q660.4254752197265,188.21560348701476,660.1654752197265,187.95520348701478Q659.9044752197266,187.69480348701478,659.6574752197265,187.42200348701476Q659.4104752197265,187.14914348701478,659.1764752197265,186.86450348701476Q658.9424752197266,186.57985348701476,658.7234752197265,186.28409348701476Q658.5044752197266,185.98832348701478,658.2994752197266,185.68215348701477Q658.0944752197265,185.37598348701476,657.9054752197266,185.06014348701478Q657.7164752197266,184.74430348701478,657.5424752197266,184.41955348701478Q657.3694752197266,184.09480348701476,657.2114752197266,183.76193348701477Q657.0544752197266,183.42905348701478,656.9134752197266,183.08885348701477Q656.7724752197265,182.74865348701476,656.6484752197266,182.40195348701477Q656.5244752197266,182.05524348701476,656.4174752197266,181.70287348701476Q656.3104752197265,181.35050348701478,656.2214752197266,180.99330348701477Q656.1314752197266,180.63611348701477,656.0594752197266,180.27495348701478Q655.9884752197265,179.91380348701477,655.9334752197266,179.54956348701478Q655.8794752197266,179.18531348701478,655.8434752197265,178.81886348701477Q655.8074752197266,178.45240348701478,655.7894752197266,178.08461848701478Q655.7714752197265,177.71683248701478,655.7714752197265,177.34860348701477Q655.7714752197265,176.98037448701476,655.7894752197266,176.61258848701476Q655.8074752197266,176.24480348701476,655.8434752197265,175.87834348701477Q655.8794752197266,175.51189348701476,655.9334752197266,175.14764348701476Q655.9884752197265,174.78340348701477,656.0594752197266,174.42225348701476Q656.1314752197266,174.06109348701477,656.2214752197266,173.70390348701477Q656.3104752197265,173.34670348701476,656.4174752197266,172.99433348701479Q656.5244752197266,172.64196348701478,656.6484752197266,172.29525348701478Q656.7724752197265,171.94855348701478,656.9134752197266,171.60835348701477Q657.0544752197266,171.26815348701476,657.2114752197266,170.93527348701477Q657.3694752197266,170.60240348701478,657.5424752197266,170.27765348701476Q657.7164752197266,169.95290348701477,657.9054752197266,169.63706348701476Q658.0944752197265,169.32122348701478,658.2994752197266,169.01505348701477Q658.5044752197266,168.70888348701476,658.7234752197265,168.41311348701478Q658.9424752197266,168.11735348701478,659.1764752197265,167.83270348701478Q659.4104752197265,167.54806348701476,659.6574752197265,167.27520348701478Q659.9044752197266,167.00240348701476,660.1654752197265,166.74200348701476Q660.4254752197265,166.48160348701478,660.6984752197266,166.23430348701476Q660.9714752197266,165.98700348701476,661.2554752197266,165.75340348701477Q661.5404752197265,165.51980348701477,661.8364752197266,165.30050348701477Q662.1314752197266,165.08110348701476,662.4384752197266,164.87660348701476Q662.7444752197266,164.67200348701476,663.0604752197265,164.48270348701476Q663.3754752197266,164.29340348701476,663.7004752197265,164.11980348701476Q664.0254752197266,163.94620348701477,664.3584752197265,163.78880348701477Q664.6914752197266,163.63130348701478,665.0314752197265,163.49040348701476Q665.3714752197266,163.34950348701477,665.7184752197265,163.22540348701477Q666.0644752197265,163.10140348701478,666.4174752197266,162.99450348701478Q666.7694752197266,162.88760348701476,667.1264752197266,162.79810348701477Q667.4844752197266,162.70870348701476,667.8454752197266,162.63680348701476Q668.2064752197266,162.56500348701476,668.5704752197265,162.51100348701476Q668.9344752197266,162.45690348701476,669.3014752197265,162.42080348701478Q669.6674752197266,162.38470348701478,670.0354752197265,162.36670348701477Q670.4034752197266,162.34860348701477,670.7714752197265,162.34860348701477Q671.1394752197266,162.34860348701477,671.5074752197265,162.36670348701477Q671.8754752197266,162.38470348701478,672.2414752197266,162.42080348701478Q672.6084752197265,162.45690348701476,672.9724752197266,162.51100348701476Q673.3364752197266,162.56500348701476,673.6984752197266,162.63680348701476Q674.0594752197266,162.70870348701476,674.4164752197265,162.79810348701477Q674.7734752197266,162.88760348701476,675.1264752197266,162.99450348701478Q675.4784752197265,163.10140348701478,675.8244752197265,163.22540348701477Q676.1714752197265,163.34950348701477,676.5114752197265,163.49040348701476Q676.8524752197266,163.63130348701478,677.1844752197266,163.78880348701477Q677.5174752197265,163.94620348701477,677.8424752197266,164.11980348701476Q678.1674752197266,164.29340348701476,678.4834752197265,164.48270348701476Q678.7994752197266,164.67200348701476,679.1054752197266,164.87660348701476Q679.4114752197265,165.08110348701476,679.7074752197266,165.30050348701477Q680.0024752197265,165.51980348701477,680.2874752197266,165.75340348701477Q680.5724752197266,165.98700348701476,680.8454752197266,166.23430348701476Q681.1174752197265,166.48160348701478,681.3784752197265,166.74200348701476Q681.6384752197266,167.00240348701476,681.8854752197266,167.27520348701478Q682.1334752197265,167.54806348701476,682.3664752197266,167.83270348701478Q682.6004752197266,168.11735348701478,682.8194752197265,168.41311348701478Q683.0394752197266,168.70888348701476,683.2434752197265,169.01505348701477Q683.4484752197266,169.32122348701478,683.6374752197265,169.63706348701476Q683.8264752197266,169.95290348701477,684.0004752197266,170.27765348701476Q684.1744752197266,170.60240348701478,684.3314752197266,170.93527348701477Q684.4884752197265,171.26815348701476,684.6294752197266,171.60835348701477Q684.7704752197266,171.94855348701478,684.8944752197266,172.29525348701478Q685.0184752197266,172.64196348701478,685.1254752197266,172.99433348701479Q685.2324752197266,173.34670348701476,685.3224752197266,173.70390348701477Q685.4114752197265,174.06109348701477,685.4834752197265,174.42225348701476Q685.5554752197265,174.78340348701477,685.6094752197266,175.14764348701476Q685.6634752197266,175.51189348701476,685.6994752197265,175.87834348701477Q685.7354752197266,176.24480348701476,685.7534752197265,176.61258848701476Q685.7714752197265,176.98037448701476,685.7714752197265,177.34860348701477Z" fill="url(#master_svg3_46_953)" fill-opacity="1"/></g></g><g style="mix-blend-mode:passthrough"><ellipse cx="638.706787109375" cy="82.09297180175781" rx="29.420150756835938" ry="29.424758911132812" fill="url(#master_svg4_46_0183)" fill-opacity="1"/></g></g></svg>