<svg xmlns="http://www.w3.org/2000/svg" xmlns:xlink="http://www.w3.org/1999/xlink" fill="none" version="1.1" width="879.4749145507812" height="628.075927734375" viewBox="0 0 879.4749145507812 628.075927734375"><defs><filter id="master_svg0_46_823" filterUnits="objectBoundingBox" color-interpolation-filters="sRGB" x="-36.43144226074219" y="-69.6929931640625" width="879.4749145507812" height="628.075927734375"><feFlood flood-opacity="0" result="BackgroundImageFix"/><feColorMatrix in="SourceAlpha" type="matrix" values="0 0 0 0 0 0 0 0 0 0 0 0 0 0 0 0 0 0 127 0"/><feOffset dy="4" dx="0"/><feGaussianBlur stdDeviation="5"/><feColorMatrix type="matrix" values="0 0 0 0 0 0 0 0 0 0 0 0 0 0 0 0 0 0 0.3019607961177826 0"/><feBlend mode="normal" in2="BackgroundImageFix" result="effect1_dropShadow"/><feBlend mode="normal" in="SourceGraphic" in2="effect1_dropShadow" result="shape"/></filter><linearGradient x1="0.5" y1="0" x2="0.5" y2="1" id="master_svg1_46_0183"><stop offset="0%" stop-color="#7193FF" stop-opacity="1"/><stop offset="100%" stop-color="#B780FF" stop-opacity="1"/></linearGradient><linearGradient x1="0.5" y1="0" x2="0.5" y2="1" id="master_svg2_46_0183"><stop offset="0%" stop-color="#7193FF" stop-opacity="1"/><stop offset="100%" stop-color="#B780FF" stop-opacity="1"/></linearGradient><linearGradient x1="0.5" y1="0" x2="0.5" y2="1" id="master_svg3_46_953"><stop offset="0%" stop-color="#7193FF" stop-opacity="1"/><stop offset="100%" stop-color="#B780FF" stop-opacity="1"/></linearGradient><linearGradient x1="0.5" y1="0" x2="0.5" y2="1" id="master_svg4_46_953"><stop offset="0%" stop-color="#7193FF" stop-opacity="1"/><stop offset="100%" stop-color="#B780FF" stop-opacity="1"/></linearGradient><linearGradient x1="0.5" y1="0" x2="0.5" y2="1" id="master_svg5_46_0183"><stop offset="0%" stop-color="#7193FF" stop-opacity="1"/><stop offset="100%" stop-color="#B780FF" stop-opacity="1"/></linearGradient></defs><g style="mix-blend-mode:passthrough" transform="matrix(0.9986295104026794,-0.052335962653160095,0.052335962653160095,0.9986295104026794,-3.597520974787585,2.002188123696442)" filter="url(#master_svg0_46_823)"><g transform="matrix(0.9848077297210693,-0.17367450892925262,0.1736217588186264,0.9848077297210693,-18.922721702270223,67.76490590154049)"><path d="M406.5753024169922,142.0695567915039C402.6494024169922,142.3004467915039,398.6795024169922,142.3725037915039,394.5924024169922,142.4302937915039C385.07054241699217,142.5456927915039,377.5994674169922,150.1627037915039,377.76066236699216,159.4243237915039C377.9511984169922,168.7291237915039,385.7738124169922,176.1586237915039,395.19300241699216,176.0433237915039C399.77810241699217,175.9999237915039,404.27540241699216,175.8413237915039,408.7581024169922,175.6104237915039C418.1919024169922,175.1199237915039,425.3699024169922,167.1855237915039,424.79870241699217,157.89512379150392C424.1686024169922,148.6622337915039,416.0384024169922,141.5501677915039,406.5753024169922,142.0695567915039C406.5753024169922,142.0695567915039,406.5753024169922,142.0695567915039,406.5753024169922,142.0695567915039Z" fill="url(#master_svg1_46_0183)" fill-opacity="1"/></g><g><path d="M254.5635356201172,290.0128530883789C264.0026356201172,242.26955308837893,298.6951356201172,202.82235308837892,346.21063562011716,187.8011530883789C355.1696356201172,184.96275308837892,360.1366356201172,175.39935308837892,357.3486356201172,166.5056530883789C354.5456356201172,157.5828530883789,344.9756356201172,152.6629230883789,336.0156356201172,155.5013600883789C276.49143562011716,174.3221530883789,232.9410356201172,223.7835530883789,221.1488976201172,283.6378530883789C219.3482656201172,292.8518530883789,225.34562562011718,301.7018530883789,234.5669356201172,303.4778530883789C243.8179356201172,305.2388530883789,252.7628356201172,299.2128530883789,254.5635356201172,290.0128530883789Z" fill="url(#master_svg2_46_0183)" fill-opacity="1"/></g><g style="mix-blend-mode:passthrough"><g><path d="M183.2546844482422,330.8103341999054Q183.2546844482422,380.0953341999054,202.27838444824218,425.0803341999054Q220.65788444824219,468.5413341999054,254.18048444824217,502.0683341999054Q287.70268444824217,535.5963341999054,331.1566844482422,553.9783341999055Q376.1326844482422,573.0043341999053,425.4086844482422,573.0043341999053Q474.6846844482422,573.0043341999053,519.6606844482421,553.9783341999055Q563.1146844482422,535.5963341999054,596.6366844482422,502.0683341999054Q630.1596844482422,468.5413341999054,648.5386844482422,425.0803341999054Q667.5626844482422,380.0953341999054,667.5626844482422,330.8103341999054Q667.5626844482422,281.5253341999054,648.5386844482422,236.5413341999054Q630.1596844482422,193.0803341999054,596.6366844482422,159.5522341999054Q563.1146844482422,126.02463419990539,519.6606844482421,107.6425341999054Q474.6846844482422,88.6163341999054,425.4086844482422,88.6163341999054Q376.1326844482422,88.6163341999054,331.1566844482422,107.6425341999054Q287.70268444824217,126.0247341999054,254.18048444824217,159.5522341999054Q220.65788444824219,193.0803341999054,202.27848444824218,236.5413341999054Q183.2546844482422,281.5253341999054,183.2546844482422,330.8103341999054L183.2546844482422,330.8103341999054ZM153.2546844482422,330.8103341999054Q153.2546844482422,275.4423341999054,174.6476244482422,224.8563341999054Q195.3060844482422,176.00633419990538,232.96558444824217,138.3407341999054Q270.62568444824217,100.6750341999054,319.4686844482422,80.01307419990539Q370.04868444824217,58.616334199905396,425.4086844482422,58.616334199905396Q480.7686844482422,58.616334199905396,531.3486844482422,80.01307419990539Q580.1916844482422,100.6749341999054,617.8516844482422,138.3407341999054Q655.5106844482422,176.00633419990538,676.1696844482422,224.8563341999054Q697.5626844482422,275.4433341999054,697.5626844482422,330.8103341999054Q697.5626844482422,386.1783341999054,676.1696844482422,436.7653341999054Q655.5106844482422,485.6153341999054,617.8516844482422,523.2803341999054Q580.1916844482422,560.9463341999053,531.3486844482422,581.6083341999054Q480.7686844482422,603.0043341999054,425.4086844482422,603.0043341999054Q370.0476844482422,603.0043341999054,319.4686844482422,581.6083341999054Q270.62568444824217,560.9463341999053,232.96558444824217,523.2803341999054Q195.3060844482422,485.6153341999054,174.6476044482422,436.7653341999054Q153.2546844482422,386.1783341999054,153.2546844482422,330.8103341999054L153.2546844482422,330.8103341999054Z" fill="url(#master_svg3_46_953)" fill-opacity="1"/></g><g><path d="M131.0804422607422,339.1513837604523Q86.67514226074218,368.7423837604523,66.09794226074219,397.31838376045226Q47.30974226074218,423.4103837604523,52.56254226074219,443.0173837604523Q57.24284226074219,460.48738376045225,90.21664226074219,472.6593837604523Q125.98844226074219,485.8633837604523,185.2544422607422,488.6993837604523Q244.4284422607422,491.5313837604523,314.2364422607422,483.39338376045225Q386.15344226074217,475.01038376045227,454.8034422607422,456.6133837604523Q525.0694422607421,437.78238376045226,591.0364422607422,411.76538376045227Q657.3804422607421,385.59938376045227,707.0464422607422,357.0173837604523Q758.1164422607421,327.62838376045227,782.6324422607422,300.81138376045226Q805.1554422607422,276.17648376045224,800.6274422607422,259.2775837604523Q795.6394422607422,240.65948376045228,768.8294422607422,227.75958376045227Q739.4114422607422,213.60508376045226,690.2774422607422,209.31658376045226Q689.9104422607422,209.28458376045228,689.5454422607422,209.23458376045227Q689.1814422607422,209.18458376045226,688.8194422607422,209.11678376045228Q688.4574422607421,209.04898376045227,688.0984422607422,208.96348376045228Q687.7404422607422,208.87798376045228,687.3874422607422,208.77498376045227Q687.0334422607422,208.67198376045226,686.6854422607422,208.55188376045226Q686.3374422607421,208.43168376045227,685.9954422607422,208.29448376045227Q685.6544422607421,208.15738376045226,685.3194422607422,208.00368376045228Q684.9844422607422,207.84988376045226,684.6584422607422,207.67998376045227Q684.3314422607422,207.50998376045226,684.0134422607422,207.32418376045226Q683.6954422607422,207.13848376045226,683.3874422607422,206.93728376045226Q683.0784422607422,206.73608376045226,682.7804422607422,206.52008376045228Q682.4824422607422,206.30398376045227,682.1954422607422,206.07358376045227Q681.9084422607422,205.84318376045226,681.6324422607422,205.59888376045228Q681.3564422607421,205.35468376045228,681.0934422607422,205.09718376045228Q680.8304422607422,204.83978376045226,680.5804422607422,204.56968376045228Q680.3294422607422,204.29959376045227,680.0924422607421,204.01756376045228Q679.8564422607421,203.73552376045228,679.6334422607422,203.44222376045226Q679.4104422607422,203.14891376045227,679.2034422607422,202.84503376045228Q678.9944422607422,202.54115376045226,678.8024422607422,202.22743376045227Q678.6094422607422,201.91372376045226,678.4324422607422,201.59092376045226Q678.2554422607421,201.26811376045228,678.0934422607422,200.93701376045226Q677.9324422607422,200.60590376045226,677.7884422607422,200.26729376045228Q677.6434422607422,199.92868376045226,677.5154422607421,199.58338376045228Q677.3874422607422,199.23807376045227,677.2764422607422,198.88691376045227Q677.1654422607422,198.53574376045228,677.0724422607422,198.17957376045226Q676.9794422607422,197.82339376045226,676.9034422607422,197.46306376045226Q676.8274422607421,197.10272376045228,676.7694422607422,196.73910376045228Q676.7114422607422,196.37548376045228,676.6714422607422,196.00945376045226Q676.6314422607422,195.64342376045227,676.6084422607422,195.27585876045228Q676.5864422607422,194.90829676045226,676.5824422607421,194.54008976045228Q676.5784422607422,194.17188376045226,676.5924422607421,193.80391976045226Q676.6064422607421,193.43595576045226,676.6384422607422,193.06912376045227Q676.6704422607422,192.70228376045227,676.7204422607422,192.33746376045227Q676.7704422607422,191.97264376045226,676.8384422607422,191.61071376045226Q676.9064422607422,191.24878376045228,676.9914422607421,190.89061376045228Q677.0774422607421,190.53245376045226,677.1804422607422,190.17891376045228Q677.2834422607422,189.82537376045227,677.4034422607422,189.47731376045226Q677.5234422607422,189.12925376045226,677.6604422607422,188.78750376045227Q677.7974422607422,188.44576376045228,677.9514422607422,188.11115376045228Q678.1054422607422,187.77655376045226,678.2754422607422,187.44989376045228Q678.4454422607422,187.12323376045228,678.6304422607421,186.80531376045226Q678.8164422607422,186.48738376045227,679.0174422607422,186.17895376045226Q679.2184422607422,185.87053376045228,679.4344422607422,185.57235376045227Q679.6504422607422,185.27416376045227,679.8814422607422,184.98694376045228Q680.1114422607421,184.69971376045228,680.3564422607421,184.42414376045227Q680.6004422607422,184.14858376045228,680.8574422607422,183.88528376045227Q681.1154422607422,183.62208376045226,681.3854422607421,183.37178376045227Q681.6554422607422,183.12148376045226,681.9374422607422,182.88468376045228Q682.2194422607422,182.64798376045226,682.5124422607422,182.42528376045226Q682.8064422607422,182.20268376045226,683.1104422607422,181.99468376045226Q683.4134422607422,181.78678376045227,683.7274422607422,181.59398376045226Q684.0414422607422,181.40118376045228,684.3644422607422,181.22398376045226Q684.6864422607422,181.04678376045229,685.0184422607422,180.88568376045228Q685.3494422607422,180.72448376045227,685.6874422607422,180.57988376045228Q686.0264422607422,180.43518376045228,686.3714422607422,180.30728376045226Q686.7164422607422,180.17938376045228,687.0684422607421,180.06858376045227Q687.4194422607422,179.95778376045226,687.7754422607422,179.86428376045228Q688.1314422607422,179.77088376045228,688.4914422607421,179.69508376045226Q688.8524422607422,179.61918376045227,689.2154422607422,179.56108376045228Q689.5794422607422,179.50308376045228,689.9454422607422,179.46288376045226Q690.3114422607422,179.42268376045226,690.6794422607422,179.40058376045226Q691.0464422607422,179.37838376045227,691.4154422607422,179.37428376045227Q691.7834422607422,179.37018376045228,692.1514422607422,179.38418376045226Q692.5194422607422,179.39818376045227,692.8854422607421,179.43018376045228Q747.4794422607422,184.19518376045227,781.8364422607422,200.72607376045227Q821.0544422607422,219.59588376045227,829.6054422607422,251.51428376045226Q838.3864422607422,284.28878376045225,804.7744422607421,321.05438376045225Q777.1154422607422,351.30738376045224,722.0104422607421,383.01938376045223Q670.4344422607422,412.6993837604523,602.0434422607422,439.6733837604523Q534.4864422607423,466.3173837604523,462.5684422607422,485.59038376045226Q391.8034422607422,504.5553837604523,317.7104422607422,513.1923837604522Q245.4554422607422,521.6153837604522,183.8204422607422,518.6653837604522Q119.93684226074218,515.6083837604523,79.8280422607422,500.8033837604523Q32.283982260742185,483.25338376045227,23.584442260742186,450.7813837604523Q14.649042260742188,417.4283837604523,41.75278226074219,379.78838376045223Q65.51024226074219,346.7953837604523,114.44444226074219,314.18638376045226Q114.75094226074219,313.98238376045225,115.06694226074218,313.7933837604523Q115.38304226074219,313.60438376045227,115.70804226074219,313.43138376045226Q116.03294226074219,313.25838376045226,116.36604226074219,313.1013837604523Q116.69914226074219,312.9443837604523,117.03954226074218,312.8033837604523Q117.3798422607422,312.6633837604523,117.72674226074218,312.53938376045227Q118.07364226074219,312.4163837604523,118.42614226074218,312.3093837604523Q118.77864226074219,312.20338376045225,119.13594226074218,312.11438376045226Q119.49324226074219,312.02538376045226,119.85444226074219,311.95338376045225Q120.21574226074219,311.8823837604523,120.58004226074219,311.82838376045225Q120.94434226074219,311.77538376045226,121.31084226074219,311.73938376045226Q121.6773422607422,311.7043837604523,122.04514226074218,311.68638376045226Q122.41294226074218,311.6683837604523,122.78114226074219,311.66938376045226Q123.14934226074219,311.66938376045226,123.51714226074219,311.68838376045227Q123.88494226074219,311.70638376045224,124.25134226074219,311.7433837604523Q124.61774226074219,311.7793837604523,124.98194226074219,311.8343837604523Q125.34614226074218,311.88838376045226,125.70714226074219,311.96138376045224Q126.06824226074218,312.03338376045224,126.42534226074218,312.12338376045227Q126.78234226074218,312.2133837604523,127.13464226074218,312.3203837604523Q127.4868422607422,312.42738376045224,127.83344226074219,312.55238376045224Q128.1799422607422,312.67638376045227,128.5199422607422,312.81838376045226Q128.8600422607422,312.9593837604523,129.1926422607422,313.1173837604523Q129.5253422607422,313.27538376045226,129.84994226074218,313.4493837604523Q130.17444226074218,313.62338376045227,130.4900422607422,313.81338376045227Q130.8056422607422,314.0023837604523,131.11154226074217,314.2073837604523Q131.41744226074218,314.41238376045226,131.71294226074218,314.6323837604523Q132.00844226074219,314.85238376045226,132.2928422607422,315.08638376045224Q132.5771422607422,315.3193837604523,132.84974226074218,315.5673837604523Q133.12224226074218,315.8153837604523,133.3822422607422,316.07538376045227Q133.64234226074217,316.33638376045224,133.8892422607422,316.60938376045226Q134.1362422607422,316.8823837604523,134.36944226074218,317.16738376045225Q134.6027422607422,317.4523837604523,134.82174226074218,317.74838376045227Q135.0407422607422,318.04438376045226,135.2449422607422,318.3513837604523Q135.44914226074218,318.65738376045226,135.63804226074217,318.9733837604523Q135.8269422607422,319.28938376045227,136.0001422607422,319.61438376045226Q136.1732422607422,319.9393837604523,136.33034226074219,320.27238376045227Q136.48744226074217,320.60538376045224,136.62744226074219,320.94638376045225Q136.76844226074218,321.2863837604523,136.89144226074217,321.63338376045226Q137.0154422607422,321.98038376045224,137.1224422607422,322.3323837604523Q137.22844226074218,322.6853837604523,137.31744226074218,323.04238376045225Q137.40644226074218,323.40038376045226,137.47744226074218,323.7613837604523Q137.54944226074218,324.1223837604523,137.60244226074218,324.48638376045227Q137.65644226074218,324.8513837604523,137.69244226074218,325.21738376045226Q137.72744226074218,325.5843837604523,137.74544226074218,325.95138376045225Q137.7624422607422,326.3193837604523,137.7624422607422,326.68838376045227Q137.7624422607422,327.05638376045226,137.7434422607422,327.42438376045226Q137.72544226074217,327.7913837604523,137.6884422607422,328.15838376045224Q137.6514422607422,328.5243837604523,137.59744226074218,328.88838376045226Q137.54244226074218,329.2523837604523,137.47044226074217,329.61438376045226Q137.39844226074217,329.97538376045225,137.3084422607422,330.3323837604523Q137.2184422607422,330.6893837604523,137.1114422607422,331.0413837604523Q137.0034422607422,331.39338376045225,136.87944226074217,331.74038376045223Q136.75444226074217,332.08638376045224,136.6134422607422,332.42638376045227Q136.47244226074218,332.7663837604523,136.3143422607422,333.09938376045227Q136.15644226074218,333.43238376045224,135.98244226074218,333.7563837604523Q135.8084422607422,334.08138376045224,135.61874226074218,334.3963837604523Q135.4290422607422,334.71238376045227,135.22414226074218,335.01838376045225Q135.01914226074217,335.3243837604523,134.79944226074218,335.61938376045225Q134.5797422607422,335.9153837604523,134.34574226074218,336.1993837604523Q134.1118422607422,336.48438376045226,133.8641422607422,336.7563837604523Q133.6165422607422,337.0293837604523,133.35584226074218,337.28938376045227Q133.0951422607422,337.54938376045226,132.8219422607422,337.7963837604523Q132.5488422607422,338.04338376045223,132.26394226074217,338.2763837604523Q131.9789422607422,338.50938376045224,131.68294226074218,338.7283837604523Q131.38684226074218,338.9473837604523,131.0804422607422,339.1513837604523ZM137.7624422607422,326.66938376045226Q137.7624422607422,327.03738376045226,137.74444226074218,327.4053837604523Q137.7264422607422,327.77338376045225,137.6904422607422,328.13938376045223Q137.6544422607422,328.5063837604523,137.60044226074217,328.8703837604523Q137.5464422607422,329.23438376045226,137.4744422607422,329.59538376045225Q137.4024422607422,329.95638376045224,137.3124422607422,330.3143837604523Q137.2234422607422,330.6713837604523,137.1164422607422,331.02338376045225Q137.0094422607422,331.3753837604523,136.8854422607422,331.72238376045226Q136.76144226074217,332.0693837604523,136.62044226074218,332.4093837604523Q136.4794422607422,332.74938376045225,136.32234226074218,333.0823837604523Q136.1648422607422,333.4153837604523,135.99124226074218,333.74038376045223Q135.8177422607422,334.0653837604523,135.6283422607422,334.3803837604523Q135.43904226074218,334.69638376045225,135.2345422607422,335.0023837604523Q135.0299422607422,335.3093837604523,134.81054226074218,335.60438376045227Q134.5912422607422,335.90038376045226,134.35764226074218,336.1853837604523Q134.1240422607422,336.4693837604523,133.8767422607422,336.7423837604523Q133.62944226074217,337.01538376045227,133.3690422607422,337.27538376045226Q133.1086422607422,337.5363837604523,132.8358422607422,337.78338376045224Q132.56304226074218,338.0303837604523,132.2783422607422,338.26438376045223Q131.99374226074218,338.49838376045227,131.6979422607422,338.71738376045226Q131.40214226074218,338.93638376045226,131.0960422607422,339.1413837604523Q130.7898422607422,339.34538376045225,130.4739422607422,339.5353837604523Q130.15814226074218,339.72438376045227,129.83344226074217,339.89838376045225Q129.5086422607422,340.07138376045225,129.1757422607422,340.22938376045227Q128.84294226074218,340.3863837604523,128.5027422607422,340.52738376045227Q128.16254226074219,340.66838376045223,127.81584226074219,340.79238376045225Q127.46914226074219,340.9163837604523,127.11674226074219,341.02338376045225Q126.76434226074218,341.1303837604523,126.40714226074219,341.2193837604523Q126.04994226074218,341.3093837604523,125.68884226074219,341.3813837604523Q125.32764226074218,341.4523837604523,124.96344226074218,341.5063837604523Q124.59914226074218,341.56138376045226,124.23274226074219,341.59738376045226Q123.86624226074218,341.63338376045226,123.49844226074218,341.6513837604523Q123.13074226074218,341.66938376045226,122.76244226074219,341.66938376045226Q122.39424226074219,341.66938376045226,122.02644226074219,341.6513837604523Q121.65864226074218,341.63338376045226,121.29224226074219,341.59738376045226Q120.92574226074218,341.56138376045226,120.56154226074219,341.5063837604523Q120.19724226074219,341.4523837604523,119.83614226074219,341.3813837604523Q119.47494226074218,341.3093837604523,119.11774226074219,341.2193837604523Q118.76054226074218,341.1303837604523,118.40824226074218,341.02338376045225Q118.05584226074218,340.9163837604523,117.70914226074218,340.79238376045225Q117.36244226074218,340.66838376045223,117.02224226074219,340.52738376045227Q116.6820422607422,340.3863837604523,116.34914226074218,340.22938376045227Q116.01624226074219,340.07138376045225,115.69154226074218,339.89838376045225Q115.36674226074219,339.72438376045227,115.05094226074219,339.5353837604523Q114.73504226074219,339.34538376045225,114.42894226074219,339.1413837604523Q114.12274226074219,338.93638376045226,113.82694226074219,338.71738376045226Q113.53124226074219,338.49838376045227,113.24654226074219,338.26438376045223Q112.96194226074219,338.0303837604523,112.68904226074218,337.78338376045224Q112.4162422607422,337.5363837604523,112.15584226074219,337.27538376045226Q111.89554226074219,337.01538376045227,111.6482422607422,336.7423837604523Q111.40094226074218,336.4693837604523,111.16734226074219,336.1853837604523Q110.93374226074219,335.90038376045226,110.71434226074219,335.60438376045227Q110.49504226074218,335.3093837604523,110.29044226074218,335.0023837604523Q110.08584226074218,334.69638376045225,109.8965422607422,334.3803837604523Q109.70724226074219,334.0653837604523,109.53364226074218,333.74038376045223Q109.36004226074219,333.4153837604523,109.20264226074218,333.0823837604523Q109.04514226074218,332.74938376045225,108.9042422607422,332.4093837604523Q108.76334226074219,332.0693837604523,108.63934226074218,331.72238376045226Q108.51524226074218,331.3753837604523,108.40834226074219,331.02338376045225Q108.30144226074219,330.6713837604523,108.21194226074219,330.3143837604523Q108.1225422607422,329.95638376045224,108.0506422607422,329.59538376045225Q107.97884226074218,329.23438376045226,107.92484226074218,328.8703837604523Q107.87074226074219,328.5063837604523,107.83474226074219,328.13938376045223Q107.79864226074218,327.77338376045225,107.7805422607422,327.4053837604523Q107.76244226074219,327.03738376045226,107.76244226074219,326.66938376045226Q107.76244226074219,326.30138376045227,107.7805422607422,325.9333837604523Q107.79864226074218,325.5653837604523,107.83474226074219,325.1993837604523Q107.87074226074219,324.8323837604523,107.92484226074218,324.4683837604523Q107.97884226074218,324.10438376045227,108.0506422607422,323.7423837604523Q108.1225422607422,323.3813837604523,108.2120422607422,323.0243837604523Q108.30144226074219,322.66738376045225,108.40834226074219,322.3153837604523Q108.51524226074218,321.96238376045227,108.63934226074218,321.6153837604523Q108.76334226074219,321.2693837604523,108.9042422607422,320.92938376045225Q109.04514226074218,320.5883837604523,109.20264226074218,320.25638376045225Q109.36004226074219,319.9233837604523,109.53364226074218,319.5983837604523Q109.70724226074219,319.27338376045225,109.8965422607422,318.9573837604523Q110.08584226074218,318.6413837604523,110.29044226074218,318.33538376045226Q110.49504226074218,318.0293837604523,110.71434226074219,317.7333837604523Q110.93374226074219,317.43838376045227,111.16734226074219,317.15338376045224Q111.40094226074218,316.8683837604523,111.6482422607422,316.59538376045225Q111.89554226074219,316.32338376045226,112.15584226074219,316.06238376045224Q112.4162422607422,315.80238376045224,112.68904226074218,315.5553837604523Q112.96194226074219,315.30738376045224,113.24654226074219,315.0743837604523Q113.53124226074219,314.84038376045226,113.82694226074219,314.62138376045226Q114.12274226074219,314.4013837604523,114.42894226074219,314.1973837604523Q114.73504226074219,313.9923837604523,115.05094226074219,313.8033837604523Q115.36674226074219,313.61438376045226,115.69154226074218,313.4403837604523Q116.01624226074219,313.2663837604523,116.34914226074218,313.10938376045226Q116.6820422607422,312.9523837604523,117.02224226074219,312.81138376045226Q117.36244226074218,312.6703837604523,117.70914226074218,312.5463837604523Q118.05584226074218,312.42238376045225,118.40824226074218,312.3153837604523Q118.76054226074218,312.20838376045225,119.11774226074219,312.1183837604523Q119.47494226074218,312.0293837604523,119.83614226074219,311.9573837604523Q120.19724226074219,311.88538376045227,120.56154226074219,311.83138376045224Q120.92574226074218,311.77738376045227,121.29224226074219,311.74138376045227Q121.65864226074218,311.70538376045226,122.02644226074219,311.68738376045224Q122.39424226074219,311.66938376045226,122.76244226074219,311.66938376045226Q123.13074226074218,311.66938376045226,123.49844226074218,311.68738376045224Q123.86624226074218,311.70538376045226,124.23274226074219,311.74138376045227Q124.59914226074218,311.77738376045227,124.96344226074218,311.83138376045224Q125.32764226074218,311.88538376045227,125.68884226074219,311.9573837604523Q126.04994226074218,312.0293837604523,126.40714226074219,312.1183837604523Q126.76434226074218,312.20838376045225,127.11674226074219,312.3153837604523Q127.46914226074219,312.42238376045225,127.81584226074219,312.5463837604523Q128.16254226074219,312.6703837604523,128.5027422607422,312.81138376045226Q128.84294226074218,312.9523837604523,129.1757422607422,313.10938376045226Q129.5086422607422,313.2663837604523,129.83344226074217,313.4403837604523Q130.15814226074218,313.61438376045226,130.4739422607422,313.8033837604523Q130.7898422607422,313.9923837604523,131.0960422607422,314.1973837604523Q131.40214226074218,314.4013837604523,131.6979422607422,314.62138376045226Q131.99374226074218,314.84038376045226,132.2783422607422,315.0743837604523Q132.56304226074218,315.30738376045224,132.8358422607422,315.5553837604523Q133.1086422607422,315.80238376045224,133.3690422607422,316.06238376045224Q133.62944226074217,316.32338376045226,133.8767422607422,316.59538376045225Q134.1240422607422,316.8683837604523,134.35764226074218,317.15338376045224Q134.5912422607422,317.43838376045227,134.81054226074218,317.7333837604523Q135.0299422607422,318.0293837604523,135.2345422607422,318.33538376045226Q135.43904226074218,318.6413837604523,135.6283422607422,318.9573837604523Q135.8177422607422,319.27338376045225,135.99124226074218,319.5983837604523Q136.1648422607422,319.9233837604523,136.32234226074218,320.2553837604523Q136.4794422607422,320.5883837604523,136.62044226074218,320.92938376045225Q136.76144226074217,321.2693837604523,136.8854422607422,321.6153837604523Q137.0094422607422,321.96238376045227,137.1164422607422,322.3153837604523Q137.2234422607422,322.66738376045225,137.3124422607422,323.0243837604523Q137.4024422607422,323.3813837604523,137.4744422607422,323.7423837604523Q137.5464422607422,324.10438376045227,137.60044226074217,324.4683837604523Q137.6544422607422,324.8323837604523,137.6904422607422,325.1993837604523Q137.7264422607422,325.5653837604523,137.74444226074218,325.9333837604523Q137.7624422607422,326.30138376045227,137.7624422607422,326.66938376045226ZM706.5814422607422,194.37338376045227Q706.5814422607422,194.74161276045228,706.5634422607421,195.10939876045228Q706.5454422607422,195.47718376045228,706.5094422607422,195.84364376045227Q706.4734422607422,196.21009376045228,706.4194422607422,196.57434376045228Q706.3654422607422,196.93858376045227,706.2934422607422,197.29973376045228Q706.2214422607422,197.66089376045227,706.1324422607422,198.01808376045227Q706.0424422607422,198.37528376045228,705.9354422607422,198.72765376045226Q705.8284422607422,199.08002376045226,705.7044422607422,199.42673376045227Q705.5804422607422,199.77343376045226,705.4394422607422,200.11363376045227Q705.2984422607421,200.45383376045228,705.1414422607422,200.78671376045227Q704.9844422607422,201.11958376045226,704.8104422607422,201.44433376045228Q704.6364422607422,201.76908376045228,704.4474422607422,202.08492376045228Q704.2584422607422,202.40076376045226,704.0534422607421,202.70693376045227Q703.8494422607422,203.01310376045228,703.6294422607422,203.30887376045226Q703.4104422607422,203.60463376045226,703.1764422607422,203.88928376045226Q702.9434422607421,204.17392376045228,702.6954422607422,204.44678376045226Q702.4484422607422,204.71958376045228,702.1884422607421,204.97998376045228Q701.9274422607422,205.24038376045226,701.6554422607422,205.48768376045228Q701.3824422607422,205.73498376045228,701.0974422607422,205.96858376045228Q700.8124422607422,206.20218376045227,700.5174422607422,206.42148376045228Q700.2214422607422,206.64088376045228,699.9154422607422,206.84538376045228Q699.6084422607422,207.04998376045228,699.2934422607422,207.23928376045228Q698.9774422607422,207.42858376045228,698.6524422607422,207.60218376045228Q698.3274422607421,207.77578376045227,697.9944422607422,207.93318376045227Q697.6614422607422,208.09068376045227,697.3214422607422,208.23158376045228Q696.9814422607421,208.37248376045227,696.6344422607422,208.49658376045227Q696.2884422607422,208.62058376045226,695.9354422607422,208.72748376045226Q695.5834422607422,208.83438376045228,695.2264422607421,208.92388376045227Q694.8694422607422,209.01328376045228,694.5074422607422,209.08518376045228Q694.1464422607422,209.15698376045228,693.7824422607422,209.21098376045228Q693.4184422607422,209.26508376045228,693.0514422607422,209.30118376045226Q692.6854422607422,209.33728376045227,692.3174422607422,209.35528376045227Q691.9494422607422,209.37338376045227,691.5814422607422,209.37338376045227Q691.2134422607422,209.37338376045227,690.8454422607422,209.35528376045227Q690.4774422607422,209.33728376045227,690.1114422607421,209.30118376045226Q689.7444422607422,209.26508376045228,689.3804422607421,209.21098376045228Q689.0164422607422,209.15698376045228,688.6554422607422,209.08518376045228Q688.2944422607422,209.01328376045228,687.9364422607422,208.92388376045227Q687.5794422607422,208.83438376045228,687.2274422607422,208.72748376045226Q686.8744422607422,208.62058376045226,686.5284422607422,208.49658376045227Q686.1814422607422,208.37248376045227,685.8414422607422,208.23158376045228Q685.5014422607422,208.09068376045227,685.1684422607422,207.93318376045227Q684.8354422607422,207.77578376045227,684.5104422607421,207.60218376045228Q684.1854422607422,207.42858376045228,683.8704422607422,207.23928376045228Q683.5544422607422,207.04998376045228,683.2484422607422,206.84538376045228Q682.9414422607422,206.64088376045228,682.6464422607422,206.42148376045228Q682.3504422607422,206.20218376045227,682.0654422607422,205.96858376045228Q681.7814422607422,205.73498376045228,681.5084422607422,205.48768376045228Q681.2354422607422,205.24038376045226,680.9754422607422,204.97998376045228Q680.7144422607422,204.71958376045228,680.4674422607421,204.44678376045226Q680.2204422607422,204.17392376045228,679.9864422607421,203.88928376045226Q679.7524422607422,203.60463376045226,679.5334422607422,203.30887376045226Q679.3144422607422,203.01310376045228,679.1094422607422,202.70693376045227Q678.9044422607421,202.40076376045226,678.7154422607422,202.08492376045228Q678.5264422607422,201.76908376045228,678.3524422607422,201.44433376045228Q678.1794422607422,201.11958376045226,678.0214422607422,200.78671376045227Q677.8644422607422,200.45383376045228,677.7234422607422,200.11363376045227Q677.5824422607421,199.77343376045226,677.4584422607422,199.42673376045227Q677.3344422607422,199.08002376045226,677.2274422607422,198.72765376045226Q677.1204422607422,198.37528376045228,677.0314422607422,198.01808376045227Q676.9414422607422,197.66089376045227,676.8694422607422,197.29973376045228Q676.7984422607421,196.93858376045227,676.7434422607422,196.57434376045228Q676.6894422607422,196.21009376045228,676.6534422607422,195.84364376045227Q676.6174422607422,195.47718376045228,676.5994422607422,195.10939876045228Q676.5814422607422,194.74161276045228,676.5814422607422,194.37338376045227Q676.5814422607422,194.00515476045226,676.5994422607422,193.63736876045226Q676.6174422607422,193.26958376045226,676.6534422607422,192.90312376045227Q676.6894422607422,192.53667376045226,676.7434422607422,192.17242376045226Q676.7984422607421,191.80818376045227,676.8694422607422,191.44703376045226Q676.9414422607422,191.08587376045227,677.0314422607422,190.72868376045227Q677.1204422607422,190.37148376045226,677.2274422607422,190.01911376045229Q677.3344422607422,189.66674376045228,677.4584422607422,189.32003376045228Q677.5824422607421,188.97333376045228,677.7234422607422,188.63313376045227Q677.8644422607422,188.29293376045226,678.0214422607422,187.96005376045227Q678.1794422607422,187.62718376045228,678.3524422607422,187.30243376045226Q678.5264422607422,186.97768376045227,678.7154422607422,186.66184376045226Q678.9044422607421,186.34600376045228,679.1094422607422,186.03983376045227Q679.3144422607422,185.73366376045226,679.5334422607422,185.43789376045228Q679.7524422607422,185.14213376045228,679.9864422607421,184.85748376045228Q680.2204422607422,184.57284376045226,680.4674422607421,184.29998376045228Q680.7144422607422,184.02718376045226,680.9754422607422,183.76678376045226Q681.2354422607422,183.50638376045228,681.5084422607422,183.25908376045226Q681.7814422607422,183.01178376045226,682.0654422607422,182.77818376045227Q682.3504422607422,182.54458376045227,682.6464422607422,182.32528376045227Q682.9414422607422,182.10588376045226,683.2484422607422,181.90138376045226Q683.5544422607422,181.69678376045226,683.8704422607422,181.50748376045226Q684.1854422607422,181.31818376045226,684.5104422607421,181.14458376045226Q684.8354422607422,180.97098376045227,685.1684422607422,180.81358376045227Q685.5014422607422,180.65608376045228,685.8414422607422,180.51518376045226Q686.1814422607422,180.37428376045227,686.5284422607422,180.25018376045227Q686.8744422607422,180.12618376045228,687.2274422607422,180.01928376045228Q687.5794422607422,179.91238376045226,687.9364422607422,179.82288376045227Q688.2944422607422,179.73348376045226,688.6554422607422,179.66158376045226Q689.0164422607422,179.58978376045226,689.3804422607421,179.53578376045226Q689.7444422607422,179.48168376045226,690.1114422607421,179.44558376045228Q690.4774422607422,179.40948376045228,690.8454422607422,179.39148376045227Q691.2134422607422,179.37338376045227,691.5814422607422,179.37338376045227Q691.9494422607422,179.37338376045227,692.3174422607422,179.39148376045227Q692.6854422607422,179.40948376045228,693.0514422607422,179.44558376045228Q693.4184422607422,179.48168376045226,693.7824422607422,179.53578376045226Q694.1464422607422,179.58978376045226,694.5084422607422,179.66158376045226Q694.8694422607422,179.73348376045226,695.2264422607421,179.82288376045227Q695.5834422607422,179.91238376045226,695.9364422607422,180.01928376045228Q696.2884422607422,180.12618376045228,696.6344422607422,180.25018376045227Q696.9814422607421,180.37428376045227,697.3214422607422,180.51518376045226Q697.6624422607422,180.65608376045228,697.9944422607422,180.81358376045227Q698.3274422607421,180.97098376045227,698.6524422607422,181.14458376045226Q698.9774422607422,181.31818376045226,699.2934422607422,181.50748376045226Q699.6094422607422,181.69678376045226,699.9154422607422,181.90138376045226Q700.2214422607422,182.10588376045226,700.5174422607422,182.32528376045227Q700.8124422607422,182.54458376045227,701.0974422607422,182.77818376045227Q701.3824422607422,183.01178376045226,701.6554422607422,183.25908376045226Q701.9274422607422,183.50638376045228,702.1884422607421,183.76678376045226Q702.4484422607422,184.02718376045226,702.6954422607422,184.29998376045228Q702.9434422607421,184.57284376045226,703.1764422607422,184.85748376045228Q703.4104422607422,185.14213376045228,703.6294422607422,185.43789376045228Q703.8494422607422,185.73366376045226,704.0534422607421,186.03983376045227Q704.2584422607422,186.34600376045228,704.4474422607422,186.66184376045226Q704.6364422607422,186.97768376045227,704.8104422607422,187.30243376045226Q704.9844422607422,187.62718376045228,705.1414422607422,187.96005376045227Q705.2984422607421,188.29293376045226,705.4394422607422,188.63313376045227Q705.5804422607422,188.97333376045228,705.7044422607422,189.32003376045228Q705.8284422607422,189.66674376045228,705.9354422607422,190.01911376045229Q706.0424422607422,190.37148376045226,706.1324422607422,190.72868376045227Q706.2214422607422,191.08587376045227,706.2934422607422,191.44703376045226Q706.3654422607422,191.80818376045227,706.4194422607422,192.17242376045226Q706.4734422607422,192.53667376045226,706.5094422607422,192.90312376045227Q706.5454422607422,193.26958376045226,706.5634422607421,193.63736876045226Q706.5814422607422,194.00515476045226,706.5814422607422,194.37338376045227Z" fill="url(#master_svg4_46_953)" fill-opacity="1"/></g></g><g style="mix-blend-mode:passthrough"><ellipse cx="659.5167541503906" cy="99.11775207519531" rx="29.420150756835938" ry="29.424758911132812" fill="url(#master_svg5_46_0183)" fill-opacity="1"/></g></g></svg>